<svg xmlns="http://www.w3.org/2000/svg" width="32" height="32" viewBox="0 0 32 32">
  <g id="Group_101" data-name="Group 101" transform="translate(-0.5)">
    <circle id="Ellipse_24" data-name="Ellipse 24" cx="16" cy="16" r="16" transform="translate(0.5)" fill="#fff"/>
    <path id="Icon_awesome-linkedin-in" data-name="Icon awesome-linkedin-in" d="M3.469,15.5H.256V5.152H3.469ZM1.861,3.74A1.87,1.87,0,1,1,3.722,1.862,1.877,1.877,0,0,1,1.861,3.74ZM15.5,15.5H12.29V10.463c0-1.2-.024-2.74-1.671-2.74-1.671,0-1.927,1.3-1.927,2.654V15.5H5.482V5.152H8.564V6.563h.045a3.377,3.377,0,0,1,3.04-1.671c3.252,0,3.85,2.142,3.85,4.923V15.5Z" transform="translate(8.5 8)" fill="#1b3d6b"/>
  </g>
</svg>
