<svg id="Group_100" data-name="Group 100" xmlns="http://www.w3.org/2000/svg" width="32" height="32" viewBox="0 0 32 32">
  <circle id="Ellipse_23" data-name="Ellipse 23" cx="16" cy="16" r="16" fill="#fff"/>
  <path id="Icon_awesome-twitter" data-name="Icon awesome-twitter" d="M17.123,7.244c.012.17.012.339.012.509A11.052,11.052,0,0,1,6.006,18.881,11.053,11.053,0,0,1,0,17.125a8.092,8.092,0,0,0,.945.048A7.833,7.833,0,0,0,5.8,15.5,3.918,3.918,0,0,1,2.143,12.79a4.932,4.932,0,0,0,.739.061,4.137,4.137,0,0,0,1.029-.133A3.912,3.912,0,0,1,.775,8.878V8.83a3.939,3.939,0,0,0,1.768.5A3.917,3.917,0,0,1,1.332,4.1,11.118,11.118,0,0,0,9.4,8.188a4.415,4.415,0,0,1-.1-.9,3.915,3.915,0,0,1,6.769-2.676,7.7,7.7,0,0,0,2.482-.945,3.9,3.9,0,0,1-1.72,2.155,7.841,7.841,0,0,0,2.252-.605,8.408,8.408,0,0,1-1.962,2.022Z" transform="translate(7 4.619)" fill="#1b3d6b"/>
</svg>
