<svg id="Group_102" data-name="Group 102" xmlns="http://www.w3.org/2000/svg" width="32" height="32" viewBox="0 0 32 32">
  <circle id="Ellipse_25" data-name="Ellipse 25" cx="16" cy="16" r="16" fill="#fff"/>
  <path id="Icon_simple-youtube" data-name="Icon simple-youtube" d="M17.624,7.366A2.255,2.255,0,0,0,16.058,5.8a54.034,54.034,0,0,0-7.047-.376A52.827,52.827,0,0,0,1.965,5.8,2.255,2.255,0,0,0,.4,7.366a23.435,23.435,0,0,0-.391,4.354A23.434,23.434,0,0,0,.4,16.056a2.255,2.255,0,0,0,1.566,1.566A53.915,53.915,0,0,0,9.012,18a54.044,54.044,0,0,0,7.047-.376,2.255,2.255,0,0,0,1.566-1.566A23.435,23.435,0,0,0,18,11.719a23.435,23.435,0,0,0-.375-4.354ZM7.21,14.412V9.018l4.7,2.7Z" transform="translate(6.994 4.576)" fill="#1b3d6b"/>
</svg>
