<svg id="academy" xmlns="http://www.w3.org/2000/svg" width="24.254" height="24.25" viewBox="0 0 24.254 24.25">
  <path id="Path_356" data-name="Path 356" d="M98.123,32.274c-.774.236-1.508.459-2.243.7-2.584.8-5.168,1.587-7.752,2.387a1.235,1.235,0,0,1-.813-.013L76.335,31.96a.877.877,0,0,1,0-1.731c3.66-1.128,7.319-2.243,10.979-3.384a1.235,1.235,0,0,1,.813,0c3.647,1.128,7.306,2.256,10.953,3.371a.906.906,0,0,1,.774,1.036v8.421a.882.882,0,0,1-.459.84.794.794,0,0,1-.879-.026.879.879,0,0,1-.407-.8v-7.1A2.229,2.229,0,0,0,98.123,32.274Z" transform="translate(-75.6 -26.775)" fill="#8a1b26"/>
  <path id="Path_357" data-name="Path 357" d="M123.67,83.6c.249.971.5,1.9.735,2.846a.714.714,0,0,1,0,.236.844.844,0,0,1-.564.669c-1.062.407-2.125.8-3.188,1.194a.309.309,0,0,1-.262-.039,6.879,6.879,0,0,0-7.529,0,.372.372,0,0,1-.289.026c-1.036-.38-2.073-.774-3.109-1.167a.858.858,0,0,1-.577-1.141l.669-2.558c0-.013.026-.026.052-.066l.315.079c2.033.63,4.066,1.246,6.1,1.876a2.056,2.056,0,0,0,1.194.013c2.086-.643,4.184-1.286,6.27-1.928A.649.649,0,0,1,123.67,83.6Z" transform="translate(-104.479 -76.146)" fill="#8a1b26"/>
  <path id="Path_358" data-name="Path 358" d="M151.571,153.177c-.367,0-.735.013-1.115-.013a.311.311,0,0,1-.249-.144q-.571-.944-1.1-1.889a.306.306,0,0,1,0-.262q.531-.944,1.1-1.889a.311.311,0,0,1,.249-.144c.735-.013,1.482-.013,2.217,0a.306.306,0,0,1,.223.131q.571.944,1.1,1.889a.368.368,0,0,1,0,.289c-.354.63-.721,1.246-1.089,1.863a.422.422,0,0,1-.262.157C152.292,153.19,151.925,153.177,151.571,153.177Z" transform="translate(-139.437 -132.815)" fill="#8a1b26"/>
  <path id="Path_359" data-name="Path 359" d="M151.268,120.133c-.472.63-.958,1.246-1.4,1.889a.731.731,0,0,1-.708.354c-.656-.026-1.312,0-1.981-.013a.357.357,0,0,1-.262-.092c-.551-.708-1.076-1.417-1.613-2.125A5.954,5.954,0,0,1,151.268,120.133Z" transform="translate(-136.157 -107.196)" fill="#8a1b26"/>
  <path id="Path_360" data-name="Path 360" d="M145.3,190.878c.551-.721,1.076-1.43,1.613-2.125a.317.317,0,0,1,.223-.092c.761-.013,1.535,0,2.3,0a.3.3,0,0,1,.21.079c.538.708,1.076,1.417,1.613,2.138A5.983,5.983,0,0,1,145.3,190.878Z" transform="translate(-136.157 -167.421)" fill="#8a1b26"/>
  <path id="Path_361" data-name="Path 361" d="M121.8,133.355A6.076,6.076,0,0,1,124.148,129c.538.721,1.076,1.417,1.587,2.112a.251.251,0,0,1,0,.236l-1.1,1.889a.283.283,0,0,1-.184.118Z" transform="translate(-115.74 -115.591)" fill="#8a1b26"/>
  <path id="Path_362" data-name="Path 362" d="M185.643,128.9a6.075,6.075,0,0,1,2.348,4.329.785.785,0,0,1-.157.026h-2.44a.4.4,0,0,1-.275-.157c-.367-.6-.721-1.207-1.062-1.823a.307.307,0,0,1-.013-.262C184.567,130.33,185.092,129.635,185.643,128.9Z" transform="translate(-169.797 -115.504)" fill="#8a1b26"/>
  <path id="Path_363" data-name="Path 363" d="M124.148,173.133a6.08,6.08,0,0,1-2.348-4.355h.984c.538,0,1.062-.013,1.6.013a.4.4,0,0,1,.289.157q.551.905,1.063,1.81a.253.253,0,0,1,.013.236C125.224,171.7,124.7,172.412,124.148,173.133Z" transform="translate(-115.74 -150.148)" fill="#8a1b26"/>
  <path id="Path_364" data-name="Path 364" d="M185.545,173.2c-.354-.459-.682-.905-1.023-1.351-.184-.236-.354-.485-.538-.708a.243.243,0,0,1-.026-.328c.367-.6.708-1.207,1.076-1.81a.322.322,0,0,1,.223-.144c.853-.013,1.718,0,2.571,0,.013,0,.026.013.066.026A6.073,6.073,0,0,1,185.545,173.2Z" transform="translate(-169.699 -150.218)" fill="#8a1b26"/>
</svg>
