<svg xmlns="http://www.w3.org/2000/svg" width="21.117" height="24.134" viewBox="0 0 21.117 24.134">
  <path id="Icon_awesome-calendar-alt" data-name="Icon awesome-calendar-alt" d="M0,21.871a2.263,2.263,0,0,0,2.263,2.263H18.855a2.263,2.263,0,0,0,2.263-2.263V9.05H0Zm15.084-9.239a.567.567,0,0,1,.566-.566h1.885a.567.567,0,0,1,.566.566v1.885a.567.567,0,0,1-.566.566H15.649a.567.567,0,0,1-.566-.566Zm0,6.033a.567.567,0,0,1,.566-.566h1.885a.567.567,0,0,1,.566.566v1.885a.567.567,0,0,1-.566.566H15.649a.567.567,0,0,1-.566-.566ZM9.05,12.633a.567.567,0,0,1,.566-.566H11.5a.567.567,0,0,1,.566.566v1.885a.567.567,0,0,1-.566.566H9.616a.567.567,0,0,1-.566-.566Zm0,6.033a.567.567,0,0,1,.566-.566H11.5a.567.567,0,0,1,.566.566v1.885a.567.567,0,0,1-.566.566H9.616a.567.567,0,0,1-.566-.566ZM3.017,12.633a.567.567,0,0,1,.566-.566H5.468a.567.567,0,0,1,.566.566v1.885a.567.567,0,0,1-.566.566H3.582a.567.567,0,0,1-.566-.566Zm0,6.033a.567.567,0,0,1,.566-.566H5.468a.567.567,0,0,1,.566.566v1.885a.567.567,0,0,1-.566.566H3.582a.567.567,0,0,1-.566-.566ZM18.855,3.017H16.592V.754A.756.756,0,0,0,15.838,0H14.33a.756.756,0,0,0-.754.754V3.017H7.542V.754A.756.756,0,0,0,6.788,0H5.279a.756.756,0,0,0-.754.754V3.017H2.263A2.263,2.263,0,0,0,0,5.279V7.542H21.117V5.279A2.263,2.263,0,0,0,18.855,3.017Z" fill="#c1a367"/>
</svg>
