<svg xmlns="http://www.w3.org/2000/svg" width="18" height="18" viewBox="0 0 18 18">
  <path id="Icon_metro-link" data-name="Icon metro-link" d="M10.644,13.517a.933.933,0,0,1-.662-.274,4.4,4.4,0,0,1,0-6.211l3.457-3.456a4.393,4.393,0,1,1,6.213,6.211l-1.58,1.58a.936.936,0,1,1-1.324-1.324l1.58-1.58A2.52,2.52,0,0,0,14.762,4.9L11.306,8.356a2.522,2.522,0,0,0,0,3.564.936.936,0,0,1-.662,1.6ZM7.327,20.29a4.392,4.392,0,0,1-3.106-7.5l1.58-1.58a.936.936,0,1,1,1.324,1.324l-1.58,1.58a2.52,2.52,0,0,0,3.565,3.564l3.457-3.456a2.523,2.523,0,0,0,0-3.564A.936.936,0,1,1,13.89,9.336a4.4,4.4,0,0,1,0,6.211L10.433,19A4.365,4.365,0,0,1,7.327,20.29Z" transform="translate(-2.936 -2.29)"/>
</svg>
