<svg xmlns="http://www.w3.org/2000/svg" width="24" height="24" viewBox="0 0 24 24">
  <path id="Path_795" data-name="Path 795" d="M23.978,23.016a1.318,1.318,0,0,1-.939.947,1.182,1.182,0,0,1-1.056-.241,2.479,2.479,0,0,1-.256-.241Q16.964,18.72,12.2,13.949a1.734,1.734,0,0,1-.155-.233h-.109a1.735,1.735,0,0,1-.155.233q-4.786,4.8-9.581,9.579a1.287,1.287,0,0,1-1.266.427,1.232,1.232,0,0,1-.66-1.987c.078-.093.163-.171.241-.256q4.752-4.751,9.5-9.494a1.407,1.407,0,0,1,.248-.171v-.116a1.407,1.407,0,0,1-.248-.171Q5.225,7,.446,2.2a1.65,1.65,0,0,1-.419-.683A1.188,1.188,0,0,1,.749.093L.958,0h.512A2.5,2.5,0,0,1,2.4.675l9.379,9.377c.062.062.132.124.225.217a2.666,2.666,0,0,1,.21-.256Q16.933,5.3,21.641.59A2.047,2.047,0,0,1,22.519,0h.466a1.418,1.418,0,0,1,.986.986V1.5a2.321,2.321,0,0,1-.644.9q-4.7,4.693-9.394,9.393a1.217,1.217,0,0,1-.233.155v.109a2.428,2.428,0,0,1,.233.155q4.7,4.7,9.418,9.408a2.372,2.372,0,0,1,.629.885Z" transform="translate(0.022)" fill="#333"/>
</svg>
