<svg xmlns="http://www.w3.org/2000/svg" width="16.302" height="18" viewBox="0 0 16.302 18">
  <path id="Icon_ionic-md-share" data-name="Icon ionic-md-share" d="M18.077,15.848a2.475,2.475,0,0,0-1.771.678L9.813,12.772a3.041,3.041,0,0,0,.091-.633,3.04,3.04,0,0,0-.091-.633l6.4-3.708a2.717,2.717,0,1,0-.863-1.99,3.023,3.023,0,0,0,.091.633l-6.4,3.708a2.733,2.733,0,0,0-1.862-.723A2.688,2.688,0,0,0,4.5,12.139a2.734,2.734,0,0,0,4.586,1.99l6.448,3.754a2.269,2.269,0,0,0-.091.588,2.634,2.634,0,1,0,2.634-2.623Z" transform="translate(-4.5 -3.094)" fill="#000"/>
</svg>
