<svg xmlns="http://www.w3.org/2000/svg" width="24.315" height="24.333" viewBox="0 0 24.315 24.333">
  <g id="tournaments" transform="translate(-0.012)">
    <path id="Path_8" data-name="Path 8" d="M78.977,0h6.34a.841.841,0,0,1,.967.96c0,2.656.007,5.306,0,7.962a7.3,7.3,0,0,1-14.505,1.163,8.4,8.4,0,0,1-.095-1.237c-.014-2.636-.007-5.265-.007-7.888a.836.836,0,0,1,.96-.96Z" transform="translate(-66.819)" fill="#8a1b26"/>
    <path id="Path_9" data-name="Path 9" d="M109.993,249.392V246.6a8.239,8.239,0,0,0,4.867,0v2.758a7.158,7.158,0,0,1,.852.2,2.412,2.412,0,0,1,1.582,2.21c.014.554.007,1.115,0,1.67a.8.8,0,0,1-.838.825H108.4a.782.782,0,0,1-.825-.7,13.543,13.543,0,0,1,.034-2.1,2.363,2.363,0,0,1,2.258-2.062C109.9,249.405,109.933,249.4,109.993,249.392Z" transform="translate(-100.269 -229.932)" fill="#8a1b26"/>
    <path id="Path_10" data-name="Path 10" d="M284.2,45.523a8.48,8.48,0,0,0,.892-2.372.676.676,0,0,1,.169-.27A11.069,11.069,0,0,0,287.6,38.2a4.005,4.005,0,0,0,.074-.8c0-.4-.128-.588-.527-.662a12,12,0,0,0-1.3-.122c-.182-.014-.372,0-.575,0v-1.6a5.981,5.981,0,0,1,2.778.318,2.144,2.144,0,0,1,1.257,2.014,7.01,7.01,0,0,1-.6,2.8,12.045,12.045,0,0,1-2.548,4.13,4.568,4.568,0,0,1-1.622,1.142C284.45,45.442,284.362,45.469,284.2,45.523Z" transform="translate(-264.979 -32.619)" fill="#8a1b26"/>
    <path id="Path_11" data-name="Path 11" d="M4.026,36.129c-.581.027-1.142.034-1.69.095-.575.068-.744.291-.723.865A6.618,6.618,0,0,0,2.249,39.5,11.3,11.3,0,0,0,4.094,42.5a.432.432,0,0,1,.108.2,10.049,10.049,0,0,0,.825,2.366c-.25-.115-.507-.21-.744-.345a6.309,6.309,0,0,1-1.859-1.73A12.133,12.133,0,0,1,.079,37.839a4.2,4.2,0,0,1-.007-1.453,2.156,2.156,0,0,1,2-1.764c.635-.095,1.291-.081,1.96-.122C4.026,35.088,4.026,35.615,4.026,36.129Z" transform="translate(0 -32.168)" fill="#8a1b26"/>
  </g>
</svg>
