<svg xmlns="http://www.w3.org/2000/svg" width="26.913" height="26.879" viewBox="0 0 26.913 26.879">
  <g id="Group_57" data-name="Group 57" transform="translate(0)">
    <path id="Path_147" data-name="Path 147" d="M58.5,29.131l5.138-2.457a.16.16,0,0,0,.149-.149V26.3l-3.5-6.7h0c-.67.6-1.787,2.085-1.787,5.063v4.468Z" transform="translate(-36.874 -16.547)" fill="#fff"/>
    <path id="Path_148" data-name="Path 148" d="M29.638,26.648l5.138,2.457V24.563A6.8,6.8,0,0,0,32.988,19.5h0l-3.5,6.7c0,.074-.074.149,0,.223C29.489,26.574,29.563,26.574,29.638,26.648Z" transform="translate(-29.456 -16.522)" fill="#fff"/>
    <path id="Path_149" data-name="Path 149" d="M37.21,28.954h0V41.463a.986.986,0,0,0,.968.968H50.687a.986.986,0,0,0,.968-.968V28.954h0V23.667a7.687,7.687,0,0,1,2.01-5.659L49.124,15.7c-.223,1.191-1.117,3.648-4.691,3.648s-4.468-2.383-4.691-3.648L35.2,18.008a7.687,7.687,0,0,1,2.01,5.659v5.287Z" transform="translate(-30.923 -15.551)" fill="#fff"/>
    <path id="Path_150" data-name="Path 150" d="M46.3,18.329a3.5,3.5,0,0,0,3.8-2.829,21.871,21.871,0,0,1-3.8.372,21.871,21.871,0,0,1-3.8-.372C42.649,16.468,43.394,18.329,46.3,18.329Z" transform="translate(-32.787 -15.5)" fill="#fff"/>
  </g>
</svg>
