<svg id="Group_60" data-name="Group 60" xmlns="http://www.w3.org/2000/svg" width="23.93" height="20.402" viewBox="0 0 23.93 20.402">
  <path id="Path_202" data-name="Path 202" d="M54.552,19.823a.91.91,0,0,0-.67-.223H39.735a1.2,1.2,0,0,0-.67.223.91.91,0,0,0-.223.67v2.829H36.682a4.862,4.862,0,0,0-.819.149,1.377,1.377,0,0,0-.67.521l-2.755,2.829c-.074.074-.149.223-.3.372a3.506,3.506,0,0,0-.149.372,1.267,1.267,0,0,0-.074.521c0,.149-.223.447-.223.521v5.733a1.2,1.2,0,0,0-.67.223.91.91,0,0,0-.223.67.671.671,0,0,0,.074.372c.074.074.074.149.149.223s.149.074.223.149.149.074.3.074.223,0,.3.074h1.415A3.425,3.425,0,0,0,34.3,38.736,3.787,3.787,0,0,0,36.906,40a3.451,3.451,0,0,0,2.532-1.117,3.536,3.536,0,0,0,1.042-2.606h5.435a3.533,3.533,0,0,0,6.106,2.606,3.536,3.536,0,0,0,1.042-2.606h.6a.742.742,0,0,0,.3-.074c.149,0,.223-.074.3-.074.074-.074.149-.074.223-.149s.149-.149.149-.223a3.225,3.225,0,0,0,.074-.372V20.494A.759.759,0,0,0,54.552,19.823ZM38.32,37.544a1.554,1.554,0,0,1-1.191.6,1.482,1.482,0,0,1-1.266-.6,2.022,2.022,0,0,1-.6-1.266,1.482,1.482,0,0,1,.6-1.266,1.554,1.554,0,0,1,1.191-.6,1.354,1.354,0,0,1,1.191.6,2.022,2.022,0,0,1,.6,1.266A1.534,1.534,0,0,1,38.32,37.544Zm.521-8.563H33.555v-.372c0-.074.074-.149.149-.372l2.681-2.829a.387.387,0,0,1,.3-.149h2.159v3.723Zm11.913,8.563a1.554,1.554,0,0,1-1.191.6,1.354,1.354,0,0,1-1.191-.6,2.022,2.022,0,0,1-.6-1.266,1.482,1.482,0,0,1,.6-1.266,1.678,1.678,0,0,1,1.191-.6,1.354,1.354,0,0,1,1.191.6,2.022,2.022,0,0,1,.6,1.266A1.855,1.855,0,0,1,50.755,37.544Z" transform="translate(-30.8 -19.6)" fill="#fff"/>
</svg>
