<svg xmlns="http://www.w3.org/2000/svg" width="25.614" height="25.539" viewBox="0 0 25.614 25.539">
  <g id="Group_66" data-name="Group 66" transform="translate(0)">
    <g id="Group_64" data-name="Group 64">
      <path id="Path_247" data-name="Path 247" d="M45.734,20.4l1.489.745V17.2H43.5v3.946l1.638-.745A.822.822,0,0,1,45.734,20.4Z" transform="translate(-35.98 -17.2)" fill="#fff"/>
      <path id="Path_248" data-name="Path 248" d="M52.387,25.316V17.87a.72.72,0,0,0-.67-.67H46.132v5.063a.7.7,0,0,1-1.042.6l-2.159-1.117-2.159,1.117a.659.659,0,0,1-.968-.6V17.2H34.145c-.447,0-.745.223-.745.67V35.517a.72.72,0,0,0,.67.67h7.446a8.832,8.832,0,0,1,0-6.329A8.24,8.24,0,0,1,52.387,25.316Z" transform="translate(-33.4 -17.2)" fill="#fff"/>
    </g>
    <g id="Group_65" data-name="Group 65" transform="translate(8.805 8.73)">
      <path id="Path_249" data-name="Path 249" d="M57.269,30.991a7.055,7.055,0,1,0,0,9.977,7.056,7.056,0,0,0,0-9.977Zm-1.564,8.488a4.831,4.831,0,0,1-6.85,0,4.9,4.9,0,0,1,0-6.85,4.831,4.831,0,0,1,6.85,0,4.911,4.911,0,0,1,1.415,3.425,5.048,5.048,0,0,1-1.415,3.425Z" transform="translate(-45.225 -28.925)" fill="#fff"/>
      <path id="Path_250" data-name="Path 250" d="M65.884,48.021a1.573,1.573,0,0,1-1.564,1.564,1.515,1.515,0,0,1-1.117-.447l-2.9-2.9.149-.149a7.968,7.968,0,0,0,1.936-1.936L62.534,44l2.9,2.9a1.642,1.642,0,0,1,.447,1.117Z" transform="translate(-49.075 -32.775)" fill="#fff"/>
    </g>
  </g>
</svg>
