<svg id="Group_70" data-name="Group 70" xmlns="http://www.w3.org/2000/svg" width="22.715" height="22.933" viewBox="0 0 22.715 22.933">
  <path id="Path_301" data-name="Path 301" d="M46.734,23.9l1.489.745V20.7H44.5v3.946l1.638-.745A.822.822,0,0,1,46.734,23.9Z" transform="translate(-37.054 -20.7)" fill="#fff"/>
  <path id="Path_302" data-name="Path 302" d="M53.412,28.816V21.37a.72.72,0,0,0-.67-.67H47.158v5.063a.7.7,0,0,1-1.042.6l-2.159-1.117L41.8,26.359a.606.606,0,0,1-.894-.6V20.7H35.245c-.447,0-.745.223-.745.67V39.017a.72.72,0,0,0,.67.67h7.446a8.832,8.832,0,0,1,0-6.329A8.193,8.193,0,0,1,53.412,28.816Z" transform="translate(-34.5 -20.7)" fill="#fff"/>
  <path id="Path_303" data-name="Path 303" d="M58.062,34.685A7.1,7.1,0,0,0,53.074,32.6a6.921,6.921,0,0,0-4.989,2.085A7.244,7.244,0,0,0,46,39.6a7.074,7.074,0,0,0,14.147,0A6.124,6.124,0,0,0,58.062,34.685Zm-2.085,7.148a2.42,2.42,0,0,1-1.787.745H51.063a.67.67,0,1,1,0-1.34H54.19a1.3,1.3,0,0,0,1.266-1.266,1,1,0,0,0-.372-.894,1.233,1.233,0,0,0-.894-.372H52.329l.372.372a.632.632,0,0,1-.894.894l-1.489-1.489a.679.679,0,0,1,0-.894L51.808,36.1a.632.632,0,0,1,.894.893l-.372.372H54.19A2.638,2.638,0,0,1,56.8,39.971,3.218,3.218,0,0,1,55.977,41.833Z" transform="translate(-37.437 -23.739)" fill="#fff"/>
</svg>
