<svg id="boyna" xmlns="http://www.w3.org/2000/svg" width="137.229" height="67.732" viewBox="0 0 137.229 67.732">
  <path id="Path_349" data-name="Path 349" d="M52.235,69.542V67.156q2.711-.976,5.64-1.952V41.055c-.651.145-1.374.289-2.024.434-.723.217-1.518.434-2.386.723-.506-.434-1.085-1.012-1.808-1.591-1.663,1.3-3.9.94-5.495,2.314a3.149,3.149,0,0,0-.506,1.229c-.868.289-1.735.506-2.6.8v7.23c1.663.506,2.6-.506,3.832-1.229,1.735-1.012,3.4-2.314,5.64-1.012a3.812,3.812,0,0,0,2.386.072,4.39,4.39,0,0,0,1.591-.868v7.953c-1.012.868-2.82-.578-3.9,1.012-.362-.506-.723-.94-.868-1.157-2.458-1.085-4.338.723-6.507.434-.072.362-.145.651-.289,1.157-.506.072-1.157.217-2.1.362.289,2.964-.434,6,.578,9.255-.578.217-1.374.578-2.531,1.085V46.116c-2.892-1.88-5.567-1.012-8.242-.362-.723,1.808-2.675,1.591-4.049,2.458v6c1.808-.217,3.615-.434,5.35-.651,1.735-.651,3.326-2.458,5.35-.289v6.218c-1.085-.217-2.1-.434-3.181-.651-1.3-.289-2.458.434-3.687.651a22.67,22.67,0,0,1-3.9.072c0,2.386.072,4.772,0,7.158a4.04,4.04,0,0,1-1.157,2.386c-.145-.506-.217-.94-.362-1.446-.217.145-.362.289-.578.434V49.153c-1.663-1.157-3.109.8-4.338.217a8.775,8.775,0,0,0-4.049-.578c-.94.651-1.88,1.3-3.181,2.169C11.673,49.8,9,52.479,5.6,53.347V48.5c1.518-1.012,3.109-2.1,5.061-3.326a40.32,40.32,0,0,0,4.194,0,7.143,7.143,0,0,0,4.338-1.735,6.628,6.628,0,0,1,6.363-1.591c.217.072.289.362.506.506a29.349,29.349,0,0,0,4.483-2.386c.94-.8,2.024-.94,3.037-1.518a2.927,2.927,0,0,1,2.964-.145c1.446.94,2.6.217,3.9-.289,1.085-.434,2.169-.362,2.892-1.808.94-1.808,3.254-2.024,5.061-2.458,3.109-.651,6.073-1.735,9.11-2.6,1.229-.362,2.675-.8,3.326-.289,2.531,1.735,4.627-.217,6.941-.506a5.715,5.715,0,0,0,4.338-2.675,3.485,3.485,0,0,1,2.675-1.229c3.543-.145,6.8-1.952,10.267-2.241a10.82,10.82,0,0,0,2.386-.868c.506.506,1.012.94,1.808,1.663,5.495-.362,11.207-2.024,17.136-1.374.723-.8,1.374-1.663,2.1-2.531,5.133,1.374,10.267.868,15.039,2.747,2.1,3.254,2.1,3.254,6.8,3.326,1.3.723,2.458,1.374,3.615,2.1a3.379,3.379,0,0,1,1.012,1.012v9.472c-1.808-.868-3.543-1.374-4.121-3.181a3.185,3.185,0,0,0-2.892-2.024c-2.892-.289-5.567-1.3-8.387-1.735a60.57,60.57,0,0,0-8.026-.506c-2.82-.072-5.495-1.229-8.387-.723-1.229.217-2.458.362-3.543.578-.506.868-.94,1.518-1.3,2.1a2.194,2.194,0,0,1-.8.217c-1.735.072-3.4-.072-5.133.651-1.446.578-3.109,0-4.772.651-2.1.8-4.555.578-6.869.868a23.859,23.859,0,0,0-4.627.94,5.063,5.063,0,0,1-3.977,0,4.606,4.606,0,0,0-3.109-.145,31.6,31.6,0,0,1-7.447,1.446V49.37c1.3,1.157,2.458-1.085,3.9-.434.723-.868,1.446-1.735,2.386-2.892.506-.145,1.446-.506,2.458-.8a10.359,10.359,0,0,1,2.964-.651,21.763,21.763,0,0,1,2.964.651,10.376,10.376,0,0,0,3.326-.578c2.747-.578,5.567-.506,8.387-.868,1.735-.217,3.4-.506,5.061-.8.289-.578.651-1.157,1.085-1.952,2.675-.362,5.423-.723,8.1-1.012.578.868.94,1.591,1.374,2.314h6.869l1.3-1.3h6.073c.434.723.8,1.374,1.229,2.1,3.543-.217,6.869,1.229,10.7,1.952.145-.217.506-.868.8-1.374,2.675,1.374,2.82,1.518,3.76,3.037a8.75,8.75,0,0,0,1.374-.072.571.571,0,0,0,.362-.362l2.747,2.747v6c-1.3,1.518-2.531,1.085-4.049.362a20.967,20.967,0,0,0-4.338-.868c-.506-2.675-2.892-2.1-4.917-3.181-.362.651-.651,1.3-.94,1.952-2.314-.362-4.194-.723-6.579-1.157-.362-.434-1.012-1.3-1.518-1.952H98.653c-.578.94-1.229,1.88-1.88,2.747a3.731,3.731,0,0,1-.8.145C91.35,52.624,86.8,54,82.168,54a19.9,19.9,0,0,0-5.061.723,20.032,20.032,0,0,1-4.844.578,19.676,19.676,0,0,1-1.808.868c-.94-.506-1.88-.94-2.675-1.374-2.024.434-4.121.868-6.218,1.374v9.255c3.181,0,6.363.506,9.327-.145,4.844-1.012,9.761.072,14.533-.723,6.073-.94,12.074-.506,18.148-.578,6.146-.145,12.291,0,18.437,0a15.711,15.711,0,0,1,5.495.651c1.663.578,3.615-.217,5.495.723,1.229.651,2.892.506,4.338.723v7.447c-2.1-.506-4.194.723-6.146-.8-.145-.145-.506-.072-.723,0-4.266.506-8.459-.868-12.725-.723-1.952.072-3.9.578-5.856.651-2.458.145-4.772-1.012-7.3-.723a22.041,22.041,0,0,1-7.23-.072c-4.121-1.085-8.242-.289-12.364-.651-2.531-.217-5.133-.578-7.664-.723-2.675-.145-5.423.434-7.953-.145C63.442,69.109,57.947,70.121,52.235,69.542Z" transform="translate(-1.551 -5.787)" fill="#1f9e56"/>
  <path id="Path_350" data-name="Path 350" d="M106.74,7.425c-2.169,1.88-3.543,2.169-8.821,2.169-.217-.362-.578-1.012-.94-1.663-1.952.362-3.615.723-5.856,1.157-.362.362-1.085,1.229-1.446,1.663-1.518.362-2.6.651-3.9.94-.434-.434-1.085-.94-1.663-1.518-6.146,1.952-12.291,3.9-19.015,5.567-.145.362-.506,1.157-1.157,2.458-1.518.578-3.615,1.3-5.784,2.1-.578-.362-1.374-.8-2.241-1.3-2.747.94-5.64,1.952-8.459,2.892-1.591,3.615-5.784,2.314-8.17,4.338-3.47-1.518-5.278-.868-7.519,2.747-1.735,0-3.543,1.952-5.567.145-.651.217-1.229.506-1.88.723-.723.289-2.024.362-2.1.8-.8,2.82-3.4,2.241-5.278,2.964a27.9,27.9,0,0,1-4.194,1.229,8.42,8.42,0,0,1-2.675-.434L5.3,37.575V32.153c2.1-.8,4.555-1.591,6.869-2.531,3.254-1.229,6.435-2.531,9.616-3.832,6.29-2.458,12.725-4.7,19.015-7.3a156.659,156.659,0,0,1,14.822-5.206c2.386-.723,4.627-1.735,6.941-2.458,2.169-.651,4.7-.868,6.507-2.675,3.977-.868,7.664-2.531,11.5-3.615A105.1,105.1,0,0,1,93.075,1.5Q97.847.737,102.618.2a44.058,44.058,0,0,1,9.761,0c6.941.94,13.665,2.458,18.8,7.809a48.717,48.717,0,0,1,3.326,4.555v5.929c-.651-.506-1.085-.651-1.3-1.012-.8-1.229-1.591-2.531-2.458-3.9-.723.434-1.157.723-1.735,1.085-1.591-.723-3.254-1.3-3.977-3.326a3.629,3.629,0,0,0-2.458-1.663c-1.663-.434-3.4-.506-5.133-.8-1.229-.217-2.458-.578-3.687-.723a9.467,9.467,0,0,1-3.687-.651C109.2,7.064,107.9,7.425,106.74,7.425Z" transform="translate(-1.468 0.079)" fill="#1f9e56"/>
  <path id="Path_351" data-name="Path 351" d="M0,71.322c3.543-1.3,6.941-2.1,10.267-3.037,1.085-.289,2.6-.651,3.76.434a1.23,1.23,0,0,0,1.3.145c2.458-1.518,5.133-.145,7.736-.868v4.483H14.171l-1.229,1.229a29.677,29.677,0,0,1-5.278.868,25.106,25.106,0,0,1-4.844-.8c-.8.723-1.446,1.3-2.241,2.024C-.289,74.214.217,72.768,0,71.322Z" transform="translate(0 -18.774)" fill="#1f9e56"/>
  <path id="Path_352" data-name="Path 352" d="M20.123,82.112l.868.868v3.326H6.241c-1.808-1.085-3.832-.578-6-.8-.145-1.157-.506-2.241.8-3.4,1.446-.289,3.254-.651,5.061-.868,1.012-.072,2.169-.506,2.964.578.072.145.434.145.651.072,1.591-.362,3.037-1.157,4.989-.362C16.218,82.256,18.17,81.967,20.123,82.112Z" transform="translate(-0.023 -22.406)" fill="#1f9e56"/>
</svg>
