<svg id="corruption" xmlns="http://www.w3.org/2000/svg" width="99.398" height="99.398" viewBox="0 0 99.398 99.398">
  <path id="Path_649" data-name="Path 649" d="M99.4,46.519v6.212c-.052.259-.129.492-.155.751a47.365,47.365,0,0,1-6.885,21.562C84.463,87.857,73.1,95.752,58.267,98.548c-1.812.337-3.624.518-5.462.751H46.593c-1.217-.155-2.433-.285-3.624-.44A48.532,48.532,0,0,1,18.508,88.22,48.8,48.8,0,0,1,.777,58.271C.44,56.433.259,54.569,0,52.731V46.519c.155-1.217.285-2.433.44-3.65A49.011,49.011,0,0,1,12.4,16.829,48.921,48.921,0,0,1,41.131.677C42.943.366,44.755.159,46.593-.1h6.212c1.683.233,3.391.388,5.073.673a48.62,48.62,0,0,1,24.668,11.8,48.914,48.914,0,0,1,16.1,28.681C98.958,42.869,99.14,44.707,99.4,46.519ZM17.136,21.876a42.788,42.788,0,0,0,60.39,60.26c-4.582-4.556-9.163-9.086-13.616-13.512,2.071-.725,4.142-1.372,6.161-2.174.673-.259,1.035-.285,1.553.233,3.287,3.339,6.627,6.652,9.94,9.966.233.233.492.466.751.725,15.22-17.6,13.124-44.807-4.53-60.053-17.6-15.22-41.96-12.71-55.86-.181a10.74,10.74,0,0,1,.828.7c2.019,2.019,4.038,4.012,6.031,6.057a1.372,1.372,0,0,1,.44.88c0,1.579-.052,3.158-.078,4.737-.026,1.372,0,2.744,0,4.426-2.148-2.174-4.116-4.116-6.057-6.083C21.1,25.863,19.1,23.87,17.136,21.876Z" transform="translate(0 0.1)" fill="#ed1f22"/>
  <path id="Path_650" data-name="Path 650" d="M194.179,163.229a15.415,15.415,0,1,1,15.376-15.479A15.455,15.455,0,0,1,194.179,163.229Zm1.683-6.782c3.339-.414,5.332-2.666,5.125-5.617-.181-2.77-2.485-4.711-5.617-4.711-.958,0-1.941.026-2.9-.026a1.734,1.734,0,0,1-1.734-1.734,1.691,1.691,0,0,1,1.683-1.657c1.087-.052,2.2-.026,3.287-.026a1.728,1.728,0,0,1,1.786,1.217c.078.181.311.44.492.44.984.052,1.967.026,3.313.026a20.439,20.439,0,0,0-1.4-3.08,4.986,4.986,0,0,0-4.064-2.071v-3.339h-3.443v3.313c-.181.026-.259.078-.362.078a5.148,5.148,0,0,0,.621,10.276c1.035,0,2.071-.026,3.106,0a1.647,1.647,0,0,1,1.76,1.657,1.664,1.664,0,0,1-1.708,1.734c-.8.052-1.631-.026-2.433.026-1.346.078-2.485-.129-2.77-1.631h-3.262c-.078,2.692,1.734,4.556,5.073,5.151v3.313h3.391C195.862,158.647,195.862,157.56,195.862,156.447Z" transform="translate(-132.443 -98.102)" fill="#3a983d"/>
  <path id="Path_651" data-name="Path 651" d="M116.17,115.176c-.569.7-1.035,1.372-1.579,1.941a1.318,1.318,0,0,1-.906.388q-8.93.039-17.861,0a1.226,1.226,0,0,1-.8-.233c-2.045-1.967-4.219-3.909-5-6.782a23.92,23.92,0,0,1-.647-4.3c-.1-1.45-.052-2.9-.026-4.375a13.032,13.032,0,0,0-1.6-6.808c-.569-1.061-1.087-2.123-1.6-3.21-.492-1.035-.026-1.708,1.113-1.708A5.791,5.791,0,0,1,92.744,95.4a3.12,3.12,0,0,1,0,.492c-.233,2.226.1,3.986,2.2,5.514,2.2,1.579,2.925,4.271,2.951,6.989v2.2h3.339a16.021,16.021,0,0,0-.647-6.627,13.542,13.542,0,0,0-3.857-5.746,1.753,1.753,0,0,1-.544-1.113Q96.148,86,96.16,74.873c0-1.32.828-2.071,1.993-1.864.88.155,1.372.8,1.372,1.915.026,2.511,0,5.048,0,7.558V96.875h3.443V68.686a5.924,5.924,0,0,1,.026-.958,1.753,1.753,0,0,1,1.631-1.631,1.708,1.708,0,0,1,1.734,1.5,7.112,7.112,0,0,1,.052,1.061V98.169a18.648,18.648,0,0,0,9.215,16.67A1.618,1.618,0,0,1,116.17,115.176Z" transform="translate(-63.701 -48.962)" fill="#dba763"/>
  <path id="Path_652" data-name="Path 652" d="M142.91,278.4v17.162c-1.993-.181-3.96-.259-5.876-.544a39.532,39.532,0,0,1-10.38-3.054,1.2,1.2,0,0,1-.854-1.294c.052-3.779.026-7.558.026-11.338,0-.285.026-.569.026-.906C131.546,278.4,137.164,278.4,142.91,278.4Z" transform="translate(-93.237 -206.31)" fill="#dba763"/>
  <path id="Path_653" data-name="Path 653" d="M178.667,107.423c0-4.323-.026-8.542,0-12.735a1.671,1.671,0,0,1,1.76-1.89,1.7,1.7,0,0,1,1.683,1.941v8.542a1.322,1.322,0,0,1-.181.8C180.893,105.2,179.806,106.258,178.667,107.423Z" transform="translate(-132.411 -68.751)" fill="#dba763"/>
  <path id="Path_654" data-name="Path 654" d="M205.381,111.436c0-1.4-.026-2.64.026-3.883A1.63,1.63,0,0,1,207.064,106a1.728,1.728,0,0,1,1.683,1.553c.285,2.278.207,2.407-1.864,3.262C206.417,110.97,205.977,111.177,205.381,111.436Z" transform="translate(-152.214 -78.536)" fill="#dba763"/>
</svg>
