<svg id="efbet_liga" xmlns="http://www.w3.org/2000/svg" width="90.988" height="95.89" viewBox="0 0 90.988 95.89">
  <g id="Group_95" data-name="Group 95">
    <path id="Path_671" data-name="Path 671" d="M90.939,71.111c-.745,1.391-1.267,3.006-2.311,4.1A36.86,36.86,0,0,1,82.615,80.5c-6.51,4.448-13.765,7.454-21.144,10.162-4.994,1.839-10.063,3.4-15.132,5.069a2.387,2.387,0,0,1-1.441.075c-11.33-3.4-22.536-7.23-32.9-13.069a56.326,56.326,0,0,1-7.777-5.491,10.48,10.48,0,0,1-3.975-6.41c-.025-.1-.149-.149-.248-.224v-.5a7.253,7.253,0,0,0,.224-1.242V7.976c0-.323-.025-.646-.05-.994A7.446,7.446,0,0,1,6.684,0c.124,0,.248.025.373.025H77.82c2.162,0,4.3-.025,6.46-.025a7.2,7.2,0,0,1,6.187,5.069c.174.472.323.969.5,1.441v.248A5.817,5.817,0,0,0,90.74,7.9q-.037,31.046,0,62.117a2.87,2.87,0,0,0,.248.87A.334.334,0,0,0,90.939,71.111ZM7.951,1.367a5.753,5.753,0,0,0-5.789,3.6A15.772,15.772,0,0,0,1.59,7.951Q1.553,38.587,1.565,69.2a7.906,7.906,0,0,0,1.242,4.348c1.665,2.609,4.149,4.323,6.609,6.038,2.162,1.217,4.3,2.435,6.46,3.677,2.559,1.193,5.118,2.385,7.678,3.553a3.2,3.2,0,0,0,.4.224c6.932,2.46,13.864,4.944,20.821,7.355a2.938,2.938,0,0,0,1.665-.075c3.4-1.068,6.833-2.112,10.187-3.329,3.851-1.391,7.628-2.982,11.429-4.472a9.918,9.918,0,0,0,1.193-.472c2.435-1.242,4.845-2.485,7.255-3.727,2.211-1.292,4.423-2.609,6.634-3.9,1.342-1.217,2.758-2.36,3.975-3.7a21.861,21.861,0,0,0,2.013-3.28,10.386,10.386,0,0,0,.273-1.69c.025-20.722-.025-41.444.05-62.166a6.391,6.391,0,0,0-6.733-6.187H64.328c-6.883-.025-13.74-.05-20.623-.05-5.143,0-10.262.025-15.4.05H14.883C12.6,1.367,10.286,1.367,7.951,1.367Z" fill="#040303"/>
    <path id="Path_672" data-name="Path 672" d="M10.447,12.031C11.391,9.77,13.23,9.075,15.466,9H35.84q10.585.037,21.169.05c4.944,0,9.914-.025,14.858-.05H90.255c3.081.224,4.895,1.441,5.541,3.826a6.606,6.606,0,0,1,.2,1.714V76.235c0,.621-.124,1.242-.174,1.839-.894,2.435-2.808,4-4.646,5.64-.3.273-.621.522-.944.8-2.162,1.317-4.3,2.634-6.46,3.951-2.808,1.367-5.64,2.708-8.448,4.075-2.733,1.068-5.441,2.236-8.224,3.18-4.522,1.565-9.069,3.056-13.616,4.522a2.649,2.649,0,0,1-1.441-.124c-4.025-1.267-8.1-2.485-12.075-3.876-2.808-.969-5.541-2.187-8.3-3.28a2.171,2.171,0,0,0-.547-.124l-7.6-3.5c-1.665-.994-3.354-2.013-5.019-3.006-.4-.248-.8-.522-1.193-.77a62.26,62.26,0,0,1-4.87-3.926A7.816,7.816,0,0,1,10,75.763q.037-30.338.025-60.7A20.7,20.7,0,0,1,10.447,12.031Zm8.274,7.156v.6c-.348.348-.671.7-1.019,1.019-.472-.149-.919-.3-1.367-.447-.1-.422-.224-.82-.248-.969-.745.4-1.441.745-1.888.969.124.646.248,1.342.3,1.714.8.3,1.491.571,2.211.87,0,.7-.025,1.391-.025,2.087a7.04,7.04,0,0,0,4.746,6.833c1.068.2,2.137.373,3.205.571a32.594,32.594,0,0,0,4.149-.373c2.833-.646,3.081-1.093,2.808-4.1-2.211,1.019-4.448,1.789-6.932,1.242a4.228,4.228,0,0,1-2.634-2.062c-.025-.323-.075-.671-.1-.994H31.89c.373-2.808-.323-5.243-2.286-6.609a23.854,23.854,0,0,0-4.2-1.913h.025c-.248-.944-.646-1.913.721-2.534-1.267.224-1.814-.422-2.062-1.54-.248.6-.422,1.044-.571,1.441-.5.05-.919.075-1.739.149,1.565.547,1.367,1.466,1.143,2.41v.124c-.6.124-1.193.273-1.789.4l-.05-.025c-.87-.547-1.242-1.242-.77-2.013L18,15.808c.721.894-.149,1.367-1.093,2.013C18.075,17.845,18.845,18.019,18.721,19.187ZM16.684,61.451c-1.317.3-.646.919-.248,1.516.77,1.615,1.54,3.205,2.385,4.92.472-.447.745-.721,1.068-1.019-.745-1.516-1.466-2.957-2.211-4.423.82-.447,1.516-.8,2.187-1.193.646-.373,1.242-.82,1.839-1.242a9.113,9.113,0,0,0,1.242-.422c2.311-1.217,4.572-2.485,6.883-3.727.82,1.217,1.516,2.261,2.236,3.354.472-.224.845-.373,1.267-.6C32.312,57.053,31.318,55.538,30.3,54c-2.957,1.615-5.789,3.205-8.622,4.771Zm65.868-2.708,2.783-.3a.845.845,0,0,1,.025-.248c-.944-.224-1.863-.472-2.808-.7-1.988-.472-3.975-.944-5.963-1.441-1.168-.174-2.311-.373-3.479-.547-2.162-.248-4.3-.5-6.46-.721-3.7,0-7.429-.2-11.106.025A53.536,53.536,0,0,0,40.81,57.774c-1.242.447-2.51.919-3.752,1.367-.994.447-1.963.87-2.957,1.317-1.242.671-2.485,1.317-3.727,1.988C29.057,63.29,27.74,64.159,26.4,65c-1.168.919-2.311,1.814-3.479,2.733l-4.472,4.4c-1.491,1.913-3.031,3.8-4.448,5.764a1.4,1.4,0,0,0,.149,1.242c1.317,1.242,2.733,2.385,4.1,3.553,1.565.944,3.131,1.913,4.671,2.857l3.727,1.938c1.317.6,2.659,1.193,3.975,1.814.2.025.522.124.6.05,1.168-1.317,2.286-2.683,3.4-4.025l2.733-2.882c1.416-1.317,2.857-2.609,4.274-3.975a1.162,1.162,0,0,0,.273-.919,13.7,13.7,0,0,1-.248-7.355c1.516-4.646,4.771-7.7,9.094-9.74A21.838,21.838,0,0,1,66.4,59.439a17.537,17.537,0,0,1,3.031,1.342,3.309,3.309,0,0,0,3.677.124c1.242-.323,2.485-.671,3.727-.994C78.751,59.538,80.639,59.14,82.552,58.743ZM75.843,80.086l-4.249,4.323c-2.137.944-4.3,1.863-6.435,2.808a27.989,27.989,0,0,1-9.963.4,17.849,17.849,0,0,1-10.634-5.441C43.593,83.267,42.7,84.285,41.8,85.3c-1.789,2.087-3.6,4.2-5.566,6.51,2.112.745,3.975,1.391,5.814,2.062,3.5,1.193,7.032,2.385,10.56,3.553a1.529,1.529,0,0,0,.944-.025c3.876-1.292,7.752-2.609,11.628-3.9,2.236-.87,4.472-1.764,6.733-2.634,1.491-.621,3.006-1.267,4.5-1.888.745-.348,1.466-.7,2.211-1.044l2.013-.969c.721-.373,1.466-.77,2.187-1.143,1.565-.944,3.106-1.888,4.671-2.833,1.019-.8,2.013-1.565,3.031-2.36a6.306,6.306,0,0,0,2.783-5.566c-.174-3.7-.05-7.429-.05-11.156,0-2.982,0-2.982-2.982-3.851-1.019-.522-2.037-1.019-3.23-.472-1.416.3-2.833.571-4.249.87-.944.248-1.913.522-2.857.77-2.187.671-4.4,1.342-6.684,2.037.77.919,1.466,1.615,2.037,2.41a12.973,12.973,0,0,1,2.36,9.79C77.036,76.955,76.44,78.521,75.843,80.086ZM74.626,47.463c-1.317-2.932-2.634-5.839-4-8.746a1.083,1.083,0,0,0-.82-.5c-.273.025-.6.373-.745.646-.919,1.888-1.789,3.8-2.659,5.715-.522,1.118-1.019,2.236-1.54,3.379,1.963.2,1.963.2,3.056-.919a.956.956,0,0,1,.646-.2,17.612,17.612,0,0,0,1.988-.025,1.514,1.514,0,0,1,1.814,1.019c.075.075.174.124.248.2H74.6C74.6,47.81,74.626,47.636,74.626,47.463Zm-5.74,32.127a9.945,9.945,0,0,0,3.578-13.02c-1.267-2.385-1.516-2.485-3.9-1.292a.391.391,0,0,0-.174.174c-1.764.894-3.528,1.789-5.292,2.708-3.7,2.46-7.454,4.87-11.106,7.4-1.441.994-2.708,2.261-4.149,3.479,4.895,3.9,10.212,4.373,15.852,2.982C65.408,81.2,67.147,80.384,68.886,79.589ZM36.337,32.107h3.3V23.66h2.137V20.7a3.847,3.847,0,0,1-.944-.025c-.422-.124-1.193-.323-1.193-.472a2.843,2.843,0,0,1,.522-1.615,2.307,2.307,0,0,1,1.416-.671,26.243,26.243,0,0,1,2.783-.224c.248-3.8.447-3.106-2.708-3.255a6.641,6.641,0,0,0-.994.025c-1.888.248-3.652.745-4.771,2.485-.447,1.118-.919,2.236-1.441,3.528-.348.025-.919.075-1.54.149v3.031c.646.025,1.242.05,1.938.1v8.324C35.443,32.107,35.89,32.107,36.337,32.107ZM88.515,18.591h-4.5V14.317a5.632,5.632,0,0,0-1.143.646c-1.69,1.64-3.4,3.28-5.019,4.969a6.289,6.289,0,0,0-.77,1.814H79.2c.1.124.149.174.149.2.025,1.988.025,3.975.05,5.938.025,2.162,1.019,3.727,3.131,4.2a22.72,22.72,0,0,0,4.522.224c2.559-.5,2.783-.87,2.137-3.926-.721.2-1.416.373-2.137.571-2.087-.05-2.783-.348-2.882-1.69-.149-1.814-.05-3.677-.05-5.615H88.54c.571.149.969.05.919-.671q-.037-.857,0-1.714C89.459,18.541,89.087,18.417,88.515,18.591Zm-16.15-.4a20.584,20.584,0,0,0-3.851-.447,7.124,7.124,0,0,0-6.659,6.087,7.185,7.185,0,0,0,4.224,7.876,10.834,10.834,0,0,0,7.032.447c3.255-.323,4.1-1.292,3.553-4.1L73.086,29.25A19.6,19.6,0,0,1,71,29.374a4.108,4.108,0,0,1-4.075-3.23H76.986C77.384,22.069,75.67,19.187,72.365,18.193ZM65.656,61a15.919,15.919,0,0,0-9.119-.994c-4.4.77-8.15,2.708-10.61,6.584a9.232,9.232,0,0,0-.646,8.845,86.373,86.373,0,0,1,20.1-11.8c1.019-.373,2.013-.77,3.379-1.267C67.5,61.8,66.576,61.4,65.656,61ZM45.58,14.516V32.107h4.6c.05-.4.1-.721.149-1.093,3.652,1.739,6.46,1.416,8.6-.919a7.782,7.782,0,0,0,.745-9.019,8.023,8.023,0,0,0-2.932-2.534,6.836,6.836,0,0,0-6.535.422V14.491C48.612,14.516,47.121,14.516,45.58,14.516Zm5.814,23.555c-2.485,1.019-3.652,3.379-5.789,4.82v-4.5H43.1v9.814c2.534-.845,3.454-3.528,5.74-4.646v4.423h2.559ZM39.17,47.959c-1.491-3.18-2.882-6.261-4.323-9.293-.1-.224-.547-.522-.721-.447a1.463,1.463,0,0,0-.845.7c-1.317,2.758-2.584,5.516-3.851,8.3a5.781,5.781,0,0,0-.2.77c2.36.174,2.385.174,3.23-1.839.422-.969.77-1.988,1.168-2.957a3.487,3.487,0,0,1,.522-.646c.571,1.292,1.068,2.41,1.565,3.553C36.66,48.183,36.66,48.183,39.17,47.959Zm17.567.025h2.51V40.555h3.429V38.418H56.736C56.736,41.648,56.736,44.779,56.736,47.984Z" transform="translate(-7.515 -6.764)" fill="#040303"/>
    <path id="Path_673" data-name="Path 673" d="M61.9,41.44a1.533,1.533,0,0,1,2.51.075h-.025c-.248.05-.5.075-.745.124L61.9,41.564C61.925,41.539,61.9,41.489,61.9,41.44Z" transform="translate(-46.52 -30.681)" fill="#040303"/>
    <path id="Path_674" data-name="Path 674" d="M46.99,46.517c-.075-1.491,1.093-1.093,1.913-1.217l.05.025c-.025.075-.025.174-.05.248C48.232,45.9,47.611,46.219,46.99,46.517Z" transform="translate(-35.312 -34.044)" fill="#040303"/>
    <path id="Path_675" data-name="Path 675" d="M45.1,50c.174.025.323.025.5.05-.174.2-.323.373-.5.571Z" transform="translate(-33.894 -37.577)" fill="#040303"/>
    <path id="Path_676" data-name="Path 676" d="M171.9,60.788a6.873,6.873,0,0,1,.025-1.242c.124-.745-.472-1.665.571-2.211a3.517,3.517,0,0,1,3.652-.124,3.624,3.624,0,0,1,1.416,1.64,5.647,5.647,0,0,1-.124,4.448,3.236,3.236,0,0,1-5.193.944,1.32,1.32,0,0,1-.3-.87C171.872,62.5,171.9,61.632,171.9,60.788Z" transform="translate(-129.16 -42.649)" fill="#040303"/>
    <path id="Path_677" data-name="Path 677" d="M244.343,56.271a6,6,0,0,1,.721,1.367c.05.224-.273.547-.447.82H239.2C239.448,55.675,241.859,54.731,244.343,56.271Z" transform="translate(-179.767 -41.736)" fill="#040303"/>
    <path id="Path_678" data-name="Path 678" d="M60.305,58.056c-1.068-.025-2.137-.075-3.205-.1.05-.3.124-.621.174-.919A3.342,3.342,0,0,1,60.032,55a3.2,3.2,0,0,1,3.18,3.056Z" transform="translate(-42.913 -41.334)" fill="#040303"/>
    <path id="Path_679" data-name="Path 679" d="M36.467,58.887c-.4-1.044-.149-1.789,1.019-2.087C37.138,57.5,36.79,58.191,36.467,58.887Z" transform="translate(-27.274 -42.687)" fill="#040303"/>
    <path id="Path_680" data-name="Path 680" d="M248.987,145.16H246.9c.323-.745.621-1.466,1.019-2.36C248.316,143.694,248.614,144.365,248.987,145.16Z" transform="translate(-185.554 -107.319)" fill="#040303"/>
  </g>
  <g id="Group_96" data-name="Group 96" transform="translate(6.354 6.758)">
    <path id="Path_681" data-name="Path 681" d="M161.281,314.705q-5.814,1.975-11.628,3.9a1.538,1.538,0,0,1-.944.025c-3.528-1.168-7.032-2.36-10.56-3.553-.075-2.857-.174-5.715-.248-8.547.894-1.019,1.789-2.037,2.758-3.131a17.717,17.717,0,0,0,10.634,5.441,28.575,28.575,0,0,0,9.963-.4C161.256,310.531,161.281,312.618,161.281,314.705Z" transform="translate(-109.991 -234.774)" fill="#fedc00"/>
    <path id="Path_682" data-name="Path 682" d="M153.125,31.2h4.6v4.472a6.981,6.981,0,0,1,6.535-.422,7.8,7.8,0,0,1,2.932,2.534,7.745,7.745,0,0,1-.745,9.019c-2.137,2.336-4.944,2.659-8.6.919-.05.348-.1.7-.149,1.093h-4.6C153.125,42.952,153.125,37.138,153.125,31.2ZM157.8,41.586c0,.87-.025,1.739.025,2.609a1.467,1.467,0,0,0,.3.87,3.236,3.236,0,0,0,5.193-.944,5.65,5.65,0,0,0,.124-4.448,3.624,3.624,0,0,0-1.416-1.64,3.573,3.573,0,0,0-3.652.124c-1.044.547-.422,1.466-.571,2.211A9.942,9.942,0,0,0,157.8,41.586Z" transform="translate(-121.414 -30.206)" fill="#fedc00"/>
    <path id="Path_683" data-name="Path 683" d="M169.68,217.15a85.364,85.364,0,0,0-20.1,11.8,9.161,9.161,0,0,1,.646-8.845c2.46-3.876,6.212-5.814,10.609-6.584a16.178,16.178,0,0,1,9.119.994C169.854,215.386,169.755,216.281,169.68,217.15Z" transform="translate(-118.142 -167.035)" fill="#fedc00"/>
    <path id="Path_684" data-name="Path 684" d="M133.983,196.035a52.462,52.462,0,0,1,14.734-2.957c3.7-.224,7.4-.025,11.106-.025-.075,1.565-.174,3.106-.248,4.671a21.837,21.837,0,0,0-15.653,1.019c-4.3,2.037-7.553,5.094-9.094,9.74-.845.05-.87-.522-.845-1.143Z" transform="translate(-107.043 -151.784)" fill="#fedc00"/>
    <path id="Path_685" data-name="Path 685" d="M178.052,260.964c-5.665,1.367-10.957.919-15.852-2.982,1.466-1.242,2.708-2.485,4.149-3.479,3.652-2.534,7.4-4.944,11.106-7.4a4.607,4.607,0,0,1,.571,1.491C178.077,252.69,178.052,256.84,178.052,260.964Z" transform="translate(-128.253 -192.462)" fill="#fedc00"/>
    <path id="Path_686" data-name="Path 686" d="M229.622,58.582a10.844,10.844,0,0,1-7.032-.447,7.312,7.312,0,0,1,2.435-13.964,22.892,22.892,0,0,1,3.851.447c-.1,1.044-.2,2.062-.3,3.106-2.485-1.54-4.895-.6-5.143,2.162h5.417v2.659h-5.417a4.068,4.068,0,0,0,4.075,3.23,14.707,14.707,0,0,0,2.087-.124C229.6,56.644,229.622,57.613,229.622,58.582Z" transform="translate(-170.382 -39.947)" fill="#fedc00"/>
    <path id="Path_687" data-name="Path 687" d="M302.9,213.07c1.416-.3,2.833-.571,4.249-.87q0,10.995.025,21.989a5.544,5.544,0,0,0,.422,1.441c-1.565.944-3.106,1.888-4.671,2.833C302.925,230.015,302.9,221.542,302.9,213.07Z" transform="translate(-233.994 -166.234)" fill="#fedc00"/>
    <path id="Path_688" data-name="Path 688" d="M289.863,48.489a24.748,24.748,0,0,1-4.522-.224,3.927,3.927,0,0,1-3.131-4.2c-.025-1.988-.025-3.975-.05-5.938,0-.025-.05-.075-.149-.2H279.9a6.288,6.288,0,0,1,.77-1.814c1.615-1.714,3.329-3.329,5.019-4.969a5.632,5.632,0,0,1,1.143-.646v4.274h4.5V37.83h-4.423c0,1.963-.124,3.8.05,5.615.124,1.342.8,1.64,2.882,1.69C289.863,46.253,289.863,47.371,289.863,48.489Z" transform="translate(-216.709 -29.68)" fill="#fedc00"/>
    <path id="Path_689" data-name="Path 689" d="M76,226.659c1.317-.845,2.634-1.714,3.975-2.559a15.14,15.14,0,0,1,.248,1.814c.025,8.348,0,16.7,0,25.045-1.317-.6-2.659-1.193-3.975-1.814,0-6.883,0-13.79-.025-20.672A11.661,11.661,0,0,0,76,226.659Z" transform="translate(-63.471 -175.177)" fill="#fedc00"/>
    <path id="Path_690" data-name="Path 690" d="M122.577,205.3v11.28c0,.621,0,1.193.845,1.143a13.7,13.7,0,0,0,.248,7.355,1.078,1.078,0,0,1-.273.919c-1.391,1.342-2.833,2.659-4.274,3.975a11.431,11.431,0,0,1-.273-1.814c-.025-7.156-.025-14.312-.05-21.492C120.067,206.219,121.334,205.772,122.577,205.3Z" transform="translate(-95.637 -161.048)" fill="#fedc00"/>
    <path id="Path_691" data-name="Path 691" d="M92.248,244.947V219.9A11.364,11.364,0,0,0,92,218.088c1.242-.671,2.485-1.317,3.727-1.988a9.638,9.638,0,0,0-.224,1.441c-.025,7.454-.025,14.933.025,22.387,0,.348.5.7.745,1.019-1.143,1.342-2.261,2.683-3.4,4.025C92.77,245.1,92.447,244.972,92.248,244.947Z" transform="translate(-75.495 -169.165)" fill="#fedc00"/>
    <path id="Path_692" data-name="Path 692" d="M106.851,237.063c-.273-.348-.745-.7-.745-1.019-.05-7.454-.025-14.933-.025-22.387a9.638,9.638,0,0,1,.224-1.441c.994-.447,1.963-.87,2.957-1.317,0,7.156,0,14.312.05,21.492a11.43,11.43,0,0,0,.273,1.814C108.665,235.15,107.746,236.119,106.851,237.063Z" transform="translate(-86.073 -165.257)" fill="#fedc00"/>
    <path id="Path_693" data-name="Path 693" d="M114.2,33.56c1.118-1.714,2.882-2.211,4.771-2.485a4.435,4.435,0,0,1,.994-.025c3.131.124,2.957-.547,2.708,3.255-.919.075-1.863.075-2.783.224a2.444,2.444,0,0,0-1.416.671,2.784,2.784,0,0,0-.522,1.615c0,.149.77.348,1.193.472a3.847,3.847,0,0,0,.944.025v2.957h-2.137v8.448h-3.3c0-4.621,0-9.243-.025-13.864A3.766,3.766,0,0,0,114.2,33.56Z" transform="translate(-92.18 -30.082)" fill="#fedc00"/>
    <path id="Path_694" data-name="Path 694" d="M224.2,252.7c0-4.125.025-8.274-.025-12.4a4.608,4.608,0,0,0-.571-1.491c1.764-.894,3.528-1.789,5.292-2.708a5.452,5.452,0,0,1,.5,1.565c.05,4.2.025,8.373.025,12.572Z" transform="translate(-174.397 -184.195)" fill="#fedc00"/>
    <path id="Path_695" data-name="Path 695" d="M65.479,234.4a15.062,15.062,0,0,1,.224,1.814c.025,6.883,0,13.79.025,20.672L62,254.948V237.133C63.168,236.239,64.311,235.319,65.479,234.4Z" transform="translate(-52.949 -182.918)" fill="#fedc00"/>
    <path id="Path_696" data-name="Path 696" d="M271.7,244.641l-2.013.969c0-2.112.025-4.224-.025-6.311-.05-1.814-.124-3.6-.273-5.417-.025-.273-.447-.5-.7-.745a12.973,12.973,0,0,0-2.36-9.79c-.571-.8-1.267-1.516-2.037-2.41,2.311-.7,4.5-1.367,6.684-2.037a6.355,6.355,0,0,1,.373,1.466c.025,7.529,0,15.082.025,22.61C271.456,243.523,271.63,244.094,271.7,244.641Z" transform="translate(-204.985 -171.269)" fill="#fedc00"/>
    <path id="Path_697" data-name="Path 697" d="M320.447,235.011a5.038,5.038,0,0,1-.422-1.441q-.037-10.995-.025-21.989c1.193-.547,2.211-.05,3.23.472v18.635a18.273,18.273,0,0,0,.224,1.963C322.46,233.421,321.441,234.216,320.447,235.011Z" transform="translate(-246.845 -165.589)" fill="#fedc00"/>
    <path id="Path_698" data-name="Path 698" d="M292.071,242.236a9.969,9.969,0,0,1-.273-1.69c-.025-7.529,0-15.082-.025-22.61a6.355,6.355,0,0,0-.373-1.466c.944-.248,1.913-.522,2.857-.77,0,8.473.025,16.921.025,25.393C293.537,241.491,292.816,241.863,292.071,242.236Z" transform="translate(-225.351 -168.864)" fill="#fedc00"/>
    <path id="Path_699" data-name="Path 699" d="M47.871,245.4v17.815c-1.565-.944-3.131-1.913-4.671-2.857a4.511,4.511,0,0,0,.447-1.168c.05-1.317.05-2.634.025-3.975-.05-1.814-.174-3.6-.248-5.417C44.89,248.332,46.38,246.866,47.871,245.4Z" transform="translate(-38.821 -191.185)" fill="#fedc00"/>
    <path id="Path_700" data-name="Path 700" d="M333.29,234.8a16.94,16.94,0,0,1-.224-1.963c-.025-6.212,0-12.423,0-18.635,2.982.87,2.982.87,2.982,3.851,0,3.727-.124,7.454.05,11.156A6.455,6.455,0,0,1,333.29,234.8Z" transform="translate(-256.657 -167.737)" fill="#fedc00"/>
    <path id="Path_701" data-name="Path 701" d="M245.422,247.529c0-4.2.025-8.373-.025-12.572a5.452,5.452,0,0,0-.5-1.565,1.147,1.147,0,0,1,.174-.174c2.385-1.193,2.634-1.118,3.9,1.292A9.961,9.961,0,0,1,245.422,247.529Z" transform="translate(-190.405 -181.462)" fill="#fedc00"/>
    <path id="Path_702" data-name="Path 702" d="M37.918,49.01c.348-.348.671-.7,1.019-1.019.174-.2.323-.373.5-.571l-.025.025c.621-.323,1.267-.621,1.888-.944.025,1.019,0,2.062.124,3.056.05.373.447.721.671,1.093-.05.3-.124.621-.174.919l.224,2.758c.025.323.075.671.1.994-.2.348-.547.671-.571,1.019-.075,1.242-.025,2.46-.025,3.7A7.031,7.031,0,0,1,36.9,53.209c0-.7.025-1.391.025-2.087v.025c.348-.7.671-1.391,1.019-2.087Z" transform="translate(-34.085 -41.705)" fill="#fedc00"/>
    <path id="Path_703" data-name="Path 703" d="M69.745,43.7a23.854,23.854,0,0,1,4.2,1.913c1.963,1.367,2.659,3.8,2.286,6.609H69.248V49.564H72.18A3.2,3.2,0,0,0,69,46.508V43.8C69.248,43.775,69.5,43.725,69.745,43.7Z" transform="translate(-58.21 -39.6)" fill="#fedc00"/>
    <path id="Path_704" data-name="Path 704" d="M231.925,321.469c0-2.087-.025-4.174-.025-6.261,2.137-.944,4.3-1.863,6.435-2.808l.3,6.41C236.4,319.7,234.161,320.6,231.925,321.469Z" transform="translate(-180.635 -241.537)" fill="#fedc00"/>
    <path id="Path_705" data-name="Path 705" d="M237,197.971c.075-1.565.174-3.106.248-4.671,2.162.248,4.3.5,6.46.721v5.417a3.309,3.309,0,0,1-3.677-.124A15.828,15.828,0,0,0,237,197.971Z" transform="translate(-184.468 -152.03)" fill="#fedc00"/>
    <path id="Path_706" data-name="Path 706" d="M258.1,305.834l-.3-6.41,4.249-4.323a6.315,6.315,0,0,1,.472,1.714c.075,2.385.05,4.746.075,7.131C261.1,304.567,259.614,305.213,258.1,305.834Z" transform="translate(-200.1 -228.536)" fill="#fedc00"/>
    <path id="Path_707" data-name="Path 707" d="M30.153,263.1c.075,1.814.2,3.6.248,5.417.05,1.317.05,2.659-.025,3.975a3.546,3.546,0,0,1-.447,1.168c-1.367-1.168-2.783-2.311-4.1-3.553a1.251,1.251,0,0,1-.149-1.242C27.121,266.9,28.637,265.013,30.153,263.1Z" transform="translate(-25.574 -204.487)" fill="#fedc00"/>
    <path id="Path_708" data-name="Path 708" d="M260.173,53.851V51.192c.149-.273.5-.6.447-.82a6.569,6.569,0,0,0-.721-1.367c.1-1.044.2-2.062.3-3.106,3.3.994,4.994,3.876,4.621,7.926C263.279,53.851,261.714,53.851,260.173,53.851Z" transform="translate(-201.678 -41.254)" fill="#fedc00"/>
    <path id="Path_709" data-name="Path 709" d="M105.257,41.2a4.229,4.229,0,0,1,.422,1.267c.025,4.6.025,9.218.025,13.84h-1.466V47.983c-.7-.025-1.292-.05-1.938-.1V44.852c.6-.05,1.193-.1,1.54-.149C104.362,43.411,104.81,42.318,105.257,41.2Z" transform="translate(-83.236 -37.721)" fill="#fedc00"/>
    <path id="Path_710" data-name="Path 710" d="M275.547,289.741c-.025-2.385,0-4.746-.075-7.131A8.82,8.82,0,0,0,275,280.9l1.789-4.7c.248.248.671.472.7.745.149,1.814.224,3.6.273,5.417.05,2.112.025,4.224.025,6.311C277.013,289.021,276.267,289.394,275.547,289.741Z" transform="translate(-213.026 -214.332)" fill="#fedc00"/>
    <path id="Path_711" data-name="Path 711" d="M121.066,316c.075,2.857.174,5.715.248,8.547-1.863-.646-3.7-1.317-5.814-2.062C117.488,320.2,119.277,318.087,121.066,316Z" transform="translate(-93.157 -244.243)" fill="#fedc00"/>
    <path id="Path_712" data-name="Path 712" d="M69,86.542c2.46.547,4.721-.224,6.932-1.242.273,3.006.025,3.454-2.783,4.075A28.619,28.619,0,0,1,69,89.748Z" transform="translate(-58.21 -70.864)" fill="#fedc00"/>
    <path id="Path_713" data-name="Path 713" d="M264,201.617V196.2c1.168.174,2.311.373,3.479.547.075,1.292.174,2.584.248,3.876C266.485,200.946,265.242,201.294,264,201.617Z" transform="translate(-204.759 -154.209)" fill="#fedc00"/>
    <path id="Path_714" data-name="Path 714" d="M278.248,202.276c-.075-1.292-.174-2.584-.248-3.876,1.988.472,3.975.944,5.963,1.441v1.242C282.05,201.481,280.162,201.879,278.248,202.276Z" transform="translate(-215.281 -155.863)" fill="#fedc00"/>
    <path id="Path_715" data-name="Path 715" d="M59.256,84.062v3.23c-1.068-.2-2.137-.373-3.205-.571,0-1.242-.05-2.485.025-3.7.025-.348.373-.671.571-1.019A3.967,3.967,0,0,0,59.256,84.062Z" transform="translate(-48.466 -68.384)" fill="#fedc00"/>
    <path id="Path_716" data-name="Path 716" d="M58.253,43.95v2.708A3.265,3.265,0,0,0,55.5,48.7c-.248-.348-.646-.7-.671-1.093-.124-1.019-.1-2.037-.124-3.056.025-.075.025-.174.05-.248.6-.124,1.193-.273,1.789-.4C57.085,43.9,57.682,43.925,58.253,43.95Z" transform="translate(-47.463 -39.751)" fill="#fedc00"/>
    <path id="Path_717" data-name="Path 717" d="M263.925,89.8c0-.969-.025-1.938-.025-2.907l3.578-1.193C268.025,88.508,267.18,89.477,263.925,89.8Z" transform="translate(-204.684 -71.165)" fill="#fedc00"/>
    <path id="Path_718" data-name="Path 718" d="M60.305,67v2.659H57.324L57.1,66.9C58.168,66.925,59.237,66.95,60.305,67Z" transform="translate(-49.267 -57.036)" fill="#fedc00"/>
    <path id="Path_719" data-name="Path 719" d="M320,91.026V87.671c.721-.2,1.416-.373,2.137-.571C322.783,90.156,322.559,90.5,320,91.026Z" transform="translate(-246.845 -72.217)" fill="#fedc00"/>
    <path id="Path_720" data-name="Path 720" d="M30.4,52.241v.075c-1.143.273-1.391,1.019-.994,2.062v-.025c-.721-.273-1.416-.547-2.211-.87-.075-.373-.2-1.068-.3-1.714.447-.224,1.143-.6,1.888-.969.05.149.149.547.248.969C29.484,51.943,29.956,52.092,30.4,52.241Z" transform="translate(-26.571 -44.936)" fill="#fedc00"/>
    <path id="Path_721" data-name="Path 721" d="M58.443,31.2c.224-.919.422-1.839-1.143-2.41.82-.075,1.242-.1,1.739-.149.174-.4.348-.845.571-1.441.248,1.143.8,1.764,2.062,1.54-1.367.621-.944,1.615-.721,2.534A1.533,1.533,0,0,0,58.443,31.2Z" transform="translate(-49.417 -27.2)" fill="#fedc00"/>
    <path id="Path_722" data-name="Path 722" d="M39.614,39.779c.149-1.168-.646-1.342-1.814-1.367.944-.646,1.814-1.118,1.093-2.013l2.311.224c-.472.77-.1,1.466.77,2.013-.82.124-1.963-.273-1.913,1.217l.025-.025A3.044,3.044,0,0,0,39.614,39.779Z" transform="translate(-34.762 -34.114)" fill="#fedc00"/>
    <path id="Path_723" data-name="Path 723" d="M233,220.934c.075-.87.174-1.764.248-2.634.919.4,1.839.82,3.131,1.367C235.013,220.163,234.019,220.561,233,220.934Z" transform="translate(-181.462 -170.818)" fill="#fedc00"/>
    <path id="Path_724" data-name="Path 724" d="M326,50.476V47.42c.6-.149.969-.05.919.671q-.037.857,0,1.714C326.969,50.526,326.571,50.626,326,50.476Z" transform="translate(-251.354 -42.352)" fill="#fedc00"/>
    <path id="Path_725" data-name="Path 725" d="M302,205.442V204.2c.944.224,1.863.472,2.808.7a.845.845,0,0,1-.025.248Z" transform="translate(-233.318 -160.222)" fill="#fedc00"/>
  </g>
</svg>
