<svg id="haidedaritame" xmlns="http://www.w3.org/2000/svg" width="114.723" height="105.312" viewBox="0 0 114.723 105.312">
  <path id="Path_641" data-name="Path 641" d="M106.067,82.9h0c-.034.034-.067.034-.1.067-.47.3-.94.571-1.444.84-.537.3-1.108.571-1.679.873C92.1,89.713,42.767,104.623,21.007,105.328,9.153,105.731-.216,96.866.086,85.18.355,73.527,12.511,22.35,17.514,11.907c.269-.571,1.142-2.082,1.31-2.317A20.705,20.705,0,0,1,40.987.557a23.259,23.259,0,0,1,5.574,2.015c11.417,5.877,58.968,48.289,65.986,59.74C117.249,69.934,114.361,77.725,106.067,82.9Z" transform="translate(-0.079 -0.029)" fill="#fff"/>
  <path id="Path_642" data-name="Path 642" d="M112.435,91.1h0c-.034,0-.067.034-.1.034-.437.269-.873.537-1.343.772-.5.269-1.007.537-1.545.772-9.806,4.6-54.871,18.2-74.751,18.872-10.813.369-19.376-7.757-19.107-18.4S26.972,35.76,31.505,26.224c.235-.5,1.041-1.914,1.175-2.116A18.915,18.915,0,0,1,52.93,15.847,20.108,20.108,0,0,1,58,17.694c10.477,5.373,53.9,44.091,60.311,54.569C122.643,79.281,120.024,86.367,112.435,91.1Z" transform="translate(-10.376 -10.215)" fill="#53aecb"/>
  <path id="Path_643" data-name="Path 643" d="M65.1,129.074v27.906c0,6.649,3.425,10.511,8.4,10.511,14.91-14.07-.134-43.554-4.265-43.89h-.336C65.1,123.6,65.1,129.074,65.1,129.074Z" transform="translate(-43.265 -82.104)" fill="#fff"/>
  <path id="Path_644" data-name="Path 644" d="M68.7,62.4c18.033,20.854,9.806,52.218,7.421,56.483a5.341,5.341,0,0,1-5.977,2.586,7.788,7.788,0,0,0,6.28,2.384s.873-.067.94-.067h0c4.03-.705,13.466-11.384,14.44-28.947a68,68,0,0,0-5.138-29.887l-4-5.037A13.985,13.985,0,0,0,75.886,57.9,7.594,7.594,0,0,0,68.7,62.4Z" transform="translate(-45.657 -38.466)" fill="#fff"/>
  <path id="Path_645" data-name="Path 645" d="M68.7,62.333c.235-.47.873-.437,1.511-.067A27.509,27.509,0,0,1,76.021,66.8c5.1,4.97,10.813,13.365,14.91,22.9a44.061,44.061,0,0,1,3.358,19.88,3.249,3.249,0,0,0,2.116,3.291l10.612-9.369a40.885,40.885,0,0,0-6.246-27.6C93.751,65.121,83.039,58.539,77.062,57.867c-.369-.034-.772-.067-1.108-.067A7.7,7.7,0,0,0,68.7,62.333Z" transform="translate(-45.657 -38.4)" fill="#fff"/>
  <path id="Path_646" data-name="Path 646" d="M156.49,108.682a46.158,46.158,0,0,1-.94,15.481c-2.888,13.735-8.294,18.167-8.294,18.167s-2.552,2.149-2.821-.336c0,0-1.511,6.481,3.123,3.862l24.917-14.07c8.362-4.735,8.362-12.458,0-17.193l-13.029-7.354a4.494,4.494,0,0,0-1.881-.638C156.859,106.634,156.255,107.07,156.49,108.682Z" transform="translate(-95.802 -70.813)" fill="#fff"/>
  <g id="Group_82" data-name="Group 82" transform="translate(21.935 13.725)">
    <path id="Path_647" data-name="Path 647" d="M125.711,100.774c-.6,0-1.142.84-4,.84a3.784,3.784,0,0,1-1.075-.168,7.036,7.036,0,0,1-.772-.269A7.509,7.509,0,0,1,117.92,99.9a14.358,14.358,0,0,1-1.914-1.981c-.034-.2-.067-.369-.1-.537a1.756,1.756,0,0,0-.336-.772c-.705-.974-1.31-2.015-1.948-3.022a1.577,1.577,0,0,0-.672-.571l-.369-.134a17.482,17.482,0,0,1-1.276-2.922,7.871,7.871,0,0,0-.907-2.485,3.278,3.278,0,0,0-.6-.571c-.2-.168-.4-.336-.571-.5-.1-.1-.235-.2-.336-.3-.705-.672-1.31-1.41-1.981-2.116-.6-.6-1.276-1.276-2.015-1.981-.84-.772-1.713-1.545-2.586-2.283-1.679-1.41-3.224-2.485-3.862-3.459a19.787,19.787,0,0,0,.067-2.821v-.034c-.168-2.015-.672-3.862-.94-6.951.168.1.369.2.537.3,1.31.672,2.619,1.209,3.358,1.511a1.091,1.091,0,0,1,.437.336,2.422,2.422,0,0,0,.84.705,3.722,3.722,0,0,0,.84.168,3.909,3.909,0,0,1,.2.5c.235.672,1.713.873,1.881.739a.854.854,0,0,0,.235.067,1.094,1.094,0,0,0,.6-.269,4.2,4.2,0,0,0,.4-.3c1.075.034.974-.571.974-1.108a3.012,3.012,0,0,0-.067-.6.534.534,0,0,0-.269-.336c-.067-.034-.1-.067-.168-.067a3.835,3.835,0,0,0-2.149-.571c-.3,0-.6-.034-.806-.034a40.987,40.987,0,0,0-3.526-2.418,5.168,5.168,0,0,1-1.142-.94A15.661,15.661,0,0,0,96.9,61.619a1.235,1.235,0,0,0,0-.705,4.484,4.484,0,0,0-.235-.6,9.14,9.14,0,0,0-1.478-5.373,9.6,9.6,0,0,0-1.377-2.015,5.342,5.342,0,0,0-1.075-.638l-.269-1.108c.067.067.1.168.168.235.437.672.772,1.108,1.377,1.108.806,0,1.007-.5,1.142-1.175.067-.269.168-.705.2-.974.034-.336.034-.638.067-.806h.571a.348.348,0,0,0,.336-.47c-.067-.168-.1-.336-.168-.5a2.648,2.648,0,0,1-.235-1.242c.034-.638.47-.806.47-1.847a2.205,2.205,0,0,0-.2-.84,1.1,1.1,0,0,0,.235-.6c0-1.209-2.922-3.157-5.306-3.157a4.108,4.108,0,0,0-3.761,4.2,19.78,19.78,0,0,0,.369,2.183,8.765,8.765,0,0,1,.134,1.41l-.638,1.478a12.2,12.2,0,0,0-1.31.134.522.522,0,0,0-.47.571l.034.5c-1.108-.034-2.149-.2-2.821.638a.957.957,0,0,1-.47.269,9.308,9.308,0,0,0-2.351.6,1.932,1.932,0,0,1-.873.168h-.705a2.879,2.879,0,0,1-.907-.168c-.739-.3-1.075-.672-1.545-.873a10.052,10.052,0,0,0-2.25-.571,6.1,6.1,0,0,1-2.653-1.276l-.067-.6a2.245,2.245,0,0,0-.269-.84,4.557,4.557,0,0,0-.705-.94,1.62,1.62,0,0,0-1.075-.5.686.686,0,0,0-.672.537l-.067.369c-.5.2-2.015.94-2.015,1.746,0,.168.1.6.437.6.2,0,.4-.235.5-.336l.2.2a6.32,6.32,0,0,0,1.377,1.444,1.893,1.893,0,0,0,.4.134.545.545,0,0,1,.3.168c.269.269.772.739,1.343,1.209a38.231,38.231,0,0,0,3.291,2.25,4.054,4.054,0,0,0,1.075.6,5.119,5.119,0,0,0,1.478.034,3.2,3.2,0,0,0,.84,1.108.671.671,0,0,0,.571.2,22.488,22.488,0,0,1,2.519.067,2.886,2.886,0,0,1,1.478.5,3.352,3.352,0,0,1,.84.705,1.785,1.785,0,0,1,.4.739,14.079,14.079,0,0,1,.369,1.713,10.726,10.726,0,0,0,1.813,4.1,2.624,2.624,0,0,1,.369.672,32.578,32.578,0,0,0,1.713,3.425,4.042,4.042,0,0,1,.5,1.78c0,1.209-.1,2.284-.2,3.425a8.87,8.87,0,0,0-.067.974,5.86,5.86,0,0,0,.235,2.754,13.073,13.073,0,0,0,1.511,2.317c-.034.168-.034.3-.067.47-.034.235-.1.47-.134.672v.067a6.079,6.079,0,0,0-.1.772,6.6,6.6,0,0,0-.84-.437,12.719,12.719,0,0,0-4.7-.806c-1.612-.134-3.224-.336-4.6-.47a9.321,9.321,0,0,1-2.552-.907c-.369-.672-.47-1.511-2.485-1.511-.672,0-1.075.369-1.881.369-1.075,0-2.384-.369-3.56-.034-1.545.437-3.022,1.813-3.022,2.922,0,.94,1.41.739,3.324.94,2.149.269,2.451.571,3.9.806.437.067.94.034,1.41.1h.034a15,15,0,0,0,1.578.235,21.83,21.83,0,0,1,3.392.5,19.041,19.041,0,0,1,2.25.806c.034.067.067.168.1.235h0a.854.854,0,0,0,.369.4c1.175.5,2.317,1.041,3.459,1.645a1.165,1.165,0,0,0,.94.1l.2-.034c.067.034.1.067.168.1.235.1.437.235.638.336,1.981,1.075,3.19,1.948,5.138,1.948a3.051,3.051,0,0,0,1.007-.134,2.082,2.082,0,0,0,1.142-.907,9,9,0,0,0,.537-1.142c.336-.806.705-1.713,1.041-2.552,1.881.94,2.854,2.048,3.19,2.048.134,0,.269-.134.437-.369,1.679.94,3.324,1.881,5,2.821a4.106,4.106,0,0,1,.638.4c.067.034.134.1.2.134a4.8,4.8,0,0,1,.6.5,1.448,1.448,0,0,1,.437.638c.134.336.235.672.369,1.041a12.92,12.92,0,0,0,.638,1.578,16.355,16.355,0,0,0,4.265,4.869c2.183,1.914,4.365,3.492,6.078,5.91a.633.633,0,0,0-.067.269c0,.4.571.705.84.974.6.571.772,1.041,1.78,1.041a4.71,4.71,0,0,0,2.854-1.41c2.418-.437,3.224-3.392,3.224-4.265A.865.865,0,0,0,125.711,100.774Z" transform="translate(-65.4 -40.9)" fill="#ffbd0a"/>
  </g>
  <path id="Path_648" data-name="Path 648" d="M252.306,177A5.14,5.14,0,1,1,247,182.138,5.219,5.219,0,0,1,252.306,177Z" transform="translate(-164.082 -117.572)" fill="#ffbd0a" fill-rule="evenodd"/>
</svg>
