<svg id="referee" xmlns="http://www.w3.org/2000/svg" width="98.556" height="94.644" viewBox="0 0 98.556 94.644">
  <path id="Path_365" data-name="Path 365" d="M443.787,442.5c-.062.021-.125.062-.187.083C443.662,442.562,443.725,442.521,443.787,442.5Z" transform="translate(-351.54 -350.658)" fill="none"/>
  <path id="Path_366" data-name="Path 366" d="M445.287,441.7c-.062.042-.125.062-.187.1C445.162,441.762,445.225,441.742,445.287,441.7Z" transform="translate(-352.729 -350.024)" fill="none"/>
  <path id="Path_367" data-name="Path 367" d="M442.108,443.2a2.159,2.159,0,0,1-.208.083A1.426,1.426,0,0,1,442.108,443.2Z" transform="translate(-350.193 -351.213)" fill="none"/>
  <path id="Path_368" data-name="Path 368" d="M448.208,439.9c-.062.042-.145.083-.208.124A.43.43,0,0,0,448.208,439.9Z" transform="translate(-355.027 -348.598)" fill="none"/>
  <path id="Path_369" data-name="Path 369" d="M449.691,438.7a3.525,3.525,0,0,1-.29.208C449.5,438.845,449.587,438.762,449.691,438.7Z" transform="translate(-356.136 -347.647)" fill="none"/>
  <path id="Path_370" data-name="Path 370" d="M440.528,443.8a1.013,1.013,0,0,0-.228.083A.744.744,0,0,1,440.528,443.8Z" transform="translate(-348.925 -351.688)" fill="none"/>
  <path id="Path_371" data-name="Path 371" d="M441.5,374.4c.083.042.187.062.27.1A1.044,1.044,0,0,0,441.5,374.4Z" transform="translate(-349.876 -296.691)" fill="none"/>
  <path id="Path_372" data-name="Path 372" d="M436.753,444.8c-.125.021-.228.062-.353.083C436.524,444.862,436.649,444.821,436.753,444.8Z" transform="translate(-345.834 -352.481)" fill="none"/>
  <path id="Path_373" data-name="Path 373" d="M431.428,445.8c-.083,0-.145.021-.228.021C431.283,445.821,431.345,445.8,431.428,445.8Z" transform="translate(-341.713 -353.273)" fill="none"/>
  <path id="Path_374" data-name="Path 374" d="M429.628,445.9H429.4A.426.426,0,0,0,429.628,445.9Z" transform="translate(-340.287 -353.352)" fill="none"/>
  <path id="Path_375" data-name="Path 375" d="M427.766,446h0Z" transform="translate(-338.86 -353.432)" fill="none"/>
  <path id="Path_376" data-name="Path 376" d="M451.308,437.7c-.062.062-.145.1-.208.166A1.446,1.446,0,0,1,451.308,437.7Z" transform="translate(-357.483 -346.854)" fill="none"/>
  <path id="Path_377" data-name="Path 377" d="M438.432,444.3a1.56,1.56,0,0,1-.332.083A1.56,1.56,0,0,0,438.432,444.3Z" transform="translate(-347.181 -352.084)" fill="none"/>
  <path id="Path_378" data-name="Path 378" d="M433.228,445.6a.853.853,0,0,1-.228.021C433.083,445.621,433.145,445.6,433.228,445.6Z" transform="translate(-343.14 -353.115)" fill="none"/>
  <path id="Path_379" data-name="Path 379" d="M434.949,445.3c-.083.021-.166.021-.249.042C434.783,445.321,434.866,445.321,434.949,445.3Z" transform="translate(-344.487 -352.877)" fill="none"/>
  <path id="Path_380" data-name="Path 380" d="M464.262,418l-.062.249Z" transform="translate(-367.865 -331.242)" fill="none"/>
  <path id="Path_381" data-name="Path 381" d="M462.983,421.6c-.021.062-.062.145-.083.208A.622.622,0,0,0,462.983,421.6Z" transform="translate(-366.835 -334.095)" fill="none"/>
  <path id="Path_382" data-name="Path 382" d="M462.383,423.3c-.021.062-.062.145-.083.208A1.433,1.433,0,0,1,462.383,423.3Z" transform="translate(-366.359 -335.443)" fill="none"/>
  <path id="Path_383" data-name="Path 383" d="M463.683,419.9a1.015,1.015,0,0,1-.083.228A.744.744,0,0,1,463.683,419.9Z" transform="translate(-367.389 -332.748)" fill="none"/>
  <path id="Path_384" data-name="Path 384" d="M452.766,436.6c-.062.042-.1.1-.166.145A.559.559,0,0,1,452.766,436.6Z" transform="translate(-358.672 -345.982)" fill="none"/>
  <path id="Path_385" data-name="Path 385" d="M461.5,425c-.042.062-.062.145-.1.208A1.923,1.923,0,0,0,461.5,425Z" transform="translate(-365.646 -336.79)" fill="none"/>
  <path id="Path_386" data-name="Path 386" d="M464.783,415.5c-.021.125-.062.249-.083.374A1.665,1.665,0,0,0,464.783,415.5Z" transform="translate(-368.261 -329.261)" fill="none"/>
  <path id="Path_387" data-name="Path 387" d="M425.928,445.921a.85.85,0,0,1-.228-.021C425.783,445.9,425.866,445.921,425.928,445.921Z" transform="translate(-337.355 -353.352)" fill="none"/>
  <path id="Path_388" data-name="Path 388" d="M368.845,359.3a.881.881,0,0,0-.145.1h0A.633.633,0,0,1,368.845,359.3Z" transform="translate(-292.184 -284.724)" fill="none"/>
  <path id="Path_389" data-name="Path 389" d="M456.345,432.9a1.039,1.039,0,0,1-.145.166A1.186,1.186,0,0,1,456.345,432.9Z" transform="translate(-361.525 -343.05)" fill="none"/>
  <path id="Path_390" data-name="Path 390" d="M455.245,434.2l-.145.145A.955.955,0,0,1,455.245,434.2Z" transform="translate(-360.653 -344.08)" fill="none"/>
  <path id="Path_391" data-name="Path 391" d="M454.045,435.4l-.145.145A.961.961,0,0,1,454.045,435.4Z" transform="translate(-359.702 -345.031)" fill="none"/>
  <path id="Path_392" data-name="Path 392" d="M460.625,426.6c-.042.083-.083.145-.125.228A2.257,2.257,0,0,1,460.625,426.6Z" transform="translate(-364.933 -338.058)" fill="none"/>
  <path id="Path_393" data-name="Path 393" d="M459.587,428.1l-.187.311Z" transform="translate(-364.061 -339.246)" fill="none"/>
  <path id="Path_394" data-name="Path 394" d="M457.445,431.5a1.139,1.139,0,0,1-.145.187C457.341,431.625,457.4,431.562,457.445,431.5Z" transform="translate(-362.397 -341.941)" fill="none"/>
  <path id="Path_395" data-name="Path 395" d="M458.466,429.9a2.185,2.185,0,0,1-.166.228C458.362,430.045,458.425,429.962,458.466,429.9Z" transform="translate(-363.189 -340.673)" fill="none"/>
  <path id="Path_396" data-name="Path 396" d="M388.942,407.221c-.021,0-.021,0-.042-.021A.064.064,0,0,0,388.942,407.221Z" transform="translate(-308.192 -322.684)" fill="none"/>
  <path id="Path_397" data-name="Path 397" d="M420.9,372.942a.882.882,0,0,1,.228-.042A.746.746,0,0,0,420.9,372.942Z" transform="translate(-333.551 -295.502)" fill="none"/>
  <path id="Path_398" data-name="Path 398" d="M426.5,372.121a.705.705,0,0,0,.208-.021A.639.639,0,0,1,426.5,372.121Z" transform="translate(-337.989 -294.868)" fill="none"/>
  <path id="Path_399" data-name="Path 399" d="M424.7,372.321c.062,0,.145-.021.208-.021C424.825,372.3,424.762,372.321,424.7,372.321Z" transform="translate(-336.562 -295.027)" fill="none"/>
  <path id="Path_400" data-name="Path 400" d="M422.8,372.542c.062-.021.145-.021.208-.042C422.945,372.521,422.862,372.521,422.8,372.542Z" transform="translate(-335.057 -295.185)" fill="none"/>
  <path id="Path_401" data-name="Path 401" d="M414.6,374.645a2.773,2.773,0,0,1,.374-.145A2.773,2.773,0,0,0,414.6,374.645Z" transform="translate(-328.558 -296.77)" fill="none"/>
  <path id="Path_402" data-name="Path 402" d="M419,373.362c.083-.021.145-.042.228-.062C419.145,373.321,419.062,373.342,419,373.362Z" transform="translate(-332.045 -295.819)" fill="none"/>
  <path id="Path_403" data-name="Path 403" d="M417,373.883c.083-.021.166-.062.249-.083C417.166,373.821,417.083,373.862,417,373.883Z" transform="translate(-330.46 -296.215)" fill="none"/>
  <path id="Path_404" data-name="Path 404" d="M428.5,372.2h0Z" transform="translate(-339.494 -294.947)" fill="none"/>
  <path id="Path_405" data-name="Path 405" d="M437.6,373.2a2.27,2.27,0,0,1,.353.1A1.754,1.754,0,0,0,437.6,373.2Z" transform="translate(-346.785 -295.74)" fill="none"/>
  <path id="Path_406" data-name="Path 406" d="M435.9,372.8l.311.062Z" transform="translate(-345.438 -295.423)" fill="none"/>
  <path id="Path_407" data-name="Path 407" d="M383.049,407.8a1.275,1.275,0,0,0-.249.1A1.275,1.275,0,0,1,383.049,407.8Z" transform="translate(-303.358 -323.159)" fill="none"/>
  <path id="Path_408" data-name="Path 408" d="M439.8,373.8c.083.021.166.062.249.083C439.966,373.862,439.883,373.821,439.8,373.8Z" transform="translate(-348.528 -296.215)" fill="none"/>
  <path id="Path_409" data-name="Path 409" d="M430.1,372.2c.124,0,.249.021.353.021A1.9,1.9,0,0,0,430.1,372.2Z" transform="translate(-340.842 -294.947)" fill="none"/>
  <path id="Path_410" data-name="Path 410" d="M434.1,372.5c.083.021.166.021.249.042A1.531,1.531,0,0,1,434.1,372.5Z" transform="translate(-344.011 -295.185)" fill="none"/>
  <path id="Path_411" data-name="Path 411" d="M432,372.3a1.817,1.817,0,0,1,.332.041A1.817,1.817,0,0,0,432,372.3Z" transform="translate(-342.347 -295.027)" fill="none"/>
  <path id="Path_412" data-name="Path 412" d="M392.821,410.441a.073.073,0,0,0-.021-.042A.064.064,0,0,1,392.821,410.441Z" transform="translate(-311.282 -325.22)" fill="none"/>
  <path id="Path_413" data-name="Path 413" d="M384.466,407.4c-.062.021-.1.021-.166.042A.391.391,0,0,0,384.466,407.4Z" transform="translate(-304.546 -322.842)" fill="none"/>
  <path id="Path_414" data-name="Path 414" d="M423.97,445.821c-.083,0-.166-.021-.27-.021A1.183,1.183,0,0,1,423.97,445.821Z" transform="translate(-335.77 -353.273)" fill="none"/>
  <path id="Path_415" data-name="Path 415" d="M393.5,412.362v0Z" transform="translate(-311.837 -326.725)" fill="none"/>
  <path id="Path_416" data-name="Path 416" d="M412.719,442.449c-.166-.083-.353-.166-.519-.249A2.951,2.951,0,0,0,412.719,442.449Z" transform="translate(-326.656 -350.42)" fill="none"/>
  <path id="Path_417" data-name="Path 417" d="M392.421,409.642c0-.021-.021-.021-.021-.042A.073.073,0,0,0,392.421,409.642Z" transform="translate(-310.965 -324.586)" fill="none"/>
  <path id="Path_418" data-name="Path 418" d="M409.1,440.311l-.5-.311C408.766,440.1,408.932,440.228,409.1,440.311Z" transform="translate(-323.803 -348.677)" fill="none"/>
  <path id="Path_419" data-name="Path 419" d="M393.7,413.462v0Z" transform="translate(-311.996 -327.597)" fill="none"/>
  <path id="Path_420" data-name="Path 420" d="M393.221,411.421c0-.021,0-.021-.021-.021Z" transform="translate(-311.599 -326.012)" fill="none"/>
  <path id="Path_421" data-name="Path 421" d="M391.241,408.421c-.021-.021-.021-.021-.042-.021C391.221,408.4,391.221,408.421,391.241,408.421Z" transform="translate(-310.014 -323.635)" fill="none"/>
  <path id="Path_422" data-name="Path 422" d="M368.7,370.8Z" transform="translate(-292.184 -293.838)" fill="none"/>
  <path id="Path_423" data-name="Path 423" d="M385.645,407.2c-.042,0-.083.021-.145.021A.309.309,0,0,0,385.645,407.2Z" transform="translate(-305.497 -322.684)" fill="none"/>
  <path id="Path_424" data-name="Path 424" d="M388.1,407.2Z" transform="translate(-307.558 -322.684)" fill="none"/>
  <path id="Path_425" data-name="Path 425" d="M389.742,407.521c-.021,0-.021-.021-.042-.021C389.721,407.5,389.721,407.521,389.742,407.521Z" transform="translate(-308.826 -322.922)" fill="none"/>
  <path id="Path_426" data-name="Path 426" d="M390.641,407.965c-.021,0-.021-.021,0,0C390.62,407.944,390.62,407.965,390.641,407.965Z" transform="translate(-309.559 -323.283)" fill="none"/>
  <path id="Path_427" data-name="Path 427" d="M446.787,440.9c-.062.042-.125.062-.187.1C446.662,440.962,446.724,440.942,446.787,440.9Z" transform="translate(-353.917 -349.39)" fill="none"/>
  <path id="Path_428" data-name="Path 428" d="M433.1,344.4c.021.021.042.042.042.062C433.121,344.442,433.121,344.421,433.1,344.4Z" transform="translate(-343.219 -272.917)" fill="none"/>
  <path id="Path_429" data-name="Path 429" d="M430.5,341.6l.042.041C430.542,341.621,430.521,341.621,430.5,341.6Z" transform="translate(-341.158 -270.698)" fill="none"/>
  <path id="Path_430" data-name="Path 430" d="M431.8,342.9c.021.021.042.062.083.083Z" transform="translate(-342.189 -271.728)" fill="none"/>
  <path id="Path_431" data-name="Path 431" d="M428.9,340.2a.287.287,0,0,0,.083.062C428.942,340.221,428.921,340.2,428.9,340.2Z" transform="translate(-339.89 -269.588)" fill="none"/>
  <path id="Path_432" data-name="Path 432" d="M424.3,337.1c.021.021.062.021.083.042A.108.108,0,0,0,424.3,337.1Z" transform="translate(-336.245 -267.132)" fill="none"/>
  <path id="Path_433" data-name="Path 433" d="M426,338l.021.021Z" transform="translate(-337.592 -267.845)" fill="none"/>
  <path id="Path_434" data-name="Path 434" d="M422.9,336.3c.021.021.042.021.062.042C422.942,336.321,422.921,336.321,422.9,336.3Z" transform="translate(-335.136 -266.498)" fill="none"/>
  <path id="Path_435" data-name="Path 435" d="M427.5,339.1c.021.021.062.042.083.062C427.562,339.142,427.521,339.121,427.5,339.1Z" transform="translate(-338.781 -268.717)" fill="none"/>
  <path id="Path_436" data-name="Path 436" d="M434.5,346.1c.021.021.042.062.062.083A.111.111,0,0,1,434.5,346.1Z" transform="translate(-344.328 -274.264)" fill="none"/>
  <path id="Path_437" data-name="Path 437" d="M434.966,359.021c-.062,0-.1-.021-.166-.021C434.842,359,434.9,359.021,434.966,359.021Z" transform="translate(-344.566 -284.487)" fill="none"/>
  <path id="Path_438" data-name="Path 438" d="M433.166,358.821A.457.457,0,0,1,433,358.8.4.4,0,0,0,433.166,358.821Z" transform="translate(-343.14 -284.328)" fill="none"/>
  <path id="Path_439" data-name="Path 439" d="M436.766,359.321c-.062,0-.1-.021-.166-.021A.4.4,0,0,1,436.766,359.321Z" transform="translate(-345.993 -284.724)" fill="none"/>
  <path id="Path_440" data-name="Path 440" d="M368.962,371.042c-.021-.021-.042-.021-.062-.041C368.921,371.021,368.942,371.042,368.962,371.042Z" transform="translate(-292.342 -293.996)" fill="none"/>
  <path id="Path_441" data-name="Path 441" d="M440.625,359.921c-.042,0-.083-.021-.125-.021A.263.263,0,0,0,440.625,359.921Z" transform="translate(-349.083 -285.2)" fill="none"/>
  <path id="Path_442" data-name="Path 442" d="M438.745,359.621c-.042,0-.1-.021-.145-.021A.406.406,0,0,1,438.745,359.621Z" transform="translate(-347.577 -284.962)" fill="none"/>
  <path id="Path_443" data-name="Path 443" d="M431.266,358.741H431.1A.227.227,0,0,1,431.266,358.741Z" transform="translate(-341.634 -284.269)" fill="none"/>
  <path id="Path_444" data-name="Path 444" d="M403.4,335.342c.041-.021.083-.021.1-.042A.35.35,0,0,1,403.4,335.342Z" transform="translate(-319.683 -265.705)" fill="none"/>
  <path id="Path_445" data-name="Path 445" d="M405.3,334.921c.021,0,.021,0,.041-.021C405.341,334.921,405.321,334.921,405.3,334.921Z" transform="translate(-321.188 -265.388)" fill="none"/>
  <path id="Path_446" data-name="Path 446" d="M407.2,334.521a.187.187,0,0,0,.1-.021A.225.225,0,0,1,407.2,334.521Z" transform="translate(-322.694 -265.071)" fill="none"/>
  <path id="Path_447" data-name="Path 447" d="M408.8,334.321a.263.263,0,0,0,.125-.021C408.862,334.3,408.821,334.3,408.8,334.321Z" transform="translate(-323.962 -264.913)" fill="none"/>
  <path id="Path_448" data-name="Path 448" d="M401.6,335.941c.042-.021.083-.021.125-.041A.3.3,0,0,0,401.6,335.941Z" transform="translate(-318.256 -266.181)" fill="none"/>
  <path id="Path_449" data-name="Path 449" d="M399.9,336.542c.042-.021.083-.021.1-.042C399.983,336.521,399.942,336.521,399.9,336.542Z" transform="translate(-316.909 -266.656)" fill="none"/>
  <path id="Path_450" data-name="Path 450" d="M419.4,335.1c.042,0,.062.021.1.021A.9.9,0,0,1,419.4,335.1Z" transform="translate(-332.362 -265.547)" fill="none"/>
  <path id="Path_451" data-name="Path 451" d="M417.8,334.7h0Z" transform="translate(-331.094 -265.23)" fill="none"/>
  <path id="Path_452" data-name="Path 452" d="M415.8,334.4a.125.125,0,0,1,.083.021A.125.125,0,0,0,415.8,334.4Z" transform="translate(-329.509 -264.992)" fill="none"/>
  <path id="Path_453" data-name="Path 453" d="M421,335.6c.021,0,.042.021.062.021A.161.161,0,0,1,421,335.6Z" transform="translate(-333.63 -265.943)" fill="none"/>
  <path id="Path_454" data-name="Path 454" d="M412.162,334.1h0Z" transform="translate(-326.577 -264.754)" fill="none"/>
  <path id="Path_455" data-name="Path 455" d="M414.1,334.2h0Z" transform="translate(-328.162 -264.833)" fill="none"/>
  <path id="Path_456" data-name="Path 456" d="M410.4,334.2h0Z" transform="translate(-325.23 -264.833)" fill="none"/>
  <path id="Path_457" data-name="Path 457" d="M435.6,347.7c.021.042.042.062.062.1C435.642,347.762,435.621,347.742,435.6,347.7Z" transform="translate(-345.2 -275.532)" fill="none"/>
  <path id="Path_458" data-name="Path 458" d="M379.3,363.1c0,.021.021.042.021.062C379.321,363.142,379.3,363.121,379.3,363.1Z" transform="translate(-300.584 -287.736)" fill="none"/>
  <path id="Path_459" data-name="Path 459" d="M379.6,363.8c0,.021.021.042.021.062C379.621,363.842,379.6,363.821,379.6,363.8Z" transform="translate(-300.822 -288.291)" fill="none"/>
  <path id="Path_460" data-name="Path 460" d="M429.466,358.7h0Z" transform="translate(-340.208 -284.249)" fill="none"/>
  <path id="Path_461" data-name="Path 461" d="M378.9,362.4c.021.021.021.041.042.062C378.942,362.442,378.921,362.421,378.9,362.4Z" transform="translate(-300.267 -287.181)" fill="none"/>
  <path id="Path_462" data-name="Path 462" d="M377.5,360.6l.062.062C377.542,360.621,377.521,360.621,377.5,360.6Z" transform="translate(-299.158 -285.755)" fill="none"/>
  <path id="Path_463" data-name="Path 463" d="M378.5,361.8c.021.021.021.042.042.062C378.542,361.821,378.521,361.8,378.5,361.8Z" transform="translate(-299.95 -286.706)" fill="none"/>
  <path id="Path_464" data-name="Path 464" d="M378,361.1c.021.021.041.042.041.062C378.042,361.141,378.021,361.121,378,361.1Z" transform="translate(-299.554 -286.151)" fill="none"/>
  <path id="Path_465" data-name="Path 465" d="M377,360.1c.021.021.042.041.062.041C377.042,360.121,377.021,360.1,377,360.1Z" transform="translate(-298.761 -285.358)" fill="none"/>
  <path id="Path_466" data-name="Path 466" d="M370.162,371.841c-.021-.021-.042-.021-.062-.042C370.121,371.821,370.142,371.841,370.162,371.841Z" transform="translate(-293.293 -294.63)" fill="none"/>
  <path id="Path_467" data-name="Path 467" d="M370.762,372.221c-.021,0-.041-.021-.062-.021C370.721,372.2,370.742,372.221,370.762,372.221Z" transform="translate(-293.769 -294.947)" fill="none"/>
  <path id="Path_468" data-name="Path 468" d="M380,365.4v0Z" transform="translate(-301.139 -289.558)" fill="none"/>
  <path id="Path_469" data-name="Path 469" d="M369.562,371.542c-.021-.021-.042-.021-.062-.042C369.521,371.5,369.542,371.521,369.562,371.542Z" transform="translate(-292.818 -294.393)" fill="none"/>
  <path id="Path_470" data-name="Path 470" d="M372.883,372.7h0Z" transform="translate(-295.433 -295.344)" fill="none"/>
  <path id="Path_471" data-name="Path 471" d="M371.462,372.421c-.021,0-.041-.021-.062-.021A.076.076,0,0,0,371.462,372.421Z" transform="translate(-294.324 -295.106)" fill="none"/>
  <path id="Path_472" data-name="Path 472" d="M372.162,372.621a.076.076,0,0,1-.062-.021A.076.076,0,0,1,372.162,372.621Z" transform="translate(-294.878 -295.264)" fill="none"/>
  <path id="Path_473" data-name="Path 473" d="M379.8,364.5c0,.021.021.042.021.062C379.821,364.542,379.8,364.521,379.8,364.5Z" transform="translate(-300.98 -288.845)" fill="none"/>
  <path id="Path_474" data-name="Path 474" d="M420.208,359.3c-.062.021-.145.021-.208.042A.737.737,0,0,0,420.208,359.3Z" transform="translate(-332.838 -284.724)" fill="none"/>
  <path id="Path_475" data-name="Path 475" d="M418.328,359.7c-.083.021-.145.042-.228.062C418.183,359.741,418.266,359.721,418.328,359.7Z" transform="translate(-331.332 -285.041)" fill="none"/>
  <path id="Path_476" data-name="Path 476" d="M416.449,360.2a1.169,1.169,0,0,0-.249.083A1.166,1.166,0,0,1,416.449,360.2Z" transform="translate(-329.826 -285.438)" fill="none"/>
  <path id="Path_477" data-name="Path 477" d="M425.708,358.7a.706.706,0,0,0-.208.021A.779.779,0,0,1,425.708,358.7Z" transform="translate(-337.196 -284.249)" fill="none"/>
  <path id="Path_478" data-name="Path 478" d="M414.253,360.7c-.125.042-.228.083-.353.125C414.025,360.783,414.149,360.742,414.253,360.7Z" transform="translate(-328.003 -285.834)" fill="none"/>
  <path id="Path_479" data-name="Path 479" d="M422.007,359a.738.738,0,0,0-.207.042C421.883,359.021,421.945,359.021,422.007,359Z" transform="translate(-334.264 -284.487)" fill="none"/>
  <path id="Path_480" data-name="Path 480" d="M423.908,358.8c-.062,0-.145.021-.208.021A.78.78,0,0,0,423.908,358.8Z" transform="translate(-335.77 -284.328)" fill="none"/>
  <path id="Path_481" data-name="Path 481" d="M376.4,359.6c.021.021.041.021.062.042C376.441,359.621,376.421,359.621,376.4,359.6Z" transform="translate(-298.286 -284.962)" fill="none"/>
  <path id="Path_482" data-name="Path 482" d="M375.1,358.9c.021,0,.042.021.062.021C375.142,358.921,375.121,358.9,375.1,358.9Z" transform="translate(-297.256 -284.407)" fill="none"/>
  <path id="Path_483" data-name="Path 483" d="M375.8,359.2c.021.021.042.021.062.042C375.841,359.221,375.821,359.221,375.8,359.2Z" transform="translate(-297.81 -284.645)" fill="none"/>
  <path id="Path_484" data-name="Path 484" d="M374.4,358.6c.021,0,.042.021.062.021A.1.1,0,0,1,374.4,358.6Z" transform="translate(-296.701 -284.17)" fill="none"/>
  <path id="Path_485" data-name="Path 485" d="M427.4,358.7h0Z" transform="translate(-338.702 -284.249)" fill="none"/>
  <path id="Path_486" data-name="Path 486" d="M373.8,358.4a.076.076,0,0,1,.062.021A.076.076,0,0,1,373.8,358.4Z" transform="translate(-296.225 -284.011)" fill="none"/>
  <path id="Path_487" data-name="Path 487" d="M373.1,358.4h0Z" transform="translate(-295.671 -284.011)" fill="none"/>
  <path id="Path_488" data-name="Path 488" d="M415.2,388.362c.021-.021.062-.042.083-.062C415.262,388.321,415.221,388.342,415.2,388.362Z" transform="translate(-329.034 -307.706)" fill="none"/>
  <path id="Path_489" data-name="Path 489" d="M450.941,419.8c-.021.042-.042.062-.042.1A.158.158,0,0,1,450.941,419.8Z" transform="translate(-357.325 -332.669)" fill="none"/>
  <path id="Path_490" data-name="Path 490" d="M449.662,421.9c-.021.021-.042.062-.062.083C449.621,421.962,449.642,421.921,449.662,421.9Z" transform="translate(-356.295 -334.333)" fill="none"/>
  <path id="Path_491" data-name="Path 491" d="M450.262,420.8c-.021.041-.042.062-.062.1C450.241,420.862,450.262,420.841,450.262,420.8Z" transform="translate(-356.77 -333.461)" fill="none"/>
  <path id="Path_492" data-name="Path 492" d="M451.442,418.7c-.021.042-.021.062-.042.1C451.421,418.762,451.421,418.742,451.442,418.7Z" transform="translate(-357.721 -331.797)" fill="none"/>
  <path id="Path_493" data-name="Path 493" d="M452.642,415.3c0,.041-.021.062-.042.1C452.621,415.362,452.621,415.341,452.642,415.3Z" transform="translate(-358.672 -329.103)" fill="none"/>
  <path id="Path_494" data-name="Path 494" d="M452.242,416.4c-.021.042-.021.062-.042.1A.158.158,0,0,0,452.242,416.4Z" transform="translate(-358.355 -329.974)" fill="none"/>
  <path id="Path_495" data-name="Path 495" d="M425.224,419.741c-.041-.021-.083-.021-.125-.041A.3.3,0,0,0,425.224,419.741Z" transform="translate(-336.879 -332.59)" fill="none"/>
  <path id="Path_496" data-name="Path 496" d="M447.483,424.7c-.021.021-.041.062-.083.083A.162.162,0,0,0,447.483,424.7Z" transform="translate(-354.551 -336.552)" fill="none"/>
  <path id="Path_497" data-name="Path 497" d="M427.425,420.321a.263.263,0,0,1-.125-.021A.263.263,0,0,1,427.425,420.321Z" transform="translate(-338.623 -333.065)" fill="none"/>
  <path id="Path_498" data-name="Path 498" d="M426.225,420.121c-.042,0-.083-.021-.125-.021A.733.733,0,0,1,426.225,420.121Z" transform="translate(-337.672 -332.907)" fill="none"/>
  <path id="Path_499" data-name="Path 499" d="M428.583,420.4h0Z" transform="translate(-339.574 -333.144)" fill="none"/>
  <path id="Path_500" data-name="Path 500" d="M448.362,423.8c-.021.021-.042.062-.062.083A.288.288,0,0,0,448.362,423.8Z" transform="translate(-355.264 -335.839)" fill="none"/>
  <path id="Path_501" data-name="Path 501" d="M449.062,422.9c-.021.021-.041.062-.062.083A.286.286,0,0,1,449.062,422.9Z" transform="translate(-355.819 -335.126)" fill="none"/>
  <path id="Path_502" data-name="Path 502" d="M453.021,414.1c0,.042-.021.062-.021.1A.187.187,0,0,1,453.021,414.1Z" transform="translate(-358.989 -328.152)" fill="none"/>
  <path id="Path_503" data-name="Path 503" d="M451.841,417.6c-.021.041-.021.062-.041.1A.351.351,0,0,0,451.841,417.6Z" transform="translate(-358.038 -330.926)" fill="none"/>
  <path id="Path_504" data-name="Path 504" d="M420.5,385.742c.042-.021.083-.021.1-.042C420.583,385.721,420.542,385.721,420.5,385.742Z" transform="translate(-333.234 -305.646)" fill="none"/>
  <path id="Path_505" data-name="Path 505" d="M421.7,385.342c.042-.021.083-.021.125-.042C421.762,385.321,421.742,385.342,421.7,385.342Z" transform="translate(-334.185 -305.329)" fill="none"/>
  <path id="Path_506" data-name="Path 506" d="M419.4,386.141c.042-.021.062-.021.1-.042C419.462,386.121,419.442,386.141,419.4,386.141Z" transform="translate(-332.362 -305.963)" fill="none"/>
  <path id="Path_507" data-name="Path 507" d="M422.8,385.121c.042,0,.083-.021.125-.021A.264.264,0,0,0,422.8,385.121Z" transform="translate(-335.057 -305.17)" fill="none"/>
  <path id="Path_508" data-name="Path 508" d="M443.2,375c.1.041.228.1.332.145C443.408,375.1,443.3,375.042,443.2,375Z" transform="translate(-351.223 -297.166)" fill="none"/>
  <path id="Path_509" data-name="Path 509" d="M417.2,387.242c.042-.021.062-.042.1-.042C417.262,387.2,417.242,387.221,417.2,387.242Z" transform="translate(-330.619 -306.834)" fill="none"/>
  <path id="Path_510" data-name="Path 510" d="M418.3,386.641c.042-.021.062-.021.1-.041C418.362,386.621,418.342,386.621,418.3,386.641Z" transform="translate(-331.49 -306.359)" fill="none"/>
  <path id="Path_511" data-name="Path 511" d="M425.3,384.621c.042,0,.083-.021.125-.021A.264.264,0,0,1,425.3,384.621Z" transform="translate(-337.038 -304.774)" fill="none"/>
  <path id="Path_512" data-name="Path 512" d="M424,384.821c.042,0,.083-.021.125-.021A.263.263,0,0,1,424,384.821Z" transform="translate(-336.007 -304.932)" fill="none"/>
  <path id="Path_513" data-name="Path 513" d="M453.565,410.4v.062C453.544,410.441,453.565,410.421,453.565,410.4Z" transform="translate(-359.429 -325.22)" fill="none"/>
  <path id="Path_514" data-name="Path 514" d="M453.421,411.7a.125.125,0,0,1-.021.083C453.4,411.742,453.4,411.721,453.421,411.7Z" transform="translate(-359.306 -326.25)" fill="none"/>
  <path id="Path_515" data-name="Path 515" d="M427.8,384.5h0Z" transform="translate(-339.019 -304.695)" fill="none"/>
  <path id="Path_516" data-name="Path 516" d="M453.221,412.9c0,.042-.021.062-.021.1C453.2,412.962,453.221,412.942,453.221,412.9Z" transform="translate(-359.148 -327.201)" fill="none"/>
  <path id="Path_517" data-name="Path 517" d="M426.5,384.541h.125A.132.132,0,0,0,426.5,384.541Z" transform="translate(-337.989 -304.714)" fill="none"/>
  <path id="Path_518" data-name="Path 518" d="M422.2,418.262c-.042-.021-.062-.041-.1-.062A.455.455,0,0,1,422.2,418.262Z" transform="translate(-334.502 -331.401)" fill="none"/>
  <path id="Path_519" data-name="Path 519" d="M437.6,401.8c.021.042.062.062.083.1A.363.363,0,0,0,437.6,401.8Z" transform="translate(-346.785 -318.404)" fill="none"/>
  <path id="Path_520" data-name="Path 520" d="M433.2,398.6l.124.062A.179.179,0,0,0,433.2,398.6Z" transform="translate(-343.298 -315.868)" fill="none"/>
  <path id="Path_521" data-name="Path 521" d="M438.3,402.7l.062.125A.687.687,0,0,0,438.3,402.7Z" transform="translate(-347.34 -319.118)" fill="none"/>
  <path id="Path_522" data-name="Path 522" d="M438.9,403.6l.062.125Z" transform="translate(-347.815 -319.831)" fill="none"/>
  <path id="Path_523" data-name="Path 523" d="M434.2,399a.452.452,0,0,1,.1.062C434.283,399.062,434.241,399.021,434.2,399Z" transform="translate(-344.091 -316.185)" fill="none"/>
  <path id="Path_524" data-name="Path 524" d="M436.1,400.3c.042.021.062.062.1.083C436.162,400.341,436.121,400.321,436.1,400.3Z" transform="translate(-345.596 -317.216)" fill="none"/>
  <path id="Path_525" data-name="Path 525" d="M435.2,399.6a.364.364,0,0,1,.1.083A.455.455,0,0,1,435.2,399.6Z" transform="translate(-344.883 -316.661)" fill="none"/>
  <path id="Path_526" data-name="Path 526" d="M436.9,401a.207.207,0,0,1,.083.1C436.962,401.062,436.921,401.042,436.9,401Z" transform="translate(-346.23 -317.77)" fill="none"/>
  <path id="Path_527" data-name="Path 527" d="M446.7,425.683l.083-.083Z" transform="translate(-353.997 -337.265)" fill="none"/>
  <path id="Path_528" data-name="Path 528" d="M440.221,408.128a.777.777,0,0,0-.021-.228.777.777,0,0,1,.021.228Z" transform="translate(-348.845 -323.238)" fill="none"/>
  <path id="Path_529" data-name="Path 529" d="M439.4,404.6a.3.3,0,0,1,.042.125A.3.3,0,0,0,439.4,404.6Z" transform="translate(-348.211 -320.623)" fill="none"/>
  <path id="Path_530" data-name="Path 530" d="M424.2,419.341a.353.353,0,0,0-.1-.042A.158.158,0,0,0,424.2,419.341Z" transform="translate(-336.087 -332.273)" fill="none"/>
  <path id="Path_531" data-name="Path 531" d="M440.1,406.7a.4.4,0,0,1,.021.166C440.121,406.8,440.1,406.762,440.1,406.7Z" transform="translate(-348.766 -322.288)" fill="none"/>
  <path id="Path_532" data-name="Path 532" d="M439.8,405.6c.021.042.021.1.042.145A1.321,1.321,0,0,1,439.8,405.6Z" transform="translate(-348.528 -321.416)" fill="none"/>
  <path id="Path_533" data-name="Path 533" d="M419.262,415.1c-.021-.041-.041-.062-.062-.1C419.2,415.042,419.221,415.062,419.262,415.1Z" transform="translate(-332.204 -328.865)" fill="none"/>
  <path id="Path_534" data-name="Path 534" d="M418.141,413.124A.3.3,0,0,1,418.1,413C418.121,413.042,418.121,413.083,418.141,413.124Z" transform="translate(-331.332 -327.28)" fill="none"/>
  <path id="Path_535" data-name="Path 535" d="M419.783,416c-.021-.042-.062-.062-.083-.1A.208.208,0,0,1,419.783,416Z" transform="translate(-332.6 -329.578)" fill="none"/>
  <path id="Path_536" data-name="Path 536" d="M418.562,414.2a.452.452,0,0,0-.062-.1C418.542,414.121,418.542,414.162,418.562,414.2Z" transform="translate(-331.649 -328.152)" fill="none"/>
  <path id="Path_537" data-name="Path 537" d="M416.2,387.662c.041-.021.062-.042.1-.062C416.262,387.642,416.221,387.642,416.2,387.662Z" transform="translate(-329.826 -307.151)" fill="none"/>
  <path id="Path_538" data-name="Path 538" d="M420.583,416.883l-.083-.083C420.521,416.821,420.562,416.842,420.583,416.883Z" transform="translate(-333.234 -330.291)" fill="none"/>
  <path id="Path_539" data-name="Path 539" d="M421.3,417.583c-.042-.021-.062-.062-.1-.083A.452.452,0,0,1,421.3,417.583Z" transform="translate(-333.789 -330.846)" fill="none"/>
  <path id="Path_540" data-name="Path 540" d="M431,397.9a.3.3,0,0,1,.125.042A.3.3,0,0,0,431,397.9Z" transform="translate(-341.555 -315.314)" fill="none"/>
  <path id="Path_541" data-name="Path 541" d="M429.9,397.7c.042,0,.083.021.124.021A.263.263,0,0,1,429.9,397.7Z" transform="translate(-340.683 -315.155)" fill="none"/>
  <path id="Path_542" data-name="Path 542" d="M417.742,412.125c-.021-.042-.021-.083-.042-.124C417.721,412.021,417.721,412.083,417.742,412.125Z" transform="translate(-331.015 -326.488)" fill="none"/>
  <path id="Path_543" data-name="Path 543" d="M432.1,398.2c.042.021.083.021.125.042A.3.3,0,0,0,432.1,398.2Z" transform="translate(-342.426 -315.552)" fill="none"/>
  <path id="Path_544" data-name="Path 544" d="M428.765,397.7Z" transform="translate(-339.776 -315.155)" fill="none"/>
  <path id="Path_545" data-name="Path 545" d="M417.521,410.945a.353.353,0,0,1-.021-.145C417.5,410.842,417.521,410.9,417.521,410.945Z" transform="translate(-330.856 -325.537)" fill="none"/>
  <path id="Path_546" data-name="Path 546" d="M417.321,409.528c0-.083-.021-.145-.021-.228C417.3,409.383,417.321,409.445,417.321,409.528Z" transform="translate(-330.698 -324.348)" fill="none"/>
  <path id="Path_547" data-name="Path 547" d="M423.2,418.862c-.042-.021-.062-.042-.1-.062C423.142,418.821,423.162,418.842,423.2,418.862Z" transform="translate(-335.294 -331.876)" fill="none"/>
  <path id="Path_548" data-name="Path 548" d="M443.1,428.8a.453.453,0,0,1-.1.062A.453.453,0,0,0,443.1,428.8Z" transform="translate(-351.064 -339.801)" fill="none"/>
  <path id="Path_549" data-name="Path 549" d="M442.1,429.5c-.041.021-.062.042-.1.062A.451.451,0,0,0,442.1,429.5Z" transform="translate(-350.272 -340.356)" fill="none"/>
  <path id="Path_550" data-name="Path 550" d="M441.1,430.1c-.042.021-.062.042-.1.062A.456.456,0,0,0,441.1,430.1Z" transform="translate(-349.479 -340.831)" fill="none"/>
  <path id="Path_551" data-name="Path 551" d="M444.183,428.1c-.021.021-.062.042-.083.062A.287.287,0,0,1,444.183,428.1Z" transform="translate(-351.936 -339.246)" fill="none"/>
  <path id="Path_552" data-name="Path 552" d="M440.1,430.7c-.042.021-.062.042-.1.062A.453.453,0,0,1,440.1,430.7Z" transform="translate(-348.687 -341.307)" fill="none"/>
  <path id="Path_553" data-name="Path 553" d="M414.7,443.4a6.327,6.327,0,0,0,1.349.415c.125.021.27.042.394.062-.124-.021-.27-.041-.394-.062A5.331,5.331,0,0,1,414.7,443.4Z" transform="translate(-328.637 -351.371)" fill="none"/>
  <path id="Path_554" data-name="Path 554" d="M445.883,426.5c-.021.021-.062.042-.083.083Z" transform="translate(-353.283 -337.978)" fill="none"/>
  <path id="Path_555" data-name="Path 555" d="M445.083,427.3c-.021.021-.062.042-.083.083A.162.162,0,0,1,445.083,427.3Z" transform="translate(-352.649 -338.612)" fill="none"/>
  <path id="Path_556" data-name="Path 556" d="M431.924,433.3c-.041,0-.083.021-.124.021A.264.264,0,0,0,431.924,433.3Z" transform="translate(-342.189 -343.367)" fill="none"/>
  <path id="Path_557" data-name="Path 557" d="M439,431.2c-.042.021-.062.042-.1.042C438.942,431.242,438.962,431.221,439,431.2Z" transform="translate(-347.815 -341.703)" fill="none"/>
  <path id="Path_558" data-name="Path 558" d="M391.8,408.9l.021.021A.02.02,0,0,1,391.8,408.9Z" transform="translate(-310.49 -324.031)" fill="none"/>
  <path id="Path_559" data-name="Path 559" d="M430.724,433.5h0Z" transform="translate(-341.238 -343.526)" fill="none"/>
  <path id="Path_560" data-name="Path 560" d="M429.424,433.6h0Z" transform="translate(-340.207 -343.605)" fill="none"/>
  <path id="Path_561" data-name="Path 561" d="M433.125,433.1c-.042,0-.083.021-.125.021A.263.263,0,0,0,433.125,433.1Z" transform="translate(-343.14 -343.209)" fill="none"/>
  <path id="Path_562" data-name="Path 562" d="M434.325,432.8c-.042,0-.083.021-.125.021A.263.263,0,0,0,434.325,432.8Z" transform="translate(-344.091 -342.971)" fill="none"/>
  <path id="Path_563" data-name="Path 563" d="M436.725,432.1c-.042.021-.083.021-.125.042A.3.3,0,0,0,436.725,432.1Z" transform="translate(-345.993 -342.416)" fill="none"/>
  <path id="Path_564" data-name="Path 564" d="M435.525,432.5c-.042.021-.083.021-.125.042C435.442,432.521,435.483,432.521,435.525,432.5Z" transform="translate(-345.042 -342.733)" fill="none"/>
  <path id="Path_565" data-name="Path 565" d="M463.9,397a2.512,2.512,0,0,1,.1.374A2.512,2.512,0,0,0,463.9,397Z" transform="translate(-367.627 -314.601)" fill="none"/>
  <path id="Path_566" data-name="Path 566" d="M450,378.7c.083.062.187.124.27.187A3.044,3.044,0,0,1,450,378.7Z" transform="translate(-356.612 -300.098)" fill="none"/>
  <path id="Path_567" data-name="Path 567" d="M386.7,407.165h.125C386.783,407.144,386.742,407.165,386.7,407.165Z" transform="translate(-306.448 -322.648)" fill="none"/>
  <path id="Path_568" data-name="Path 568" d="M456,383.8a1.886,1.886,0,0,1,.187.208A1.886,1.886,0,0,0,456,383.8Z" transform="translate(-361.366 -304.14)" fill="none"/>
  <path id="Path_569" data-name="Path 569" d="M454.4,382.2a3.182,3.182,0,0,0,.27.249A3.192,3.192,0,0,1,454.4,382.2Z" transform="translate(-360.098 -302.872)" fill="none"/>
  <path id="Path_570" data-name="Path 570" d="M451.7,379.9c.062.062.145.1.207.166C451.845,380,451.762,379.962,451.7,379.9Z" transform="translate(-357.959 -301.049)" fill="none"/>
  <path id="Path_571" data-name="Path 571" d="M445.1,375.9l.249.125Z" transform="translate(-352.729 -297.879)" fill="none"/>
  <path id="Path_572" data-name="Path 572" d="M448.4,377.6l.311.187A1.241,1.241,0,0,1,448.4,377.6Z" transform="translate(-355.344 -299.227)" fill="none"/>
  <path id="Path_573" data-name="Path 573" d="M446.8,376.8a2.271,2.271,0,0,1,.228.125A2.271,2.271,0,0,0,446.8,376.8Z" transform="translate(-354.076 -298.593)" fill="none"/>
  <path id="Path_574" data-name="Path 574" d="M453.1,381a3.115,3.115,0,0,0,.27.228A1.432,1.432,0,0,1,453.1,381Z" transform="translate(-359.068 -301.921)" fill="none"/>
  <path id="Path_575" data-name="Path 575" d="M461.6,391.5c.062.1.1.228.166.332C461.7,391.708,461.662,391.6,461.6,391.5Z" transform="translate(-365.804 -310.242)" fill="none"/>
  <path id="Path_576" data-name="Path 576" d="M457.2,385.1c.062.083.125.145.187.228A2.2,2.2,0,0,1,457.2,385.1Z" transform="translate(-362.318 -305.17)" fill="none"/>
  <path id="Path_577" data-name="Path 577" d="M462.5,393.3c.042.1.083.187.125.291C462.583,393.508,462.542,393.4,462.5,393.3Z" transform="translate(-366.518 -311.668)" fill="none"/>
  <path id="Path_578" data-name="Path 578" d="M421.843,432.411h0a5.3,5.3,0,0,1-1.743-.311A4.9,4.9,0,0,0,421.843,432.411Z" transform="translate(-332.917 -342.416)" fill="none"/>
  <path id="Path_579" data-name="Path 579" d="M463.3,395.3c.042.083.062.166.1.249C463.362,395.466,463.342,395.383,463.3,395.3Z" transform="translate(-367.151 -313.253)" fill="none"/>
  <path id="Path_580" data-name="Path 580" d="M460.7,389.9c.042.083.1.166.145.249A1.549,1.549,0,0,1,460.7,389.9Z" transform="translate(-365.091 -308.974)" fill="none"/>
  <path id="Path_581" data-name="Path 581" d="M458.4,386.5a2.516,2.516,0,0,1,.208.291A3.514,3.514,0,0,1,458.4,386.5Z" transform="translate(-363.268 -306.28)" fill="none"/>
  <path id="Path_582" data-name="Path 582" d="M459.6,388.3c.062.083.1.166.145.228A1.4,1.4,0,0,0,459.6,388.3Z" transform="translate(-364.219 -307.706)" fill="none"/>
  <path id="Path_583" data-name="Path 583" d="M437.9,431.7c-.042.021-.083.021-.1.041C437.821,431.721,437.862,431.721,437.9,431.7Z" transform="translate(-346.943 -342.099)" fill="none"/>
  <path id="Path_584" data-name="Path 584" d="M407.2,396.883a.158.158,0,0,0,.042-.083A.158.158,0,0,1,407.2,396.883Z" transform="translate(-322.694 -314.442)" fill="none"/>
  <path id="Path_585" data-name="Path 585" d="M405.7,400.183c.021-.041.021-.062.042-.083C405.742,400.121,405.721,400.142,405.7,400.183Z" transform="translate(-321.505 -317.057)" fill="none"/>
  <path id="Path_586" data-name="Path 586" d="M409.2,393.883c.021-.021.042-.062.062-.083A.285.285,0,0,1,409.2,393.883Z" transform="translate(-324.279 -312.065)" fill="none"/>
  <path id="Path_587" data-name="Path 587" d="M408.5,394.883c.021-.021.042-.062.062-.083A.287.287,0,0,0,408.5,394.883Z" transform="translate(-323.724 -312.857)" fill="none"/>
  <path id="Path_588" data-name="Path 588" d="M406.2,398.983c.021-.042.021-.062.041-.083A.157.157,0,0,0,406.2,398.983Z" transform="translate(-321.901 -316.106)" fill="none"/>
  <path id="Path_589" data-name="Path 589" d="M406.7,397.883c.021-.021.021-.062.041-.083C406.721,397.842,406.7,397.862,406.7,397.883Z" transform="translate(-322.298 -315.235)" fill="none"/>
  <path id="Path_590" data-name="Path 590" d="M407.8,395.883c.021-.021.042-.062.062-.083A.287.287,0,0,0,407.8,395.883Z" transform="translate(-323.169 -313.65)" fill="none"/>
  <path id="Path_591" data-name="Path 591" d="M412.4,390.462c.021-.021.062-.042.083-.062A.287.287,0,0,0,412.4,390.462Z" transform="translate(-326.815 -309.37)" fill="none"/>
  <path id="Path_592" data-name="Path 592" d="M413.3,389.762c.021-.021.062-.042.083-.062A.286.286,0,0,0,413.3,389.762Z" transform="translate(-327.528 -308.815)" fill="none"/>
  <path id="Path_593" data-name="Path 593" d="M409.9,392.983a.287.287,0,0,0,.062-.083C409.942,392.921,409.921,392.962,409.9,392.983Z" transform="translate(-324.834 -311.351)" fill="none"/>
  <path id="Path_594" data-name="Path 594" d="M414.2,388.962c.021-.021.062-.042.083-.062C414.262,388.942,414.221,388.942,414.2,388.962Z" transform="translate(-328.241 -308.182)" fill="none"/>
  <path id="Path_595" data-name="Path 595" d="M410.7,392.083a.286.286,0,0,0,.062-.083A.287.287,0,0,1,410.7,392.083Z" transform="translate(-325.468 -310.638)" fill="none"/>
  <path id="Path_596" data-name="Path 596" d="M411.5,391.262a.286.286,0,0,1,.083-.062C411.562,391.221,411.521,391.241,411.5,391.262Z" transform="translate(-326.102 -310.004)" fill="none"/>
  <path id="Path_597" data-name="Path 597" d="M415.443,429.674a4,4,0,0,1-.643-.374A5.148,5.148,0,0,0,415.443,429.674Z" transform="translate(-328.717 -340.197)" fill="none"/>
  <path id="Path_598" data-name="Path 598" d="M404.3,406a.187.187,0,0,1,.021-.1A.9.9,0,0,1,404.3,406Z" transform="translate(-320.396 -321.654)" fill="none"/>
  <path id="Path_599" data-name="Path 599" d="M404.2,407.383V407.3C404.221,407.321,404.2,407.342,404.2,407.383Z" transform="translate(-320.317 -322.763)" fill="none"/>
  <path id="Path_600" data-name="Path 600" d="M413.394,428.291A4.782,4.782,0,0,1,413,428C413.124,428.083,413.249,428.187,413.394,428.291Z" transform="translate(-327.29 -339.167)" fill="none"/>
  <path id="Path_601" data-name="Path 601" d="M405.3,401.2c0-.041.021-.062.041-.1C405.321,401.142,405.321,401.162,405.3,401.2Z" transform="translate(-321.188 -317.85)" fill="none"/>
  <path id="Path_602" data-name="Path 602" d="M404.5,404.8c0-.042.021-.062.021-.1A.9.9,0,0,0,404.5,404.8Z" transform="translate(-320.554 -320.703)" fill="none"/>
  <path id="Path_603" data-name="Path 603" d="M404.7,403.6c0-.042.021-.062.021-.1A.225.225,0,0,1,404.7,403.6Z" transform="translate(-320.713 -319.752)" fill="none"/>
  <path id="Path_604" data-name="Path 604" d="M405,402.4c0-.042.021-.062.021-.1C405.021,402.341,405,402.362,405,402.4Z" transform="translate(-320.951 -318.801)" fill="none"/>
  <path id="Path_605" data-name="Path 605" d="M159.263,11.334v-1A43.419,43.419,0,0,1,154.8,8.906a14.525,14.525,0,0,1-7.72-7.928c-.1-.27-.374-.623-.6-.643A18.942,18.942,0,0,0,144.3.314V92.458c0,.332.042.664.062,1h14.921c0-.394-.021-.789-.021-1.183Z" transform="translate(-114.353 -0.221)" fill="#111"/>
  <path id="Path_606" data-name="Path 606" d="M241.722,89.157l-.062.021-.706-1.6-1.2-2.7-1.079-2.428-.726-1.619,1.577-.809a1.933,1.933,0,0,1,.207-.1c.166-.083.353-.187.581-.291,2.345-1.038,4.669-2.075,7.014-3.113V42.484c0-.291-.042-.581-.062-.913h-1.121c-3.466-.042-5.458-2.055-5.479-5.5V23.786c0-1.619.56-2.158,2.2-2.158h4.379V0a6.687,6.687,0,0,1-.913,0c-1.183-.228-1.723.311-2.179,1.39a13.236,13.236,0,0,1-6.371,6.724,55.51,55.51,0,0,1-5.458,2.055V91.938c0,.394,0,.789-.021,1.183h11.435l-1.494-2.968Z" transform="translate(-184.091 0.049)" fill="#111"/>
  <path id="Path_607" data-name="Path 607" d="M282.743,417.4a5.557,5.557,0,0,1-.643.228A5.564,5.564,0,0,0,282.743,417.4Z" transform="translate(-223.556 -330.767)"/>
  <path id="Path_608" data-name="Path 608" d="M275.6,404.019c-.56-1.266-1.121-2.532-1.7-3.819C274.481,401.487,275.041,402.753,275.6,404.019Z" transform="translate(-217.058 -317.136)"/>
  <path id="Path_609" data-name="Path 609" d="M40.743,6.16A1.6,1.6,0,0,0,40.1,7.55q.031,10.864.021,21.728c0,.291.021.581.042.913H45.1v-8.2h3.3V92.43c0,.332-.042.664-.062,1h10c.021-.27.042-.54.042-.809V.328A25.237,25.237,0,0,0,40.743,6.16Z" transform="translate(-31.778 -0.235)" fill="#111"/>
  <path id="Path_610" data-name="Path 610" d="M367.021,368.162c0-.021-.021-.042-.021-.062A.161.161,0,0,0,367.021,368.162Z" transform="translate(-290.837 -291.698)"/>
  <path id="Path_611" data-name="Path 611" d="M367.641,369.462c-.021-.021-.021-.041-.041-.062C367.621,369.421,367.621,369.442,367.641,369.462Z" transform="translate(-291.312 -292.728)"/>
  <path id="Path_612" data-name="Path 612" d="M367.242,368.762c-.021-.021-.021-.042-.042-.062C367.221,368.721,367.242,368.742,367.242,368.762Z" transform="translate(-290.995 -292.174)"/>
  <path id="Path_613" data-name="Path 613" d="M330.582,70.938V22.978c0-.332.021-.643.042-.975h3.32v8.177h4.877c.021-.228.041-.374.041-.519q0-11.175-.021-22.372a1.641,1.641,0,0,0-.54-1.038,24.029,24.029,0,0,0-9.194-4.96,25.067,25.067,0,0,0-8.426-.934v21.6c1.619,0,3.175-.021,4.711,0a1.637,1.637,0,0,1,1.826,1.806c.021,4.462.042,8.9-.021,13.365a4.8,4.8,0,0,1-4.441,4.711c-.685.062-1.37.083-2.158.145V75.4c2.387-1.058,4.794-2.117,7.181-3.175Z" transform="translate(-254.066 -0.243)" fill="#111"/>
  <path id="Path_614" data-name="Path 614" d="M320.721,429.585h10c-.021-.29-.062-.6-.062-.892V424.5q-4.981,2.241-9.961,4.462C320.7,429.169,320.721,429.377,320.721,429.585Z" transform="translate(-254.145 -336.393)" fill="#111"/>
  <path id="Path_615" data-name="Path 615" d="M368.042,369.962c-.021-.021-.041-.042-.041-.062A.258.258,0,0,0,368.042,369.962Z" transform="translate(-291.629 -293.125)"/>
  <path id="Path_616" data-name="Path 616" d="M366.4,363.394a1.208,1.208,0,0,1,.062-.394,1.123,1.123,0,0,0-.062.394v0Z" transform="translate(-290.361 -287.657)"/>
  <path id="Path_617" data-name="Path 617" d="M368.5,370.5l.062.062h0Q368.5,370.531,368.5,370.5Z" transform="translate(-292.025 -293.6)"/>
  <path id="Path_618" data-name="Path 618" d="M366.7,361.157a1.183,1.183,0,0,1,.228-.457A1.348,1.348,0,0,0,366.7,361.157Z" transform="translate(-290.599 -285.834)"/>
  <path id="Path_619" data-name="Path 619" d="M368.7,359.8Z" transform="translate(-292.184 -285.121)"/>
  <path id="Path_620" data-name="Path 620" d="M366.465,365.762V365.7C366.444,365.721,366.465,365.741,366.465,365.762Z" transform="translate(-290.405 -289.796)"/>
  <path id="Path_621" data-name="Path 621" d="M366.521,366.583c0-.021-.021-.042-.021-.083C366.521,366.521,366.521,366.542,366.521,366.583Z" transform="translate(-290.44 -290.43)"/>
  <path id="Path_622" data-name="Path 622" d="M366.721,367.283c0-.021-.021-.042-.021-.083C366.7,367.242,366.721,367.262,366.721,367.283Z" transform="translate(-290.599 -290.985)"/>
  <path id="Path_623" data-name="Path 623" d="M4.9,50.1a20.893,20.893,0,0,0-3.777,7.367C.664,59.19.374,60.933,0,62.676v7.1H4.9Z" transform="translate(0 -39.693)" fill="#111"/>
  <path id="Path_624" data-name="Path 624" d="M0,163.879H13.24V160.6H0Z" transform="translate(0 -127.261)" fill="#111"/>
  <path id="Path_625" data-name="Path 625" d="M288.542,132.367a1.475,1.475,0,0,0,1.639,1.473q3.269.062,6.537,0a1.6,1.6,0,0,0,1.722-1.7c.021-3.777,0-7.575-.021-11.352,0-.042-.062-.1-.1-.187H288.5C288.521,124.564,288.5,128.465,288.542,132.367Z" transform="translate(-228.628 -95.562)" fill="#111"/>
  <path id="Path_626" data-name="Path 626" d="M194.823.6H173.8c2.324,4.192,5.749,6.516,10.439,6.537C188.97,7.158,192.436,4.854,194.823.6Z" transform="translate(-137.731 -0.465)" fill="#111"/>
  <path id="Path_627" data-name="Path 627" d="M425.1,50.7V70.1h4.835C430.807,63.214,428.192,52.817,425.1,50.7Z" transform="translate(-336.879 -40.168)" fill="#111"/>
  <path id="Path_628" data-name="Path 628" d="M384.9,164.075h13.2V160.9H384.9Z" transform="translate(-305.022 -127.498)" fill="#111"/>
  <path id="Path_629" data-name="Path 629" d="M325.059,377.426c-.021-.042-.021-.062-.042-.1a1.269,1.269,0,0,0-.1-.249c-.021-.042-.021-.083-.042-.1-.042-.1-.083-.187-.125-.29,0-.021-.021-.042-.021-.062-.062-.1-.1-.228-.166-.332a.157.157,0,0,1-.041-.083,1.549,1.549,0,0,0-.145-.249c-.021-.042-.042-.062-.062-.1a2.175,2.175,0,0,0-.145-.228.108.108,0,0,1-.041-.083,3.522,3.522,0,0,0-.208-.29c-.021-.021-.021-.042-.042-.062-.062-.083-.125-.145-.187-.228-.021-.021-.042-.062-.083-.083a1.868,1.868,0,0,1-.187-.207l-.062-.062a3.206,3.206,0,0,0-.27-.249l-.021-.021a3.114,3.114,0,0,0-.27-.228c-.021-.021-.062-.042-.083-.062-.062-.062-.145-.1-.208-.166-.021-.021-.062-.042-.083-.062-.083-.062-.187-.125-.27-.187l-.021-.021-.311-.187a.157.157,0,0,0-.083-.042,2.258,2.258,0,0,1-.228-.124c-.042-.021-.062-.042-.1-.062l-.249-.125c-.021-.021-.041-.021-.062-.042-.1-.042-.228-.1-.332-.145-.021,0-.042-.021-.083-.021-.083-.041-.187-.062-.27-.1-.041-.021-.062-.021-.1-.042-.083-.021-.166-.062-.249-.083-.042,0-.062-.021-.1-.021-.124-.042-.228-.062-.353-.1h-.041l-.311-.062a.9.9,0,0,1-.1-.021c-.083-.021-.166-.021-.249-.042a.9.9,0,0,1-.1-.021c-.1-.021-.228-.021-.332-.042h-.021c-.125,0-.249-.021-.353-.021h-.519a.706.706,0,0,0-.207.021.4.4,0,0,0-.166.021c-.062,0-.145.021-.208.021s-.125.021-.166.021c-.083.021-.145.021-.208.042-.062,0-.125.021-.166.021a.884.884,0,0,1-.228.042c-.062.021-.1.021-.166.041-.083.021-.145.042-.228.062-.041.021-.1.021-.145.042-.083.021-.166.062-.249.083-.042.021-.083.021-.125.042-.125.041-.249.1-.374.145-4.732,2.1-9.484,4.192-14.216,6.267-1.577.685-3.154,1.39-4.752,2.075-2.407,1.058-4.835,2.1-7.264,3.154.581,1.162,1.141,2.262,1.7,3.362h.311a3.173,3.173,0,0,1,.56-.353l17.059-7.658c.083-.042.166-.062.249-.1.021,0,.062-.021.083-.021a.488.488,0,0,1,.166-.042c.042,0,.062-.021.083-.021.041,0,.083-.021.145-.021h.394c.062,0,.1.021.166.021.021,0,.021,0,.042.021a.3.3,0,0,1,.125.042c.021,0,.021,0,.041.021.042.021.1.042.145.062h.021a.207.207,0,0,1,.1.083c.021,0,.021.021.041.021l.083.083.021.021c.041.042.062.083.1.125a.073.073,0,0,1,.021.042l.062.124a.073.073,0,0,0,.021.042,1.006,1.006,0,0,1,.062.145.02.02,0,0,0,.021.021.6.6,0,0,1,.042.187v.062c0,.041.021.1.021.166v.062c0,.062.021.145.021.228a6.949,6.949,0,0,0,3.092,5.23c.166.1.332.228.5.311.083.042.166.1.249.145.166.083.332.166.519.249a6.329,6.329,0,0,0,1.349.415c.125.021.27.042.394.062a.263.263,0,0,1,.125.021c.083,0,.166.021.27.021h.145a.777.777,0,0,1,.228.021h.913c.083,0,.145-.021.228-.021a.353.353,0,0,0,.145-.021c.083,0,.145-.021.228-.021.041,0,.083-.021.145-.021.083-.021.166-.021.249-.042a.9.9,0,0,0,.1-.021,2.171,2.171,0,0,0,.353-.083h.021c.1-.021.208-.062.332-.083.041-.021.083-.021.1-.042a1.012,1.012,0,0,0,.228-.083.3.3,0,0,1,.125-.042,1.429,1.429,0,0,0,.208-.083l.125-.062c.062-.021.125-.062.187-.083l.124-.062a.844.844,0,0,0,.187-.1l.125-.062c.062-.041.124-.062.187-.1a.456.456,0,0,0,.1-.062c.062-.042.145-.083.207-.125.021-.021.062-.042.083-.062a2.519,2.519,0,0,0,.291-.208c.021-.021.042-.042.062-.042.062-.062.145-.1.208-.166.041-.021.062-.062.1-.083.062-.041.1-.1.166-.145l.1-.1.145-.145.1-.1.145-.145.1-.1a1.04,1.04,0,0,1,.145-.166.453.453,0,0,1,.083-.1,1.136,1.136,0,0,1,.145-.187c.021-.042.062-.062.083-.1.062-.083.1-.145.166-.228.021-.021.021-.042.041-.062l.187-.311c.021-.021.042-.062.062-.083.042-.083.083-.145.124-.228l.062-.125c.042-.062.062-.145.1-.208a1.01,1.01,0,0,0,.062-.145c.021-.062.062-.145.083-.207.021-.042.042-.1.062-.145.021-.062.062-.145.083-.208.021-.041.042-.1.062-.145a1.012,1.012,0,0,1,.083-.228.384.384,0,0,0,.041-.145l.062-.249c.021-.042.021-.083.042-.125a2.41,2.41,0,0,0,.083-.374,2.536,2.536,0,0,1,.145-.353v-2.179c-.1-.311-.208-.623-.291-.955A.58.58,0,0,1,325.059,377.426Zm-3.673,6.122c-.021.021-.062.042-.083.083-.041.021-.062.062-.1.083-.021.021-.062.041-.083.083-.041.021-.062.062-.1.083-.021.021-.062.042-.083.062-.041.021-.062.062-.1.083a.451.451,0,0,1-.1.062.364.364,0,0,0-.1.083c-.042.021-.062.041-.1.062a.453.453,0,0,0-.1.062c-.041.021-.062.041-.1.062a.453.453,0,0,0-.1.062c-.041.021-.062.041-.1.062l-.125.062c-.042.021-.062.042-.1.042l-.125.062c-.041.021-.083.021-.1.042a.3.3,0,0,1-.125.041c-.042.021-.083.021-.125.042s-.083.021-.125.042-.083.021-.125.041-.083.021-.125.042c-.041,0-.083.021-.125.021s-.083.021-.124.021-.083.021-.125.021-.083.021-.125.021-.083.021-.124.021-.083.021-.125.021h-.519a5.3,5.3,0,0,1-1.743-.311c-.145-.062-.311-.124-.457-.187a3.994,3.994,0,0,1-.643-.374,4.808,4.808,0,0,1-.394-.291,5.1,5.1,0,0,1-1.826-3.943v-.353a.576.576,0,0,1,.021-.187.187.187,0,0,1,.021-.1c0-.062.021-.1.021-.166,0-.042.021-.062.021-.1s.021-.1.021-.145.021-.062.021-.1c.021-.042.021-.1.042-.145,0-.042.021-.062.021-.1.021-.042.021-.1.042-.145,0-.042.021-.062.042-.1a.384.384,0,0,0,.042-.145c.021-.042.021-.062.042-.083a1.021,1.021,0,0,0,.062-.145c.021-.042.021-.062.041-.083l.062-.125c.021-.021.021-.062.042-.083l.062-.125a.157.157,0,0,0,.042-.083.433.433,0,0,1,.083-.124c.021-.021.041-.062.062-.083.021-.042.062-.083.083-.125.021-.021.042-.062.062-.083.021-.041.062-.083.083-.125.021-.021.042-.062.062-.083a.453.453,0,0,1,.083-.1.287.287,0,0,0,.062-.083c.041-.041.062-.083.1-.1a.285.285,0,0,0,.062-.083l.1-.1a.285.285,0,0,1,.083-.062l.1-.1c.021-.021.062-.041.083-.062.042-.021.062-.062.1-.083.021-.021.062-.042.083-.062a.456.456,0,0,0,.1-.083c.021-.021.062-.042.083-.062.042-.021.083-.062.125-.083.021-.021.062-.041.083-.062a.435.435,0,0,0,.125-.083c.042-.021.062-.041.1-.062l.125-.062c.042-.021.062-.041.1-.041l.124-.062c.042-.021.062-.021.1-.042l.125-.062c.042-.021.062-.021.1-.042a.3.3,0,0,1,.125-.042c.041-.021.083-.021.1-.042.042-.021.083-.021.125-.042s.083-.021.125-.042.083-.021.125-.042c.041,0,.083-.021.124-.021s.083-.021.125-.021.083-.021.125-.021.083-.021.124-.021.083-.021.125-.021.083-.021.125-.021h.519a4.906,4.906,0,0,1,2.2.519,5.09,5.09,0,0,1,2.864,4.607v.332a.778.778,0,0,1-.021.208.125.125,0,0,1-.021.083c0,.062-.021.1-.021.166,0,.042-.021.062-.021.1s-.021.1-.021.145-.021.062-.021.1a1.306,1.306,0,0,0-.042.145c0,.042-.021.062-.042.1s-.021.083-.041.125-.021.062-.042.1-.021.083-.041.124-.021.062-.042.1l-.062.125c-.021.042-.021.062-.041.1l-.062.125c-.021.042-.042.062-.042.1l-.062.125c-.021.042-.042.062-.062.1l-.062.125c-.021.021-.042.062-.062.083a.435.435,0,0,1-.083.125c-.021.021-.042.062-.062.083a.453.453,0,0,1-.083.1c-.021.021-.041.062-.062.083a.453.453,0,0,1-.083.1c-.021.021-.041.062-.083.083-.021.041-.062.062-.083.1l-.083.083C321.448,383.486,321.427,383.507,321.386,383.548Z" transform="translate(-228.786 -295.026)" fill="#111"/>
  <path id="Path_630" data-name="Path 630" d="M318.621,374.569c-.042-.1-.062-.208-.1-.311-.062-.208-.125-.394-.166-.581a9.161,9.161,0,0,0-3.258-4.856l-3.4-.789a10.916,10.916,0,0,0-2.553-.332,6.343,6.343,0,0,0-2.387.436c-1.266.5-2.532,1.079-3.777,1.639-.685.311-1.37.623-2.075.934-6.35,2.781-12.825,5.583-19.072,8.3l-1.722.747c-.187.083-.353.145-.519.208a1.576,1.576,0,0,0-.228.083l-1.557.581.519,1.017,1.494,2.968.208.394.519,1.017h1.992l.457-.291a.921.921,0,0,0,.228-.166c.041-.021.083-.062.125-.083,1.121-.5,2.262-1.017,3.383-1.515q4.981-2.241,9.961-4.462c1.121-.5,2.241-1,3.362-1.515a8.478,8.478,0,0,0,2.221,4.815,8.807,8.807,0,0,0,5,2.885,10.6,10.6,0,0,0,1.805.145,9.579,9.579,0,0,0,9.422-7.658c.021-.042.042-.1.062-.145l.145-.353v-2.864Zm-1.806,2.719a2.529,2.529,0,0,0-.145.353c-.021.125-.062.249-.083.374-.021.042-.021.083-.042.125l-.062.249c-.021.041-.021.1-.041.145a1.014,1.014,0,0,1-.083.228c-.021.041-.042.1-.062.145-.021.062-.062.145-.083.207-.021.042-.042.1-.062.145-.021.062-.062.145-.083.208a1.01,1.01,0,0,0-.062.145c-.042.062-.062.145-.1.208l-.062.125c-.042.083-.083.145-.125.228-.021.021-.041.062-.062.083l-.187.311c-.021.021-.021.042-.041.062a2.161,2.161,0,0,1-.166.228.364.364,0,0,1-.083.1,1.145,1.145,0,0,1-.145.187.452.452,0,0,1-.083.1,1.039,1.039,0,0,1-.145.166l-.1.1-.145.145-.1.1-.145.145-.1.1c-.062.042-.1.1-.166.145-.041.021-.062.062-.1.083-.062.062-.145.1-.208.166-.021.021-.042.042-.062.042a3.521,3.521,0,0,1-.291.208c-.021.021-.062.042-.083.062-.062.042-.145.083-.207.125a.451.451,0,0,0-.1.062c-.062.042-.125.062-.187.1l-.125.062c-.062.042-.125.062-.187.1l-.125.062c-.062.021-.125.062-.187.083l-.125.062a2.148,2.148,0,0,1-.208.083.3.3,0,0,1-.125.042,1.012,1.012,0,0,0-.228.083c-.041.021-.083.021-.1.041a1.554,1.554,0,0,1-.332.083h-.021c-.125.021-.228.062-.353.083a.9.9,0,0,0-.1.021c-.083.021-.166.021-.249.042-.042,0-.083.021-.145.021a.853.853,0,0,1-.228.021c-.042,0-.1.021-.145.021-.083,0-.145.021-.228.021h-.913a.851.851,0,0,1-.228-.021h-.145c-.083,0-.166-.021-.27-.021a.264.264,0,0,1-.125-.021c-.125-.021-.27-.042-.394-.062a5.332,5.332,0,0,1-1.349-.415c-.166-.083-.353-.166-.519-.249-.083-.042-.166-.1-.249-.145l-.5-.311a7.145,7.145,0,0,1-3.092-5.23.851.851,0,0,0-.021-.228v-.062c0-.062-.021-.1-.021-.166v-.062c-.021-.062-.021-.125-.042-.187,0-.021,0-.021-.021-.021-.021-.042-.042-.1-.062-.145a.072.072,0,0,0-.021-.042l-.062-.125c0-.021-.021-.021-.021-.042a.547.547,0,0,0-.1-.125l-.021-.021-.083-.083c-.021-.021-.021-.021-.042-.021a.452.452,0,0,1-.1-.083h-.021A1.017,1.017,0,0,0,301,376c-.021,0-.021-.021-.041-.021-.041-.021-.083-.021-.124-.042-.021,0-.021,0-.042-.021a.457.457,0,0,0-.166-.021h-.394c-.042,0-.083.021-.145.021-.021,0-.062.021-.083.021-.062.021-.1.021-.166.042-.021,0-.062.021-.083.021a1.269,1.269,0,0,0-.249.1l-17.059,7.658a3.174,3.174,0,0,0-.56.353h-.311c-.56-1.1-1.121-2.2-1.7-3.362,2.428-1.058,4.856-2.1,7.264-3.154,1.577-.685,3.154-1.39,4.752-2.075q7.129-3.113,14.216-6.267a2.777,2.777,0,0,1,.374-.145c.042-.021.083-.021.125-.042.083-.021.166-.062.249-.083.042-.021.1-.021.145-.042.083-.021.145-.041.228-.062.062-.021.1-.021.166-.042a.883.883,0,0,1,.228-.042.456.456,0,0,1,.166-.021c.062-.021.145-.021.208-.041.062,0,.125-.021.166-.021.062,0,.145-.021.207-.021a.405.405,0,0,0,.166-.021.7.7,0,0,0,.207-.021h.519c.124,0,.249.021.353.021h.021a1.814,1.814,0,0,1,.332.042.155.155,0,0,1,.1.021c.083.021.166.021.249.041a.9.9,0,0,1,.1.021l.311.062h.041a2.27,2.27,0,0,1,.353.1c.042,0,.062.021.1.021.083.021.166.062.249.083.041.021.062.021.1.042.083.042.187.062.27.1.021,0,.042.021.083.021.1.042.228.1.332.145.021.021.041.021.062.042l.249.125c.042.021.062.042.1.062a2.248,2.248,0,0,1,.228.124.157.157,0,0,0,.083.041l.311.187.021.021c.083.062.187.125.27.187.021.021.062.042.083.062.062.062.145.1.208.166.021.021.062.041.083.062a3.09,3.09,0,0,0,.27.228l.021.021a3.2,3.2,0,0,0,.27.249l.062.062a1.865,1.865,0,0,1,.187.208c.021.021.042.062.083.083.062.083.125.145.187.228.021.021.021.042.042.062a2.524,2.524,0,0,1,.207.291.108.108,0,0,1,.042.083c.062.083.1.166.145.228.021.042.042.062.062.1.042.083.1.166.145.249a.157.157,0,0,1,.042.083c.062.1.1.228.166.332,0,.021.021.042.021.062.042.1.083.187.125.291.021.042.021.083.041.1.042.083.062.166.1.249.021.042.021.062.041.1a2.507,2.507,0,0,1,.1.374c.083.311.187.643.291.955A8.6,8.6,0,0,1,316.816,377.288Z" transform="translate(-220.148 -291.381)" fill="#fff"/>
  <path id="Path_631" data-name="Path 631" d="M413.424,392.846c.021-.021.042-.062.083-.083.021-.042.062-.062.083-.1.021-.021.041-.062.062-.083a.455.455,0,0,1,.083-.1c.021-.021.042-.062.062-.083a.434.434,0,0,1,.083-.124c.021-.021.042-.062.062-.083l.062-.125c.021-.042.042-.062.062-.1l.062-.124c.021-.042.042-.062.042-.1l.062-.125c.021-.042.021-.062.042-.1l.062-.125c.021-.042.021-.062.042-.1s.021-.083.042-.124.021-.062.042-.1.021-.083.042-.125c0-.042.021-.062.041-.1a1.3,1.3,0,0,0,.042-.145c0-.042.021-.062.021-.1s.021-.1.021-.145.021-.062.021-.1c0-.062.021-.1.021-.166a.125.125,0,0,1,.021-.083c0-.062.021-.125.021-.208v-.332a5.113,5.113,0,0,0-2.864-4.607,4.906,4.906,0,0,0-2.2-.519h-.519a288.656,288.656,0,0,0-.249.042c-.042,0-.083.021-.125.021s-.083.021-.125.021-.083.021-.125.021-.083.021-.125.021c-.041.021-.083.021-.124.042s-.083.021-.125.042-.083.021-.125.042-.083.021-.1.041a.3.3,0,0,1-.125.042c-.042.021-.083.021-.1.041l-.125.062c-.041.021-.062.021-.1.042l-.125.062c-.041.021-.062.042-.1.042l-.125.062c-.042.021-.062.042-.1.062a.433.433,0,0,0-.125.083c-.021.021-.062.041-.083.062-.042.021-.083.062-.125.083-.021.021-.062.042-.083.062a.451.451,0,0,0-.1.083c-.021.021-.062.042-.083.062-.042.021-.062.062-.1.083-.021.021-.062.041-.083.062l-.1.1a.284.284,0,0,1-.083.062l-.1.1a.287.287,0,0,0-.062.083l-.1.1a.286.286,0,0,0-.062.083c-.041.042-.062.083-.083.1a.285.285,0,0,0-.062.083c-.021.042-.062.083-.083.125-.021.021-.042.062-.062.083-.021.042-.062.083-.083.125-.021.021-.042.062-.062.083a.434.434,0,0,1-.083.125.157.157,0,0,0-.042.083l-.062.125c-.021.021-.021.062-.042.083l-.062.125c-.021.021-.021.062-.042.083a1.011,1.011,0,0,0-.062.145c-.021.021-.021.062-.042.083a.384.384,0,0,0-.042.145c-.021.042-.021.062-.042.1s-.021.1-.042.145c0,.042-.021.062-.021.1-.021.042-.021.1-.041.145,0,.042-.021.062-.021.1s-.021.1-.021.145-.021.062-.021.1c0,.062-.021.1-.021.166a.187.187,0,0,1-.021.1.576.576,0,0,1-.021.187v.353a5.1,5.1,0,0,0,1.826,3.943,2.755,2.755,0,0,0,.394.291,3.992,3.992,0,0,0,.643.374,3,3,0,0,0,.457.187,4.895,4.895,0,0,0,1.743.311h.519c.042,0,.083-.021.124-.021a.263.263,0,0,0,.125-.021c.042,0,.083-.021.125-.021s.083-.021.125-.021.083-.021.125-.021.083-.021.125-.021c.041-.021.083-.021.124-.041s.083-.021.125-.042.083-.021.124-.042.083-.021.125-.042.083-.021.125-.042.083-.021.1-.042l.124-.062a.351.351,0,0,1,.1-.041l.125-.062c.041-.021.062-.042.1-.062a.449.449,0,0,0,.1-.062c.042-.021.062-.042.1-.062a.456.456,0,0,0,.1-.062c.042-.021.062-.042.1-.062a.365.365,0,0,0,.1-.083c.042-.021.062-.042.1-.062s.062-.062.1-.083c.021-.021.062-.042.083-.062.042-.021.062-.062.1-.083.021-.021.062-.041.083-.083.041-.021.062-.062.1-.083.021-.021.062-.042.083-.083a.207.207,0,0,0,.083-.1l.083-.083A.36.36,0,0,1,413.424,392.846Zm-3.756.892h-.1a4.2,4.2,0,0,1-3.072-7.139,4.218,4.218,0,0,1,3.009-1.307h.021a4.238,4.238,0,0,1,4.254,4.213A4.283,4.283,0,0,1,409.668,393.739Z" transform="translate(-320.554 -304.615)" fill="#fff"/>
  <path id="Path_632" data-name="Path 632" d="M273.541,351.478c.27-.1.457-.166.643-.228q10.4-4.514,20.794-9.048c1.224-.54,2.449-1.1,3.673-1.639.747-.332,1.473-.643,2.221-.934h0c.124-.041.228-.083.353-.125.041-.021.083-.021.124-.042a1.172,1.172,0,0,0,.249-.083c.042-.021.1-.021.145-.042.083-.021.145-.041.228-.062.062-.021.1-.021.166-.042s.145-.021.208-.042c.062,0,.1-.021.166-.021.062-.021.145-.021.208-.042.062,0,.124-.021.166-.021.062,0,.145-.021.208-.021a.575.575,0,0,0,.187-.021.707.707,0,0,0,.208-.021h1.121a.707.707,0,0,1,.208.021.457.457,0,0,1,.166.021c.062,0,.145.021.208.021s.1.021.166.021c.083,0,.145.021.228.021.062,0,.1.021.166.021.083.021.145.021.228.041.042,0,.1.021.145.021a1.051,1.051,0,0,0,.27.042c.041,0,.083.021.124.021.125.021.27.062.394.083-.249-.436-.457-.809-.664-1.162s-.394-.685-.6-1.038c-.062-.124-.145-.228-.208-.353-.021-.042-.042-.062-.062-.1a1.732,1.732,0,0,1-.166-.249c-.021-.021-.042-.062-.062-.083-.083-.1-.145-.208-.228-.311-.021-.021-.042-.041-.042-.062a1.088,1.088,0,0,0-.208-.228c-.021-.021-.042-.062-.083-.083-.062-.083-.145-.145-.208-.228l-.042-.042a1.426,1.426,0,0,0-.27-.228.286.286,0,0,0-.083-.062c-.062-.062-.145-.1-.207-.166-.021-.021-.062-.041-.083-.062-.083-.062-.187-.125-.291-.187l-.021-.021a1.12,1.12,0,0,0-.27-.145.158.158,0,0,0-.083-.041,2.266,2.266,0,0,1-.228-.125c-.021-.021-.042-.021-.062-.041l-.311-.125c-.021,0-.042-.021-.062-.021-.083-.021-.166-.062-.249-.083-.042,0-.062-.021-.1-.021a1.529,1.529,0,0,1-.291-.083h-.042c-.1-.021-.208-.042-.332-.062a.125.125,0,0,1-.083-.021,1.009,1.009,0,0,0-.249-.021h-.083c-.1,0-.228-.021-.332-.021h-.415c-.083,0-.145.021-.228.021a.263.263,0,0,0-.125.021.748.748,0,0,0-.228.041.187.187,0,0,0-.1.021c-.1.021-.228.042-.332.062-.021,0-.021,0-.042.021a1.528,1.528,0,0,0-.291.083c-.042.021-.083.021-.1.042a.745.745,0,0,0-.228.083c-.041.021-.083.021-.125.042-.083.021-.166.062-.249.083-.042.021-.083.021-.1.042-.125.042-.228.1-.353.145q-12.856,5.7-25.713,11.373c-.228.1-.436.228-.664.353.187.436.394.872.581,1.307C272.421,348.946,272.981,350.212,273.541,351.478ZM291.1,339.918a1.182,1.182,0,0,1,.228-.457c.062-.062.1-.125.166-.187a.02.02,0,0,0,.021-.021.631.631,0,0,1,.145-.1.788.788,0,0,1,.27-.125,1.208,1.208,0,0,1,.394-.062h.145a.157.157,0,0,1,.083.021.076.076,0,0,1,.062.021c.021,0,.042.021.083.021.021,0,.042.021.062.021s.042.021.062.042c.021,0,.042.021.062.021.021.021.042.021.062.041s.042.021.062.042.042.021.062.041.042.021.062.042l.062.062c.021.021.042.041.062.041l.062.062.062.062.062.062c.021.021.042.042.042.062.021.021.041.042.041.062.021.021.021.042.042.062s.021.042.042.083c.021.021.021.041.041.062s.021.062.042.083c0,.021.021.042.021.062.021.021.021.062.042.083,0,.021.021.042.021.062s.021.062.021.083.021.042.021.062a.9.9,0,0,0,.021.1v.187c0,.083-.021.187-.021.27a.591.591,0,0,1-.083.249,1.133,1.133,0,0,1-.374.5,1.26,1.26,0,0,1-.208.145l-.125.062a2.5,2.5,0,0,1-.374.1h-.311a.125.125,0,0,1-.083-.021.076.076,0,0,1-.062-.021c-.021,0-.042-.021-.083-.021-.021,0-.042-.021-.062-.021s-.042-.021-.062-.021-.042-.021-.062-.021-.041-.021-.062-.042-.042-.021-.062-.042-.042-.021-.062-.042-.042-.021-.062-.042-.042-.021-.062-.042-.041-.021-.062-.041l-.042-.042h0l-.062-.062c-.021-.021-.021-.041-.042-.062s-.041-.041-.041-.062c-.021-.021-.021-.042-.042-.062s-.021-.041-.042-.062-.021-.041-.042-.062-.021-.042-.042-.062a.076.076,0,0,1-.021-.062c0-.021-.021-.041-.021-.062s-.021-.041-.021-.083c0-.021-.021-.042-.021-.083,0-.021-.021-.062-.021-.083s-.021-.041-.021-.083a.187.187,0,0,0-.021-.1v-.249A.8.8,0,0,1,291.1,339.918Z" transform="translate(-214.997 -264.596)" fill="#111"/>
  <path id="Path_633" data-name="Path 633" d="M261.085,337.773a1.925,1.925,0,0,1-.208.1l-1.577.809.726,1.619,1.079,2.428,1.2,2.7.706,1.6.062-.021,1.557-.581c.083-.021.145-.062.228-.083.166-.062.332-.125.519-.208l1.722-.747c6.247-2.719,12.722-5.541,19.072-8.3.706-.311,1.39-.623,2.075-.934,1.224-.56,2.511-1.141,3.777-1.639a6.421,6.421,0,0,1,2.387-.436,10.913,10.913,0,0,1,2.553.332l3.4.789.789.187L299,331.671l-.457-.789c-.291-.5-.56-.955-.809-1.39a7.645,7.645,0,0,0-6.7-4.192h0a9.4,9.4,0,0,0-3.694.83l-5.375,2.387-2.8,1.245c-2.387,1.058-4.794,2.117-7.181,3.175-1.121.5-2.241,1-3.362,1.473-2.345,1.038-4.669,2.075-7.015,3.113C261.438,337.586,261.251,337.69,261.085,337.773Zm1.328,1.411q12.856-5.7,25.713-11.373a2.53,2.53,0,0,1,.353-.145c.042-.021.083-.021.1-.041.083-.021.166-.062.249-.083.042-.021.083-.021.125-.041a.745.745,0,0,0,.228-.083c.042-.021.083-.021.1-.042.1-.021.208-.062.291-.083.021,0,.021,0,.042-.021.1-.021.228-.042.332-.062a.187.187,0,0,0,.1-.021c.083-.021.166-.021.228-.042a.263.263,0,0,0,.125-.021c.083,0,.145-.021.228-.021h.436a1.68,1.68,0,0,1,.332.021h.083c.083,0,.166.021.249.021a.125.125,0,0,1,.083.021c.1.021.228.042.332.062h.042a1.532,1.532,0,0,1,.291.083c.042,0,.062.021.1.021.083.021.166.062.249.083.021,0,.042.021.062.021l.311.125c.021.021.042.021.062.042a2.276,2.276,0,0,1,.228.125c.021.021.062.021.083.042.083.042.187.1.27.145l.021.021c.1.062.187.125.291.187.021.021.062.042.083.062.062.062.145.1.208.166a.288.288,0,0,0,.083.062c.083.083.187.145.27.228l.041.042a1.087,1.087,0,0,1,.208.228c.021.021.042.062.083.083a2.064,2.064,0,0,0,.208.228c.021.021.042.042.042.062a2.978,2.978,0,0,1,.228.311c.021.021.041.062.062.083a1.736,1.736,0,0,1,.166.249c.021.042.041.062.062.1a1.966,1.966,0,0,1,.207.353c.187.332.394.664.6,1.038.208.353.436.747.664,1.162-.125-.021-.27-.062-.394-.083-.041,0-.083-.021-.125-.021a1.053,1.053,0,0,0-.27-.042c-.042,0-.1-.021-.145-.021-.083-.021-.145-.021-.228-.042-.062,0-.1-.021-.166-.021a.853.853,0,0,0-.228-.021c-.062,0-.1-.021-.166-.021s-.145-.021-.208-.021a.456.456,0,0,1-.166-.021c-.062,0-.145-.021-.208-.021h-1.121a.708.708,0,0,0-.207.021.574.574,0,0,0-.187.021c-.062,0-.145.021-.208.021s-.125.021-.166.021a.736.736,0,0,0-.208.042c-.062,0-.125.021-.166.021-.062.021-.145.021-.207.041s-.1.021-.166.042c-.083.021-.145.042-.228.062-.042.021-.1.021-.145.042a1.168,1.168,0,0,0-.249.083c-.042.021-.083.021-.125.042-.125.041-.228.083-.353.124h0c-.747.291-1.494.6-2.221.934-1.224.54-2.449,1.121-3.673,1.639q-10.4,4.545-20.795,9.048a5.561,5.561,0,0,1-.643.228c-.56-1.266-1.121-2.532-1.7-3.819-.187-.436-.394-.872-.581-1.307A7.65,7.65,0,0,1,262.413,339.184Z" transform="translate(-205.488 -257.78)" fill="#fff"/>
  <path id="Path_634" data-name="Path 634" d="M366.321,359.77v.208a.187.187,0,0,0,.021.1c0,.021.021.042.021.083,0,.021.021.062.021.083s.021.041.021.083c0,.021.021.042.021.083,0,.021.021.042.021.062s.021.042.021.062c.021.021.021.042.042.062s.021.042.042.062.021.042.042.062.021.042.042.062.042.042.042.062c.021.021.021.042.042.062l.062.062h0l.042.042c.021.021.042.042.062.042.021.021.042.021.062.041s.042.021.062.042.042.021.062.041.042.021.062.042.042.021.062.041c.021,0,.042.021.062.021s.042.021.062.021.042.021.062.021.042.021.083.021a.076.076,0,0,1,.062.021.157.157,0,0,1,.083.021h.311a1.106,1.106,0,0,0,.374-.1l.125-.062a.745.745,0,0,0,.207-.145,1.43,1.43,0,0,0,.374-.5,1.169,1.169,0,0,0,.083-.249,1.1,1.1,0,0,0,.021-.27v-.187a.155.155,0,0,0-.021-.1c0-.021-.021-.042-.021-.062s-.021-.062-.021-.083-.021-.041-.021-.062a.158.158,0,0,0-.041-.083c0-.021-.021-.042-.021-.062-.021-.021-.021-.062-.041-.083s-.021-.042-.042-.062-.021-.062-.041-.083-.021-.042-.042-.062-.042-.041-.042-.062c-.021-.021-.042-.042-.042-.062l-.062-.062-.062-.062-.062-.062c-.021-.021-.042-.042-.062-.042l-.062-.062c-.021-.021-.042-.021-.062-.042s-.042-.041-.062-.041c-.021-.021-.042-.021-.062-.042s-.042-.021-.062-.042a.076.076,0,0,0-.062-.021c-.021-.021-.042-.021-.062-.042-.021,0-.042-.021-.062-.021s-.042-.021-.083-.021a.076.076,0,0,1-.062-.021c-.021,0-.042-.021-.083-.021h-.145a1.209,1.209,0,0,0-.394.062c-.1.042-.187.083-.27.124a.881.881,0,0,0-.145.1.02.02,0,0,0-.021.021,1.343,1.343,0,0,0-.166.187,1.184,1.184,0,0,0-.228.457,1.3,1.3,0,0,0-.062.394A.02.02,0,0,1,366.321,359.77Z" transform="translate(-290.282 -284.011)" fill="#fff"/>
  <path id="Path_635" data-name="Path 635" d="M422.151,399.638a.157.157,0,0,0-.021-.083c0-.062-.021-.1-.021-.166,0-.021-.021-.062-.021-.083-.021-.042-.021-.1-.042-.145a.157.157,0,0,0-.042-.083.3.3,0,0,1-.042-.125c-.021-.021-.021-.062-.041-.083l-.062-.125a.157.157,0,0,1-.041-.083l-.062-.125a.286.286,0,0,1-.062-.083c-.021-.042-.062-.062-.083-.1l-.062-.062c-.021-.041-.062-.062-.083-.1a.286.286,0,0,0-.083-.062c-.042-.021-.062-.062-.1-.083-.021-.021-.062-.042-.083-.062-.041-.021-.062-.062-.1-.083a.158.158,0,0,0-.083-.042.457.457,0,0,1-.1-.062c-.021-.021-.062-.021-.083-.042l-.124-.062c-.042-.021-.062-.021-.1-.042s-.083-.021-.125-.042a.187.187,0,0,0-.1-.021c-.042-.021-.083-.021-.125-.042-.042,0-.062-.021-.1-.021s-.083-.021-.125-.021h-.249a2.442,2.442,0,0,0-2.366,2.407.78.78,0,0,0,.021.228.157.157,0,0,0,.021.083c0,.041.021.1.021.145,0,.021.021.062.021.083.021.042.021.083.041.124.021.021.021.062.042.083a.3.3,0,0,1,.042.125c.021.021.021.062.042.083a.453.453,0,0,0,.062.1c.021.021.041.062.062.083.021.042.042.062.062.1.021.021.042.062.062.083a.365.365,0,0,0,.083.1.288.288,0,0,1,.062.083l.083.083c.021.021.062.042.083.062a.453.453,0,0,0,.1.083c.021.021.062.042.083.062.042.021.062.041.1.062.021.021.062.042.083.062.042.021.062.041.1.062s.062.042.1.042a.353.353,0,0,0,.1.042c.042.021.062.021.1.042s.083.021.125.041a.187.187,0,0,0,.1.021c.042,0,.083.021.125.021a.9.9,0,0,1,.1.021c.042,0,.083.021.125.021h.249a2.321,2.321,0,0,0,1.453-.581,1.559,1.559,0,0,0,.311-.332,1.14,1.14,0,0,1,.145-.187,2.452,2.452,0,0,0,.228-.394c.021-.062.062-.145.083-.208a2.371,2.371,0,0,0,.1-.685Z" transform="translate(-330.776 -314.997)" fill="#111"/>
  <path id="Path_636" data-name="Path 636" d="M412.624,388.7H412.6a4.254,4.254,0,0,0-3.009,1.307,4.149,4.149,0,0,0-1.2,3.009,4.268,4.268,0,0,0,4.275,4.13h.1a4.224,4.224,0,0,0-.145-8.446Zm2.2,5.105a1.5,1.5,0,0,1-.228.394,1.139,1.139,0,0,1-.145.187c-.1.125-.207.228-.311.332a2.321,2.321,0,0,1-1.453.581h-.27a.263.263,0,0,1-.125-.021.156.156,0,0,1-.1-.021c-.042,0-.083-.021-.125-.021s-.062-.021-.1-.021c-.042-.021-.083-.021-.125-.042s-.062-.021-.1-.042a.352.352,0,0,0-.1-.042c-.042-.021-.062-.021-.1-.042s-.062-.042-.1-.062c-.021-.021-.062-.041-.083-.062-.042-.021-.062-.041-.1-.062-.021-.021-.062-.042-.083-.062-.042-.021-.062-.062-.1-.083-.021-.021-.062-.042-.083-.062l-.083-.083a.287.287,0,0,1-.062-.083c-.021-.042-.062-.062-.083-.1-.021-.021-.042-.062-.062-.083-.021-.041-.042-.062-.062-.1-.021-.021-.042-.062-.062-.083a.453.453,0,0,0-.062-.1.158.158,0,0,1-.042-.083.3.3,0,0,1-.042-.125c-.021-.021-.021-.062-.042-.083-.021-.041-.021-.083-.042-.125,0-.021-.021-.062-.021-.083a.354.354,0,0,1-.021-.145c0-.021-.021-.042-.021-.083,0-.083-.021-.145-.021-.228a2.442,2.442,0,0,1,2.366-2.407h.249c.042,0,.083.021.124.021a.156.156,0,0,1,.1.021.3.3,0,0,1,.125.042c.042,0,.062.021.1.021.042.021.083.021.125.042s.062.021.1.041l.124.062c.021.021.062.021.083.042a.451.451,0,0,1,.1.062.157.157,0,0,0,.083.042.364.364,0,0,1,.1.083c.021.021.062.042.083.062.042.021.062.062.1.083a.288.288,0,0,0,.083.062.207.207,0,0,1,.083.1l.062.062c.021.042.062.062.083.1a.285.285,0,0,1,.062.083l.062.125a.157.157,0,0,1,.042.083l.062.125c.021.021.021.062.042.083a.3.3,0,0,1,.042.125.157.157,0,0,0,.041.083c.021.042.021.1.042.145,0,.021.021.062.021.083a.4.4,0,0,1,.021.166.157.157,0,0,0,.021.083c0,.083.021.166.021.228h0a2.607,2.607,0,0,1-.1.685C414.886,393.66,414.865,393.722,414.823,393.805Z" transform="translate(-323.635 -308.023)" fill="#fff"/>
</svg>
