<svg xmlns="http://www.w3.org/2000/svg" width="105.199" height="105.199" viewBox="0 0 105.199 105.199">
  <g id="store_logo" transform="translate(0 0)">
    <path id="Path_314" data-name="Path 314" d="M55.1,6.278A50.822,50.822,0,1,1,4.278,57.1,50.841,50.841,0,0,1,55.1,6.278m0-1.778A50.977,50.977,0,0,0,34.652,8.649,52.914,52.914,0,0,0,17.909,19.909,55.507,55.507,0,0,0,6.649,36.652,50.977,50.977,0,0,0,2.5,57.1,50.977,50.977,0,0,0,6.649,77.547a52.513,52.513,0,0,0,28,28A50.977,50.977,0,0,0,55.1,109.7a50.977,50.977,0,0,0,20.447-4.149,52.513,52.513,0,0,0,28-28A50.977,50.977,0,0,0,107.7,57.1a50.977,50.977,0,0,0-4.149-20.447,52.513,52.513,0,0,0-28-28A50.469,50.469,0,0,0,55.1,4.5" transform="translate(-2.5 -4.5)" fill="#111"/>
    <path id="Path_315" data-name="Path 315" d="M34.539,64.678,32.31,73.752l-1.751-.478L32.31,66.11H30.559L30.4,64.518l2.547-.318Z" transform="translate(10.822 23.01)" fill="#111"/>
    <path id="Path_316" data-name="Path 316" d="M34.8,69.576c.159-2.866,1.433-4.776,3.821-4.776s3.662,2.07,3.5,4.935-1.433,4.776-3.821,4.776c-2.229,0-3.662-2.07-3.5-4.935m5.572.159c0-1.91-.478-3.025-1.751-3.184-1.274,0-1.91.955-1.91,3.025,0,1.91.478,3.025,1.751,3.025,1.274.159,1.91-.955,1.91-2.866" transform="translate(12.807 23.365)" fill="#111"/>
    <path id="Path_317" data-name="Path 317" d="M41.772,69.8c-.637-2.866.318-4.935,2.547-5.572,2.388-.478,3.98,1.114,4.617,3.98s-.318,4.935-2.547,5.572c-2.229.478-3.98-1.114-4.617-3.98m5.572-1.114c-.478-1.91-1.274-2.866-2.547-2.547s-1.592,1.433-1.114,3.343,1.274,2.866,2.547,2.547c1.114-.318,1.433-1.433,1.114-3.343" transform="translate(16.015 22.978)" fill="#111"/>
    <path id="Path_318" data-name="Path 318" d="M50.4,69.293l-.8-1.751A41.624,41.624,0,0,0,60.9,59.9l1.274,1.433A41.571,41.571,0,0,1,50.4,69.293" transform="translate(19.537 20.464)" fill="#111"/>
    <path id="Path_319" data-name="Path 319" d="M30.381,69.293A45.175,45.175,0,0,1,18.6,61.333L19.874,59.9a41.624,41.624,0,0,0,11.3,7.642Z" transform="translate(5.033 20.464)" fill="#111"/>
    <path id="Path_320" data-name="Path 320" d="M16.776,54.2a2.912,2.912,0,0,1,4.139.8l2.07,2.866L15.5,63.277,12,58.5l1.433-.955,2.388,3.184,1.433-1.114L16.3,58.183a2.675,2.675,0,0,1,.478-3.98m1.114,1.433a1.127,1.127,0,0,0-.159,1.751l.955,1.433,1.91-1.433-.955-1.433a1.15,1.15,0,0,0-1.751-.318" transform="translate(3.124 18.673)" fill="#111"/>
    <path id="Path_321" data-name="Path 321" d="M12.488,56.658l.955,2.07-1.592.8L10.1,55.862l2.706-1.274-.637-1.433a3.031,3.031,0,0,1,1.592-4.139A3.078,3.078,0,0,1,17.9,50.608l1.433,3.184Zm3.821-5.572a1.474,1.474,0,0,0-1.91-.637,1.288,1.288,0,0,0-.8,1.751l.637,1.433,2.547-1.114Z" transform="translate(2 16.276)" fill="#111"/>
    <path id="Path_322" data-name="Path 322" d="M7.8,47.794,16.238,42.7l.318,2.07-6.527,3.662,7.482.637.478,2.07L8.278,50.023Z" transform="translate(0.637 13.56)" fill="#111"/>
    <path id="Path_323" data-name="Path 323" d="M8.951,39.1v3.5l7.642-.318v1.91l-9.234.318L7.2,39.259Z" transform="translate(0.283 11.974)" fill="#111"/>
    <path id="Path_324" data-name="Path 324" d="M15.36,36.388l-.478,3.662,1.592.8-.318,1.91L7.4,38.3l.318-2.229L17.27,34l-.318,1.91Zm-1.91.318-3.98.8,3.662,1.751Z" transform="translate(0.401 9.436)" fill="#111"/>
    <path id="Path_325" data-name="Path 325" d="M13.394,28.574a3.135,3.135,0,0,1,1.91,3.98l-.478,1.592,2.866.955-.637,1.751L8.3,33.828l1.114-3.343a3.016,3.016,0,0,1,3.98-1.91m-.637,1.751a1.3,1.3,0,0,0-1.751.8l-.478,1.592,2.706.955.478-1.592a1.373,1.373,0,0,0-.955-1.751" transform="translate(0.934 6.786)" fill="#111"/>
    <path id="Path_326" data-name="Path 326" d="M13.574,31.315A4.8,4.8,0,0,1,15.962,22.4v1.751a2.626,2.626,0,0,0-2.388,1.433,2.825,2.825,0,0,0,1.114,4.139,2.9,2.9,0,0,0,4.139-.955,2.764,2.764,0,0,0,.159-2.706l1.592-.955a4.779,4.779,0,0,1-.159,4.617,5.258,5.258,0,0,1-6.846,1.592" transform="translate(2.665 3.94)" fill="#111"/>
    <path id="Path_327" data-name="Path 327" d="M24.389,24.9l-5.413-.478,3.184,3.025-1.274,1.274L14.2,22.354l1.114-1.274,3.025,2.706-.8-5.094L18.976,17.1l.955,5.731,5.89.637Z" transform="translate(2.988 1.41)" fill="#111"/>
    <path id="Path_328" data-name="Path 328" d="M25.027,17.48v6.846l-1.274.8L18.5,17.639l1.433-1.114,3.343,4.617V14.3l1.114-.8,5.254,7.482L28.211,22.1Z" transform="translate(5.014 0.828)" fill="#111"/>
    <path id="Path_329" data-name="Path 329" d="M34.529,19.748l.318,1.114-1.592.478-.318-1.114a4.606,4.606,0,0,1-5.572-3.343,4.6,4.6,0,0,1,3.025-5.731l-.318-1.274L31.664,9.4l.318,1.114a4.606,4.606,0,0,1,5.572,3.343,4.844,4.844,0,0,1-3.025,5.89m-2.07-1.274-1.592-5.89a2.814,2.814,0,0,0-1.592,3.662,2.557,2.557,0,0,0,3.184,2.229m3.343-3.98a2.774,2.774,0,0,0-3.343-2.229l1.592,5.89A2.9,2.9,0,0,0,35.8,14.494" transform="translate(9.112 -1.599)" fill="#111"/>
    <path id="Path_330" data-name="Path 330" d="M41.582,9.1l-2.388,6.846a3.5,3.5,0,0,1-3.5,2.706l-.159-1.592a1.8,1.8,0,0,0,1.91-1.114L34.1,9.578l1.751-.159,2.229,4.3L39.672,9.1Z" transform="translate(12.474 -1.777)" fill="#111"/>
    <path id="Path_331" data-name="Path 331" d="M46.386,11.747,44,11.429l-.955,7.482-1.91-.159.955-7.482L39.7,10.951,39.859,9.2,46.7,10Z" transform="translate(15.147 -1.718)" fill="#111"/>
    <path id="Path_332" data-name="Path 332" d="M50.964,18.278a2.78,2.78,0,0,1-3.821,1.751L43.8,18.915,46.666,10l5.572,1.751-.478,1.592L47.939,12.07,47.3,13.98l1.592.478a2.994,2.994,0,0,1,2.07,3.821m-1.751-.637a1.076,1.076,0,0,0-.8-1.433l-1.592-.478-.637,2.229,1.592.478a1.039,1.039,0,0,0,1.433-.8" transform="translate(17.026 -1.244)" fill="#111"/>
    <path id="Path_333" data-name="Path 333" d="M49.768,15.29a4.768,4.768,0,0,1,6.527-1.751,4.889,4.889,0,1,1-6.527,1.751m6.686,3.98a2.8,2.8,0,0,0-1.114-4.139A2.975,2.975,0,0,0,51.2,16.245a2.8,2.8,0,0,0,1.114,4.139,3.077,3.077,0,0,0,4.139-1.114" transform="translate(19.442 0.471)" fill="#111"/>
    <path id="Path_334" data-name="Path 334" d="M63.289,18.433l-3.98,8.915-1.433-1.274,3.184-6.846L54.533,22.89,53.1,21.617,61.7,17Z" transform="translate(21.32 1.382)" fill="#111"/>
    <path id="Path_335" data-name="Path 335" d="M61.976,29.574l-1.433.955L57.2,25.913,64.682,20.5l3.343,4.458-1.433,1.114-2.229-3.184-1.592,1.274,2.07,2.866-1.433.955-2.07-2.866L59.747,26.39Z" transform="translate(22.049 3.035)" fill="#111"/>
    <path id="Path_336" data-name="Path 336" d="M71.162,31.427l-8.438,3.98-.8-1.751,3.5-1.592L64,28.88l-3.5,1.751-.8-1.751,8.438-3.98.8,1.751L65.59,28.243l1.433,3.025,3.343-1.592Z" transform="translate(23.53 5.095)" fill="#111"/>
    <path id="Path_337" data-name="Path 337" d="M67.061,34.014a4.867,4.867,0,0,1,3.662,8.6l-1.114-1.751a2.407,2.407,0,0,0,.955-2.547,3.042,3.042,0,1,0-6.05.637,2.721,2.721,0,0,0,1.592,2.229l-.8,1.751A4.994,4.994,0,0,1,62.6,39.267a4.942,4.942,0,0,1,4.458-5.254" transform="translate(25.243 9.419)" fill="#111"/>
    <path id="Path_338" data-name="Path 338" d="M70.547,42.129l.159-2.229,1.91.159-.318,3.98-3.025-.318-.159,1.592a3.065,3.065,0,0,1-3.343,2.866,3.122,3.122,0,0,1-2.866-3.5l.318-3.5ZM64.5,44.994a1.3,1.3,0,0,0,1.274,1.433,1.55,1.55,0,0,0,1.592-1.274l.159-1.592L64.656,43.4Z" transform="translate(25.419 12.242)" fill="#111"/>
    <path id="Path_339" data-name="Path 339" d="M63.732,58.832a4.7,4.7,0,0,1-2.706-6.209A4.608,4.608,0,0,1,66.6,49.758l.478-1.274-3.662-1.433.637-1.751,8.6,3.343-.637,1.751-3.343-1.274-.478,1.274a4.787,4.787,0,0,1-4.458,8.438m.637-1.592a3,3,0,0,0,3.98-1.751A2.773,2.773,0,0,0,66.6,51.668a3.054,3.054,0,0,0-3.98,1.751,2.937,2.937,0,0,0,1.751,3.821" transform="translate(24.114 14.52)" fill="#111"/>
    <path id="Path_340" data-name="Path 340" d="M58.916,59.332c-1.433-.955-1.433-2.706-.318-4.3a3.444,3.444,0,0,1,3.821-1.592l-.159,1.751a1.717,1.717,0,0,0-2.229.8c-.637.8-.478,1.592,0,1.91q.955.716,1.91-.478l.637-.955,1.274.955-.478.637q-.716,1.194,0,1.91a1.052,1.052,0,0,0,1.592-.478,1.938,1.938,0,0,0,0-2.07l1.592-.8a3.155,3.155,0,0,1-.318,3.821c-1.114,1.433-2.706,1.91-3.98.955a2.269,2.269,0,0,1-.955-1.91,1.933,1.933,0,0,1-2.388-.159" transform="translate(22.403 18.578)" fill="#111"/>
    <path id="Path_341" data-name="Path 341" d="M43.557,54.133A92.883,92.883,0,0,1,27,52.7l1.274,9.393a33.185,33.185,0,0,0,15.283,4.139Z" transform="translate(8.837 17.994)" fill="#111"/>
    <path id="Path_342" data-name="Path 342" d="M55.157,52.6A92.884,92.884,0,0,1,38.6,54.033v11.94a33.185,33.185,0,0,0,15.283-4.139Z" transform="translate(14.205 17.957)" fill="#111"/>
    <path id="Path_343" data-name="Path 343" d="M27,32.373A92.883,92.883,0,0,1,43.557,30.94V19a33.185,33.185,0,0,0-15.283,4.139Z" transform="translate(8.837 2.27)" fill="#111"/>
    <path id="Path_344" data-name="Path 344" d="M55.157,32.432l-1.274-9.393A33.185,33.185,0,0,0,38.6,18.9V30.84a110.164,110.164,0,0,1,16.557,1.592" transform="translate(14.205 2.22)" fill="#111"/>
    <path id="Path_345" data-name="Path 345" d="M49.5,22.3l1.114,8.756a26.573,26.573,0,0,1,0,38.845L49.5,78.657a33.619,33.619,0,0,0,0-56.357" transform="translate(19.328 2.121)" fill="#111"/>
    <path id="Path_346" data-name="Path 346" d="M32.183,78.657,31.069,69.9a26.573,26.573,0,0,1,0-38.845L32.183,22.3a33.619,33.619,0,0,0,0,56.357" transform="translate(4.188 2.121)" fill="#111"/>
    <path id="Path_347" data-name="Path 347" d="M65.858,29.192A95.077,95.077,0,0,0,47.709,27.6,95.077,95.077,0,0,0,29.56,29.192,24.9,24.9,0,0,0,21.6,46.386H37.042V42.565h1.91v3.821h3.025V42.565h1.91v3.821h3.025V42.565h1.91v3.821h3.025V42.565h1.91v3.821h3.025V42.565h1.91v3.821H74.136a26.7,26.7,0,0,0-8.278-17.194" transform="translate(4.87 6.119)" fill="#111"/>
    <path id="Path_348" data-name="Path 348" d="M73.818,40.6H58.375v3.821h-1.91V40.6H53.44v3.821H51.53V40.6H48.5v3.821H46.754V40.6H43.729v3.821H41.978V40.6H38.953v3.821h-1.91V40.6H21.6a24.9,24.9,0,0,0,7.96,17.194,95.077,95.077,0,0,0,18.149,1.592,95.077,95.077,0,0,0,18.149-1.592A24.9,24.9,0,0,0,73.818,40.6" transform="translate(4.891 12.095)" fill="#111"/>
  </g>
</svg>
