<svg xmlns="http://www.w3.org/2000/svg" width="91.141" height="91.141" viewBox="0 0 91.141 91.141">
  <g id="bfsnew3" transform="translate(0.57 0.57)">
    <path id="Path_752" data-name="Path 752" d="M45.563.57A45.021,45.021,0,1,1,13.758,13.756,44.87,44.87,0,0,1,45.563.57Z" transform="translate(-0.57 -0.57)" fill="none" stroke="#c1a367" stroke-miterlimit="10" stroke-width="1.141"/>
    <path id="Path_753" data-name="Path 753" d="M65.206,25.932a27.759,27.759,0,1,0,8.14,19.638A27.694,27.694,0,0,0,65.206,25.932ZM45.563,71.6a26.048,26.048,0,1,1,18.406-7.628A25.9,25.9,0,0,1,45.563,71.6Z" transform="translate(-0.57 -0.57)" fill="#c1a367"/>
    <path id="Path_754" data-name="Path 754" d="M70.936,44.641a8.847,8.847,0,0,0-2.9,3.634c-1.955-4.261-4.932-6.494-8.594-7.34a12.24,12.24,0,0,0,2.67-11.018,8.815,8.815,0,0,0,4.406,1.226A25.487,25.487,0,0,0,52.654,21.088a9.03,9.03,0,0,0,2.495,3.736,12.118,12.118,0,0,0-9.586,5.969,12.153,12.153,0,0,0-9.586-5.969,9.03,9.03,0,0,0,2.495-3.736,25.273,25.273,0,0,0-10.855,6.435,25.531,25.531,0,0,0-3.006,3.619,8.775,8.775,0,0,0,4.406-1.226,12.281,12.281,0,0,0,2.67,11.018c-3.677.846-6.639,3.079-8.594,7.34a8.847,8.847,0,0,0-2.9-3.634c-.015.277-.015.555-.015.846A25.308,25.308,0,0,0,25.545,61.1a8.99,8.99,0,0,0,.2-4.582,12.028,12.028,0,0,0,11.235.846,12.23,12.23,0,0,0,4.275,10.492,9.039,9.039,0,0,0-4.2,1.547,25.521,25.521,0,0,0,17.012,0,9.039,9.039,0,0,0-4.2-1.547,12.245,12.245,0,0,0,4.275-10.492,12.026,12.026,0,0,0,11.235-.846,8.991,8.991,0,0,0,.2,4.582,25.25,25.25,0,0,0,5.369-15.614C70.951,45.211,70.951,44.933,70.936,44.641ZM50.86,52.58H40.471L37,42.321l8.667-6.348,8.667,6.348Z" transform="translate(-0.57 -0.57)" fill="#c1a367"/>
    <g id="Group_99" data-name="Group 99" transform="translate(5.276 5.504)">
      <path id="Path_755" data-name="Path 755" d="M45.242,79.035l.741,1.683,1.811.185L46.44,82.115l.385,1.8-1.583-.927-1.568.927.385-1.8L42.7,80.9l1.811-.185Z" transform="translate(-5.264 -4.933)" fill="#c1a367" fill-rule="evenodd"/>
      <path id="Path_756" data-name="Path 756" d="M36.53,14.3l.2.756-1.44.385-.2-.756a4.325,4.325,0,0,1-2.723-.271,2.752,2.752,0,0,1-1.44-1.854,2.8,2.8,0,0,1,.385-2.381,4.087,4.087,0,0,1,2.167-1.568l-.185-.67,1.44-.385.185.67A4.075,4.075,0,0,1,37.6,8.5a2.755,2.755,0,0,1,1.483,1.868,2.905,2.905,0,0,1-.314,2.438,3.915,3.915,0,0,1-2.239,1.5ZM35.247,9.525l.927,3.465c1.24-.456,1.725-1.212,1.454-2.253S36.559,9.3,35.247,9.525Zm-1.44.385c-1.24.456-1.725,1.212-1.44,2.253s1.069,1.44,2.367,1.212Z" transform="translate(-5.433 -6.074)" fill="#c1a367"/>
      <path id="Path_757" data-name="Path 757" d="M49.734,6.331l4.206.741L53.7,8.512,52.3,8.27l-1.084,6.217-1.469-.257L50.832,8l-1.355-.228Z" transform="translate(-5.163 -6.074)" fill="#c1a367"/>
      <path id="Path_758" data-name="Path 758" d="M67.771,12.975A3.818,3.818,0,0,1,69.4,15.585a4,4,0,0,1-.7,3.066,3.858,3.858,0,0,1-2.6,1.683A4.053,4.053,0,0,1,61.426,17a4.005,4.005,0,0,1,.7-3.023A3.924,3.924,0,0,1,63.736,12.6a4.06,4.06,0,0,1,2.053-.371,4.3,4.3,0,0,1,1.982.741Zm-.841,1.183a2.424,2.424,0,0,0-1.911-.428,2.575,2.575,0,0,0-1.683,1.141,2.538,2.538,0,0,0-.413,2.21,2.509,2.509,0,0,0,1.012,1.426,2.353,2.353,0,0,0,1.9.4A2.491,2.491,0,0,0,67.5,17.795a2.6,2.6,0,0,0,.471-1.968A2.5,2.5,0,0,0,66.93,14.159Z" transform="translate(-4.933 -6.074)" fill="#c1a367"/>
      <path id="Path_759" data-name="Path 759" d="M70.851,26.949l3.108-5.219-5.475,2.239L67.5,22.757l7.571-2.923L76.012,21l-4.163,7.172Z" transform="translate(-4.691 -5.848)" fill="#c1a367"/>
      <path id="Path_760" data-name="Path 760" d="M79.506,26.293l1.953,3.764-1.283.67L78.907,28.26l-1.326.7,1.269,2.467-1.255.656-1.269-2.467-1.725.9,1.269,2.452-1.283.67-1.939-3.764Z" transform="translate(-4.691 -5.747)" fill="#c1a367"/>
      <path id="Path_761" data-name="Path 761" d="M82.856,33.636,83.2,35.1l-2.837.67.6,2.538,2.837-.684.342,1.454-7.529,1.8-.342-1.454,3.308-.784-.6-2.538-3.308.784-.342-1.454Z" transform="translate(-4.691 -5.629)" fill="#c1a367"/>
      <path id="Path_762" data-name="Path 762" d="M43.56,11.421,41.079,6.188l1.668-.029,1.625,3.764L46.055,6.1l1.511-.029-3.55,7.913-1.711.029Z" transform="translate(-5.279 -6.074)" fill="#c1a367"/>
      <path id="Path_763" data-name="Path 763" d="M53.983,15.043,56.45,7.671l3.836,1.3-.456,1.369L57.391,9.51l-.471,1.412a5.659,5.659,0,0,1,1.754.827,2.291,2.291,0,0,1,.656,2.581,2.466,2.466,0,0,1-.7,1.126,2.575,2.575,0,0,1-2.581.271l-2.067-.684Zm2.5-2.795-.656,1.939.342.114c.228.071.428.114.6.157.556.114.97.014,1.169-.585C58.289,12.833,57.248,12.5,56.478,12.248Z" transform="translate(-5.074 -6.074)" fill="#c1a367"/>
      <path id="Path_764" data-name="Path 764" d="M31.4,73.959l-3.707,6.83-3.55-1.953.684-1.269,2.253,1.24L27.79,77.5a5.875,5.875,0,0,1-1.583-1.112,2.572,2.572,0,0,1,.684-3.65,2.606,2.606,0,0,1,2.6.185L31.4,73.959Zm-2.952,2.324.984-1.8-.328-.171a3.769,3.769,0,0,0-.57-.257c-.528-.214-.955-.185-1.255.371C26.763,75.385,27.733,75.884,28.446,76.283Z" transform="translate(-5.549 -4.933)" fill="#c1a367"/>
      <path id="Path_765" data-name="Path 765" d="M17.866,61.3l-3.508,4.976,5.917-1.383.884,1.3-8.085,1.868-.841-1.24,4.748-6.83Z" transform="translate(-5.846 -5.193)" fill="#c1a367"/>
      <path id="Path_766" data-name="Path 766" d="M9.525,61.968,8.142,58.36,9.5,57.847l.841,2.239,5.889-2.267.513,1.369Z" transform="translate(-5.846 -5.273)" fill="#c1a367"/>
      <path id="Path_767" data-name="Path 767" d="M6.673,53.056l-.257-1.483,7.1-4.306.271,1.511-1.469.884.542,3.123,1.683.342.271,1.511L6.673,53.056Zm1.882-1.112,2.795.556-.356-2.025Z" transform="translate(-5.846 -5.407)" fill="#c1a367"/>
      <path id="Path_768" data-name="Path 768" d="M5.846,44.7l.143-1.568A5.121,5.121,0,0,1,6.4,41.321a1.858,1.858,0,0,1,.841-.813,2.231,2.231,0,0,1,1.283-.2,2.13,2.13,0,0,1,1.3.556,2.161,2.161,0,0,1,.627,1.226,6.525,6.525,0,0,1-.029,1.568l3.265.314-.143,1.469-7.7-.741ZM9,43.517l.043-.471a3.306,3.306,0,0,0,0-.77.775.775,0,0,0-.228-.371.825.825,0,0,0-.428-.171.709.709,0,0,0-.684.285,2.048,2.048,0,0,0-.242.927l-.043.413Z" transform="translate(-5.846 -5.537)" fill="#c1a367"/>
      <path id="Path_769" data-name="Path 769" d="M10.737,26.521l.813-1.255,2.224,1.469L12.69,23.5l.97-1.5,1.412,4.178,5.219-.157-.955,1.469-4.178.143,2.88,1.882-.813,1.255Z" transform="translate(-5.846 -5.811)" fill="#c1a367"/>
      <path id="Path_770" data-name="Path 770" d="M20.019,15.285l5.276,5.689-1.069,1.012-3.308-3.565L22.1,23.969l-.927.884L15.9,19.163l1.069-1.012,3.408,3.679-1.269-5.689Z" transform="translate(-5.846 -6.074)" fill="#c1a367"/>
      <path id="Path_771" data-name="Path 771" d="M11.207,38.6a4.07,4.07,0,0,1-3.75-4.349,4.012,4.012,0,0,1,3.394-3.565l-.4,1.526a2.614,2.614,0,0,0-1.6,2.167,2.714,2.714,0,0,0,5.4.485,2.573,2.573,0,0,0-.642-1.939l.442-1.454A3.968,3.968,0,0,1,11.207,38.6Z" transform="translate(-5.846 -5.673)" fill="#c1a367" fill-rule="evenodd"/>
      <path id="Path_772" data-name="Path 772" d="M25.38,70.038,21.1,74.758l1.283,1.169-.927,1.027-2.367-2.167,1.968-2.167-.242-.228a4.633,4.633,0,0,1-.984-1.183,2.4,2.4,0,0,1,.385-2.709,2.351,2.351,0,0,1,1.2-.741,2.252,2.252,0,0,1,1.2.029,3.314,3.314,0,0,1,1.155.77l1.611,1.483Zm-3.436,1.611L23.356,70.1l-.271-.257a2.354,2.354,0,0,0-1.027-.642.838.838,0,0,0-.8.342c-.5.542-.342,1.183.456,1.911Z" transform="translate(-5.634 -4.933)" fill="#c1a367"/>
      <path id="Path_773" data-name="Path 773" d="M74.159,58.36l5.661,2.894L80.6,59.7l1.226.627-1.454,2.866-2.6-1.326-.143.3a4.591,4.591,0,0,1-.884,1.269,2.257,2.257,0,0,1-1.212.585,2.527,2.527,0,0,1-2.51-1.226,2.177,2.177,0,0,1-.285-1.169,3.721,3.721,0,0,1,.428-1.326l.984-1.939Zm2.452,2.923-1.868-.955-.171.328a2.569,2.569,0,0,0-.342,1.155.837.837,0,0,0,.528.684q.984.492,1.711-.941Z" transform="translate(-4.691 -5.247)" fill="#c1a367"/>
      <path id="Path_774" data-name="Path 774" d="M73.46,68.926l-.713.7a5.009,5.009,0,0,1,.442,2.98,4.182,4.182,0,0,1-1.141,2.053,4.032,4.032,0,0,1-5.718-.157,3.957,3.957,0,0,1-1.155-2.894,3.892,3.892,0,0,1,1.212-2.823,4.128,4.128,0,0,1,2.6-1.169,3.541,3.541,0,0,1,2.766.97l.713-.7-2.353-2.452,1.055-1.027,5.375,5.6-1.055,1.027-2.025-2.11Zm-6.074,4.548a2.592,2.592,0,0,0,1.8.827,2.343,2.343,0,0,0,1.854-.7,2.447,2.447,0,0,0,.77-1.782,2.572,2.572,0,0,0-.784-1.911,2.435,2.435,0,0,0-1.868-.827,2.548,2.548,0,0,0-1.782.727,2.411,2.411,0,0,0-.756,1.8A2.746,2.746,0,0,0,67.386,73.474Z" transform="translate(-4.691 -4.933)" fill="#c1a367"/>
      <path id="Path_775" data-name="Path 775" d="M62.452,74.4a1.705,1.705,0,0,0-1.782-.014,1.132,1.132,0,0,0,.285,1.982c.5.171,1.141-.228,1.583-.456l.6,1.183c-.6.314-1.3.77-.884,1.568a.811.811,0,0,0,.528.471,1.11,1.11,0,0,0,1.326-1.1l1.126-.542a2.34,2.34,0,0,1-1.255,2.837,2.308,2.308,0,0,1-1.668.228,1.857,1.857,0,0,1-1.255-1.041,1.815,1.815,0,0,1,.1-1.911,2.335,2.335,0,0,1-2.3-3.123,2.892,2.892,0,0,1,4.791-.8Z" transform="translate(-4.995 -4.933)" fill="#c1a367"/>
      <path id="Path_776" data-name="Path 776" d="M79.777,49.278a3.983,3.983,0,0,1,1.055,7.856l.257-1.554a2.61,2.61,0,0,0-1.312-4.919A2.675,2.675,0,0,0,77.067,53.3a2.575,2.575,0,0,0,.813,1.868l-.314,1.5a3.971,3.971,0,0,1-1.9-3.365A4.045,4.045,0,0,1,79.777,49.278Z" transform="translate(-4.691 -5.37)" fill="#c1a367" fill-rule="evenodd"/>
    </g>
  </g>
</svg>
