<svg xmlns="http://www.w3.org/2000/svg" width="323" height="111.542" viewBox="0 0 323 111.542">
  <g id="store_logo" transform="translate(-2.5 -4.5)">
    <g id="Group_52" data-name="Group 52" transform="translate(2.5 4.5)">
      <path id="Path_50" data-name="Path 50" d="M58.271,6.385A53.886,53.886,0,1,1,4.385,60.271,53.906,53.906,0,0,1,58.271,6.385m0-1.885a54.05,54.05,0,0,0-21.68,4.4,56.1,56.1,0,0,0-17.752,11.94A58.853,58.853,0,0,0,6.9,38.591a54.05,54.05,0,0,0-4.4,21.68,54.05,54.05,0,0,0,4.4,21.68,55.679,55.679,0,0,0,29.692,29.692,54.05,54.05,0,0,0,21.68,4.4,54.05,54.05,0,0,0,21.68-4.4,55.679,55.679,0,0,0,29.692-29.692,54.05,54.05,0,0,0,4.4-21.68,54.05,54.05,0,0,0-4.4-21.68A55.679,55.679,0,0,0,79.951,8.9a53.512,53.512,0,0,0-21.68-4.4" transform="translate(-2.5 -4.5)" fill="#fff"/>
      <path id="Path_51" data-name="Path 51" d="M34.485,64.671l-2.2,8.955-1.728-.471,1.728-7.07H30.557L30.4,64.514l2.514-.314Z" transform="translate(13.431 29.589)" fill="#fff"/>
      <path id="Path_52" data-name="Path 52" d="M34.8,69.513c.157-2.828,1.414-4.713,3.77-4.713s3.613,2.042,3.456,4.87-1.414,4.713-3.77,4.713c-2.2,0-3.613-2.042-3.456-4.87m5.5.157c0-1.885-.471-2.985-1.728-3.142-1.257,0-1.885.943-1.885,2.985,0,1.885.471,2.985,1.728,2.985,1.257.157,1.885-.943,1.885-2.828" transform="translate(15.939 29.932)" fill="#fff"/>
      <path id="Path_53" data-name="Path 53" d="M41.769,69.729c-.628-2.828.314-4.87,2.514-5.5,2.357-.471,3.928,1.1,4.556,3.928s-.314,4.87-2.514,5.5c-2.2.471-3.928-1.1-4.556-3.928m5.5-1.1c-.471-1.885-1.257-2.828-2.514-2.514s-1.571,1.414-1.1,3.3,1.257,2.828,2.514,2.514c1.1-.314,1.414-1.414,1.1-3.3" transform="translate(19.814 29.559)" fill="#fff"/>
      <path id="Path_54" data-name="Path 54" d="M50.386,69.169,49.6,67.441A41.075,41.075,0,0,0,60.754,59.9l1.257,1.414a41.023,41.023,0,0,1-11.625,7.855" transform="translate(24.395 27.134)" fill="#fff"/>
      <path id="Path_55" data-name="Path 55" d="M30.225,69.169A44.58,44.58,0,0,1,18.6,61.314L19.857,59.9a41.075,41.075,0,0,0,11.154,7.541Z" transform="translate(6.693 27.134)" fill="#fff"/>
      <path id="Path_56" data-name="Path 56" d="M16.713,54.2a2.874,2.874,0,0,1,4.085.785l2.042,2.828-7.384,5.341L12,58.438l1.414-.943,2.357,3.142,1.414-1.1-.943-1.414a2.64,2.64,0,0,1,.471-3.928m1.1,1.414a1.112,1.112,0,0,0-.157,1.728l.943,1.414,1.885-1.414-.943-1.414a1.134,1.134,0,0,0-1.728-.314" transform="translate(2.925 23.569)" fill="#fff"/>
      <path id="Path_57" data-name="Path 57" d="M12.457,56.553,13.4,58.6l-1.571.786L10.1,55.767l2.671-1.257L12.142,53.1a2.991,2.991,0,0,1,1.571-4.085A3.037,3.037,0,0,1,17.8,50.583l1.414,3.142Zm3.77-5.5a1.454,1.454,0,0,0-1.885-.628,1.271,1.271,0,0,0-.786,1.728l.628,1.414,2.514-1.1Z" transform="translate(1.84 20.741)" fill="#fff"/>
      <path id="Path_58" data-name="Path 58" d="M7.8,47.727,16.126,42.7l.314,2.042L10,48.356l7.384.628.471,2.042-9.583-1.1Z" transform="translate(0.526 17.313)" fill="#fff"/>
      <path id="Path_59" data-name="Path 59" d="M8.928,39.1v3.456l7.541-.314v1.885l-9.112.314L7.2,39.257Z" transform="translate(0.184 15.257)" fill="#fff"/>
      <path id="Path_60" data-name="Path 60" d="M15.255,36.357l-.471,3.613,1.571.786-.314,1.885L7.4,38.242l.314-2.2L17.14,34l-.314,1.885Zm-1.885.314-3.928.786,3.613,1.728Z" transform="translate(0.298 12.345)" fill="#fff"/>
      <path id="Path_61" data-name="Path 61" d="M13.327,28.572A3.094,3.094,0,0,1,15.212,32.5l-.471,1.571,2.828.943-.628,1.728L8.3,33.756l1.1-3.3a2.976,2.976,0,0,1,3.928-1.885M12.7,30.3a1.28,1.28,0,0,0-1.728.786L10.5,32.656l2.671.943.471-1.571A1.355,1.355,0,0,0,12.7,30.3" transform="translate(0.812 9.133)" fill="#fff"/>
      <path id="Path_62" data-name="Path 62" d="M13.543,31.2A4.734,4.734,0,0,1,15.9,22.4v1.728a2.592,2.592,0,0,0-2.357,1.414,2.788,2.788,0,0,0,1.1,4.085,2.86,2.86,0,0,0,4.085-.943,2.727,2.727,0,0,0,.157-2.671l1.571-.943a4.716,4.716,0,0,1-.157,4.556A5.188,5.188,0,0,1,13.543,31.2" transform="translate(2.482 5.721)" fill="#fff"/>
      <path id="Path_63" data-name="Path 63" d="M24.254,24.8l-5.341-.471,3.142,2.985L20.8,28.568l-6.6-6.284,1.1-1.257L18.285,23.7,17.5,18.671,18.913,17.1l.943,5.656,5.813.628Z" transform="translate(4.181 2.695)" fill="#fff"/>
      <path id="Path_64" data-name="Path 64" d="M24.941,17.428v6.755l-1.257.786L18.5,17.585l1.414-1.1,3.3,4.556V14.286l1.1-.786L29.5,20.884l-1.414,1.1Z" transform="translate(6.636 0.639)" fill="#fff"/>
      <path id="Path_65" data-name="Path 65" d="M34.433,19.612l.314,1.1-1.571.471-.314-1.1a4.545,4.545,0,0,1-5.5-3.3,4.54,4.54,0,0,1,2.985-5.656l-.314-1.257L31.6,9.4l.314,1.1a4.545,4.545,0,0,1,5.5,3.3,4.78,4.78,0,0,1-2.985,5.813M32.39,18.355l-1.571-5.813a2.776,2.776,0,0,0-1.571,3.613,2.523,2.523,0,0,0,3.142,2.2m3.3-3.928a2.738,2.738,0,0,0-3.3-2.2l1.571,5.813a2.859,2.859,0,0,0,1.728-3.613" transform="translate(11.598 -1.702)" fill="#fff"/>
      <path id="Path_66" data-name="Path 66" d="M41.484,9.1l-2.357,6.755a3.451,3.451,0,0,1-3.456,2.671l-.157-1.571a1.779,1.779,0,0,0,1.885-1.1L34.1,9.571l1.728-.157,2.2,4.242L39.6,9.1Z" transform="translate(15.544 -1.873)" fill="#fff"/>
      <path id="Path_67" data-name="Path 67" d="M46.3,11.714,43.942,11.4,43,18.783l-1.885-.157.943-7.384L39.7,10.928,39.857,9.2l6.755.786Z" transform="translate(18.742 -1.816)" fill="#fff"/>
      <path id="Path_68" data-name="Path 68" d="M50.87,18.169A2.743,2.743,0,0,1,47.1,19.9l-3.3-1.1L46.628,10l5.5,1.728L51.655,13.3l-3.77-1.257-.628,1.885,1.571.471a2.954,2.954,0,0,1,2.042,3.77m-1.728-.628a1.062,1.062,0,0,0-.785-1.414l-1.571-.471-.628,2.2,1.571.471a1.025,1.025,0,0,0,1.414-.786" transform="translate(21.083 -1.359)" fill="#fff"/>
      <path id="Path_69" data-name="Path 69" d="M49.758,15.259A4.705,4.705,0,0,1,56.2,13.531a4.825,4.825,0,1,1-6.441,1.728m6.6,3.928a2.76,2.76,0,0,0-1.1-4.085,2.936,2.936,0,0,0-4.085,1.1,2.76,2.76,0,0,0,1.1,4.085,3.037,3.037,0,0,0,4.085-1.1" transform="translate(24.079 0.294)" fill="#fff"/>
      <path id="Path_70" data-name="Path 70" d="M63.154,18.414l-3.928,8.8-1.414-1.257L60.955,19.2l-6.441,3.613L53.1,21.556,61.583,17Z" transform="translate(26.393 2.638)" fill="#fff"/>
      <path id="Path_71" data-name="Path 71" d="M61.913,29.455,60.5,30.4l-3.3-4.556L64.584,20.5l3.3,4.4L66.469,26l-2.2-3.142L62.7,24.113l2.042,2.828-1.414.943-2.042-2.828-1.571,1.257Z" transform="translate(28.734 4.636)" fill="#fff"/>
      <path id="Path_72" data-name="Path 72" d="M71.011,31.341l-8.326,3.928L61.9,33.541l3.456-1.571-1.414-3.142-3.456,1.728L59.7,28.828,68.026,24.9l.785,1.728-3.3,1.571,1.414,2.985,3.3-1.571Z" transform="translate(30.162 7.149)" fill="#fff"/>
      <path id="Path_73" data-name="Path 73" d="M67,34.013A4.8,4.8,0,0,1,70.615,42.5l-1.1-1.728a2.375,2.375,0,0,0,.943-2.514,3,3,0,1,0-5.97.628,2.685,2.685,0,0,0,1.571,2.2l-.786,1.728A4.928,4.928,0,0,1,62.6,39.2,4.876,4.876,0,0,1,67,34.013" transform="translate(31.814 12.332)" fill="#fff"/>
      <path id="Path_74" data-name="Path 74" d="M70.446,42.1l.157-2.2,1.885.157-.314,3.928-2.985-.314-.157,1.571a3.025,3.025,0,0,1-3.3,2.828A3.081,3.081,0,0,1,62.9,44.613l.314-3.456Zm-5.97,2.828a1.283,1.283,0,0,0,1.257,1.414A1.53,1.53,0,0,0,67.3,45.084l.157-1.571-2.828-.157Z" transform="translate(31.984 15.714)" fill="#fff"/>
      <path id="Path_75" data-name="Path 75" d="M63.692,58.654a4.634,4.634,0,0,1-2.671-6.127,4.547,4.547,0,0,1,5.5-2.828l.471-1.257-3.613-1.414.628-1.728,8.483,3.3-.628,1.728-3.3-1.257-.471,1.257a4.724,4.724,0,0,1-4.4,8.326m.628-1.571a2.959,2.959,0,0,0,3.928-1.728,2.737,2.737,0,0,0-1.728-3.77,3.014,3.014,0,0,0-3.928,1.728,2.9,2.9,0,0,0,1.728,3.77" transform="translate(30.726 18.797)" fill="#fff"/>
      <path id="Path_76" data-name="Path 76" d="M58.9,59.253c-1.414-.943-1.414-2.671-.314-4.242a3.4,3.4,0,0,1,3.77-1.571L62.2,55.168a1.694,1.694,0,0,0-2.2.785c-.628.786-.471,1.571,0,1.885q.943.707,1.885-.471l.628-.943,1.257.943L63.3,58q-.707,1.178,0,1.885a1.038,1.038,0,0,0,1.571-.471,1.912,1.912,0,0,0,0-2.042l1.571-.786a3.113,3.113,0,0,1-.314,3.77c-1.1,1.414-2.671,1.885-3.928.943a2.239,2.239,0,0,1-.943-1.885,1.907,1.907,0,0,1-2.357-.157" transform="translate(29.076 23.383)" fill="#fff"/>
      <path id="Path_77" data-name="Path 77" d="M43.339,54.114A91.659,91.659,0,0,1,27,52.7l1.257,9.269a32.748,32.748,0,0,0,15.082,4.085Z" transform="translate(11.49 23.023)" fill="#fff"/>
      <path id="Path_78" data-name="Path 78" d="M54.939,52.6A91.659,91.659,0,0,1,38.6,54.014V65.8a32.748,32.748,0,0,0,15.082-4.085Z" transform="translate(18.114 22.966)" fill="#fff"/>
      <path id="Path_79" data-name="Path 79" d="M27,32.2a91.658,91.658,0,0,1,16.339-1.414V19a32.748,32.748,0,0,0-15.082,4.085Z" transform="translate(11.49 3.78)" fill="#fff"/>
      <path id="Path_80" data-name="Path 80" d="M54.939,32.254l-1.257-9.269A32.748,32.748,0,0,0,38.6,18.9V30.683a108.71,108.71,0,0,1,16.339,1.571" transform="translate(18.114 3.723)" fill="#fff"/>
      <path id="Path_81" data-name="Path 81" d="M49.5,22.3l1.1,8.641a26.223,26.223,0,0,1,0,38.333l-1.1,8.641a33.175,33.175,0,0,0,0-55.614" transform="translate(24.338 5.664)" fill="#fff"/>
      <path id="Path_82" data-name="Path 82" d="M31.982,77.914l-1.1-8.641a26.223,26.223,0,0,1,0-38.333l1.1-8.641a33.175,33.175,0,0,0,0,55.614" transform="translate(5.723 5.664)" fill="#fff"/>
      <path id="Path_83" data-name="Path 83" d="M65.274,29.171A93.823,93.823,0,0,0,47.365,27.6a93.823,93.823,0,0,0-17.91,1.571A24.576,24.576,0,0,0,21.6,46.138H36.839v-3.77h1.885v3.77h2.985v-3.77h1.885v3.77h2.985v-3.77h1.885v3.77h2.985v-3.77h1.885v3.77h2.985v-3.77H58.2v3.77H73.443a26.346,26.346,0,0,0-8.169-16.967" transform="translate(8.406 8.69)" fill="#fff"/>
      <path id="Path_84" data-name="Path 84" d="M73.129,40.6H57.89v3.77H56.005V40.6H53.02v3.77H51.135V40.6H48.15v3.77H46.422V40.6H43.437v3.77H41.709V40.6H38.724v3.77H36.839V40.6H21.6a24.576,24.576,0,0,0,7.855,16.967,93.823,93.823,0,0,0,17.91,1.571,93.823,93.823,0,0,0,17.91-1.571A24.576,24.576,0,0,0,73.129,40.6" transform="translate(8.406 16.114)" fill="#fff"/>
    </g>
    <g id="Group_53" data-name="Group 53" transform="translate(128.966 35.763)">
      <path id="Path_85" data-name="Path 85" d="M87.813,41.624a9.9,9.9,0,0,1-3.456-3.3A8.182,8.182,0,0,1,83.1,33.612,9.6,9.6,0,0,1,84.357,28.9a7.817,7.817,0,0,1,3.456-3.3,11.334,11.334,0,0,1,9.74,0,9.9,9.9,0,0,1,3.456,3.3,9.465,9.465,0,0,1,0,9.426,7.817,7.817,0,0,1-3.456,3.3,10.1,10.1,0,0,1-4.87,1.1A9.7,9.7,0,0,1,87.813,41.624Zm8.012-2.357a4.963,4.963,0,0,0,2.2-2.2,6.677,6.677,0,0,0,0-6.284,4.964,4.964,0,0,0-2.2-2.2,6.677,6.677,0,0,0-6.284,0,4.963,4.963,0,0,0-2.2,2.2,6.677,6.677,0,0,0,0,6.284,4.963,4.963,0,0,0,2.2,2.2,6.677,6.677,0,0,0,6.284,0Z" transform="translate(-82.943 -24.343)" fill="#fff"/>
      <path id="Path_86" data-name="Path 86" d="M115.766,39.325c-1.571,1.414-3.928,2.042-6.912,2.2v1.885h-2.985V41.524a12.448,12.448,0,0,1-6.912-2.2,6.693,6.693,0,0,1-2.357-5.5,6.906,6.906,0,0,1,2.357-5.5,12.031,12.031,0,0,1,6.912-2.2V24.4h2.985v1.728a12.448,12.448,0,0,1,6.912,2.2,6.693,6.693,0,0,1,2.357,5.5A6.906,6.906,0,0,1,115.766,39.325Zm-14.453-1.885a8.664,8.664,0,0,0,4.556,1.571V28.8c-4.085.314-6.127,2.042-6.127,5.027A4.344,4.344,0,0,0,101.313,37.439Zm12.1,0a4.153,4.153,0,0,0,1.571-3.613,4.343,4.343,0,0,0-1.571-3.613,7.483,7.483,0,0,0-4.556-1.414V39.01A8.664,8.664,0,0,0,113.41,37.439Z" transform="translate(-75.234 -24.4)" fill="#fff"/>
      <path id="Path_87" data-name="Path 87" d="M112.5,24.8h3.142V37.368L125.068,24.8h2.985V42.4h-3.142V29.984L115.485,42.4H112.5Z" transform="translate(-66.155 -24.172)" fill="#fff"/>
      <path id="Path_88" data-name="Path 88" d="M143.61,39.725v6.6h-2.985V42.4H125.7V24.8h3.142V39.568h8.8V24.8h3.3V39.568h2.671Z" transform="translate(-58.618 -24.172)" fill="#fff"/>
      <path id="Path_89" data-name="Path 89" d="M139,24.8h3.142V37.368L151.568,24.8h2.985V42.4h-3.142V29.984L141.985,42.4H139Z" transform="translate(-51.023 -24.172)" fill="#fff"/>
      <path id="Path_90" data-name="Path 90" d="M164.625,38.311h-8.8L154.1,42.4h-3.3l7.855-17.6H161.8l8.012,17.6h-3.456Zm-1.1-2.514-3.3-7.7-3.3,7.7Z" transform="translate(-44.285 -24.172)" fill="#fff"/>
      <path id="Path_91" data-name="Path 91" d="M180.424,24.8V42.4h-3.142V27.628H170.37l-.157,4.4a46.55,46.55,0,0,1-.628,5.97,6.448,6.448,0,0,1-1.571,3.456,3.781,3.781,0,0,1-2.985,1.257A8.106,8.106,0,0,1,163.3,42.4l.157-2.828a6.806,6.806,0,0,0,.786.157c1.1,0,1.728-.628,2.2-1.885a22.312,22.312,0,0,0,.785-5.813l.314-7.227Z" transform="translate(-37.148 -24.172)" fill="#fff"/>
      <path id="Path_92" data-name="Path 92" d="M190.6,39.725V42.4H177.4V24.8h12.882v2.671H180.7v4.556h8.483V34.7H180.7v4.87h9.9Z" transform="translate(-29.096 -24.172)" fill="#fff"/>
      <path id="Path_93" data-name="Path 93" d="M203.653,24.8V42.4h-3.142V34.854H191.4V42.4h-3.3V24.8h3.3v7.227h9.112V24.8Z" transform="translate(-22.987 -24.172)" fill="#fff"/>
      <path id="Path_94" data-name="Path 94" d="M102.166,58.525c-1.571,1.414-3.928,2.042-6.912,2.2v1.885H92.269V60.724a12.448,12.448,0,0,1-6.912-2.2C83.628,57.268,83,55.383,83,53.026a6.906,6.906,0,0,1,2.357-5.5,12.031,12.031,0,0,1,6.912-2.2V43.6h2.985v1.728a12.448,12.448,0,0,1,6.912,2.2,6.693,6.693,0,0,1,2.357,5.5A6.063,6.063,0,0,1,102.166,58.525Zm-14.3-1.885a8.664,8.664,0,0,0,4.556,1.571V48c-4.085.314-6.127,2.042-6.127,5.027A4.344,4.344,0,0,0,87.87,56.639Zm12.1,0a4.153,4.153,0,0,0,1.571-3.613,4.344,4.344,0,0,0-1.571-3.613A7.483,7.483,0,0,0,95.411,48V58.21A9.2,9.2,0,0,0,99.967,56.639Z" transform="translate(-83 -13.437)" fill="#fff"/>
      <path id="Path_95" data-name="Path 95" d="M112.2,58.925V61.6H99V44h12.882v2.671h-9.74v4.556h8.483V53.9h-8.483v4.87H112.2Z" transform="translate(-73.864 -13.208)" fill="#fff"/>
      <path id="Path_96" data-name="Path 96" d="M125.31,44V61.6h-3.3V54.054H112.9V61.6h-3.3V44h3.3v7.227h9.112V44Z" transform="translate(-67.811 -13.208)" fill="#fff"/>
      <path id="Path_97" data-name="Path 97" d="M143.381,61.6V49.97l-5.813,9.583h-1.414l-5.813-9.426V61.6H127.2V44h2.671l6.912,11.625L143.7,44h2.671V61.6Z" transform="translate(-57.761 -13.208)" fill="#fff"/>
      <path id="Path_98" data-name="Path 98" d="M155.025,57.511h-8.8L144.5,61.6h-3.3L149.055,44H152.2l8.012,17.6h-3.456ZM153.925,55l-3.3-7.7-3.3,7.7Z" transform="translate(-49.767 -13.208)" fill="#fff"/>
      <path id="Path_99" data-name="Path 99" d="M166.94,46.828h-8.8V61.6H155V44h11.94Z" transform="translate(-41.887 -13.208)" fill="#fff"/>
      <path id="Path_100" data-name="Path 100" d="M174.725,57.511h-8.8L164.2,61.6h-3.3L168.755,44H171.9l8.012,17.6h-3.456ZM173.625,55l-3.3-7.7-3.3,7.7Z" transform="translate(-38.518 -13.208)" fill="#fff"/>
      <path id="Path_101" data-name="Path 101" d="M187.011,54.054a3.964,3.964,0,0,1,.943,2.671,3.786,3.786,0,0,1-1.1,2.828,5.132,5.132,0,0,1-2.828,1.728,9.506,9.506,0,0,1-3.77.628,13.085,13.085,0,0,1-3.456-.471,14.915,14.915,0,0,1-3.3-1.414l1.1-2.357a12.526,12.526,0,0,0,2.514,1.257,8.9,8.9,0,0,0,2.828.471,7.3,7.3,0,0,0,3.3-.786,2.23,2.23,0,0,0,1.257-2.2,1.8,1.8,0,0,0-.943-1.728,4.5,4.5,0,0,0-2.671-.628H176.8V51.541h3.77a3.786,3.786,0,0,0,2.357-.628,1.74,1.74,0,0,0,.786-1.571,2.051,2.051,0,0,0-1.1-1.885,5.38,5.38,0,0,0-2.828-.628,15.665,15.665,0,0,0-2.514.314,14.744,14.744,0,0,0-2.357.943l-1.1-2.671a20.981,20.981,0,0,1,2.828-1.1A9.668,9.668,0,0,1,179.627,44a9.217,9.217,0,0,1,3.613.628,6.568,6.568,0,0,1,2.671,1.728,3.964,3.964,0,0,1,.943,2.671,4.091,4.091,0,0,1-.628,2.357,6.286,6.286,0,0,1-1.885,1.571A2.7,2.7,0,0,1,187.011,54.054Z" transform="translate(-31.323 -13.208)" fill="#fff"/>
      <path id="Path_102" data-name="Path 102" d="M185.1,44h3.142V56.568L197.668,44h2.985V61.6h-3.142V49.184L188.085,61.6H185.1Z" transform="translate(-24.7 -13.208)" fill="#fff"/>
      <path id="Path_103" data-name="Path 103" d="M213.81,44V61.6h-3.3V54.054H201.4V61.6h-3.3V44h3.3v7.227h9.112V44Z" transform="translate(-17.277 -13.208)" fill="#fff"/>
    </g>
  </g>
</svg>
